<svg width="64" height="64" viewBox="0 0 64 64" fill="none" xmlns="http://www.w3.org/2000/svg">
<path d="M27.7696 40.9399H26.0196L25.8996 40.4399V40.9399H21.1696C14.4396 40.9399 13.5196 40.0499 13.1696 39.0599C13.0429 38.7564 12.9853 38.4284 13.0008 38.0998C13.0164 37.7712 13.1048 37.4502 13.2596 37.1599C13.8796 35.9899 15.8996 35.0799 19.2596 34.4399C19.1796 31.3599 19.1596 27.6299 19.1496 24.0299C19.1496 19.7399 19.0996 15.3199 18.9796 13.0299H18.5596C16.6824 12.9226 14.8116 13.3306 13.1496 14.2099C12.9736 14.9807 12.85 15.7625 12.7796 16.5499C12.7063 17.6227 12.4946 18.6815 12.1496 19.6999L11.9996 19.9999L11.6596 20.2499C11.0991 20.7238 10.3934 20.992 9.65964 21.0099C9.32098 21.006 8.98667 20.933 8.67717 20.7955C8.36768 20.6579 8.08949 20.4587 7.85964 20.2099C5.47964 17.7799 6.31964 8.87993 6.90964 7.83993C7.49964 6.79993 12.2396 6.17993 20.9096 6.17993C28.0196 6.17993 35.2096 6.61993 38.0196 7.22993L38.9596 7.43993L39.1796 8.43993C39.9596 11.9999 39.7196 17.6499 38.2396 19.6099C38.0456 19.9055 37.7837 20.1505 37.4758 20.3244C37.168 20.4984 36.823 20.5963 36.4696 20.6099H36.3496C34.4596 20.4999 33.9596 18.6099 33.4596 16.8499C33.2125 15.8304 32.8985 14.8282 32.5196 13.8499C32.1047 13.5401 31.6268 13.325 31.1196 13.2199C30.2029 12.977 29.2581 12.8559 28.3096 12.8599C27.6092 12.8283 26.9086 12.9197 26.2396 13.1299C25.5096 14.8299 26.1196 27.5199 26.3196 31.7399L26.9996 33.9999C29.6496 34.3999 31.9996 35.3699 32.8996 36.7099C33.1329 37.0424 33.2662 37.4346 33.2839 37.8403C33.3017 38.2461 33.203 38.6484 32.9996 38.9999C32.0496 40.7799 29.7996 40.9399 27.7696 40.9399Z" fill="#FFB745"/>
<path d="M20.8801 6.67991C27.6301 6.67991 34.9601 7.08991 37.8801 7.67991C38.2643 7.76531 38.5643 8.06571 38.6491 8.45013L38.66 8.49991C39.4001 11.8799 39.1901 17.4299 37.8101 19.2499C37.6599 19.4784 37.4571 19.6676 37.2187 19.8016C36.9804 19.9356 36.7133 20.0105 36.4401 20.0199H36.3601C34.8201 19.9299 34.3601 18.3299 33.92 16.6299C33.6441 15.6117 33.3102 14.6101 32.92 13.6299C32.8701 13.4899 32.4501 13.0499 31.1901 12.7099C30.2282 12.4517 29.236 12.3239 28.2401 12.3299C27.7005 12.2868 27.1595 12.3317 26.6379 12.4611C26.0766 12.6004 25.6515 13.0224 25.5601 13.5934C25.0466 16.8003 25.542 27.0613 25.8001 31.7499C25.8047 31.8436 25.8093 31.9362 25.8139 32.0277C25.8828 33.4243 26.9454 34.5502 28.3006 34.8946C30.2191 35.3821 31.9157 36.1276 32.5001 36.9899C32.6801 37.2403 32.786 37.5363 32.8054 37.8441C32.8249 38.1519 32.7572 38.4589 32.6101 38.7299C31.8201 40.1699 30.0101 40.4199 27.7801 40.4199H21.1701C14.1701 40.4199 13.8201 39.4199 13.5801 38.8499C13.4815 38.613 13.4375 38.357 13.4514 38.1008C13.4652 37.8446 13.5365 37.5948 13.6601 37.3699C14.1341 36.4686 15.6599 35.8214 17.3063 35.3687C18.6878 34.9889 19.709 33.7698 19.686 32.3371C19.6444 29.7485 19.635 26.8686 19.6201 23.9999C19.6201 19.9522 19.5813 15.8039 19.4698 13.3876C19.4467 12.887 19.0312 12.4999 18.5301 12.4999C17.0012 12.4999 15.0157 12.6997 13.574 13.3584C13.0735 13.587 12.7129 14.0353 12.557 14.563C12.375 15.1787 12.2716 15.816 12.2501 16.4599C12.1813 17.4809 11.9831 18.489 11.6601 19.4599L11.6568 19.4681C11.5869 19.6461 11.4706 19.8021 11.3201 19.9199C10.8496 20.3137 10.2629 20.542 9.65005 20.5699C9.3753 20.5638 9.10474 20.5012 8.85526 20.386C8.60578 20.2707 8.38274 20.1052 8.20005 19.8999C6.10005 17.7099 6.80005 9.04991 7.35005 8.08991C7.90005 7.12991 14.1101 6.67991 20.8801 6.67991ZM20.8801 5.66991C20.8801 5.67543 20.8753 5.67991 20.8698 5.67991C7.56965 5.68059 6.79997 7.00007 6.48005 7.59991C5.77005 8.83991 5.00005 17.9999 7.48005 20.5999C7.75718 20.896 8.09147 21.1329 8.46273 21.2962C8.83398 21.4595 9.23449 21.5458 9.64005 21.5499C10.4711 21.5228 11.2697 21.2203 11.9101 20.6899L12.1401 20.5199L12.147 20.5146C12.2865 20.4068 12.3946 20.2636 12.4601 20.0999L12.5801 19.8199C12.9378 18.7554 13.1595 17.65 13.2401 16.5299C13.263 16.2962 13.2906 16.0629 13.3226 15.8303C13.4444 14.9472 14.045 14.1564 14.9356 14.1189C15.2456 14.1059 15.5604 14.1238 15.8784 14.1579C17.3673 14.3176 18.5513 15.6458 18.5732 17.1431C18.6011 19.0552 18.5967 21.3024 18.6101 23.9699C18.6101 26.5188 18.6101 29.1222 18.6504 31.5181C18.6742 32.9329 17.6817 34.1414 16.3315 34.5652C13.4653 35.4647 12.9621 36.4697 12.7101 36.8599C12.5185 37.2151 12.4083 37.6084 12.3875 38.0114C12.3668 38.4144 12.436 38.817 12.5901 39.1899C13.0801 40.3899 14.0601 41.3799 21.1101 41.3799H27.7601C30.0901 41.3799 32.4001 41.1099 33.4701 39.1699C33.7051 38.7377 33.8147 38.2483 33.7864 37.7571C33.7581 37.2659 33.5931 36.7923 33.3101 36.3899C32.5478 35.2617 30.664 34.4415 28.6997 33.9249C27.6537 33.6497 26.8292 32.7405 26.7801 31.6599C26.3924 23.4872 26.4315 18.5672 26.6459 16.0468C26.73 15.057 27.2467 13.6162 28.2401 13.6299C29.167 13.6423 30.1083 13.4468 31.0001 13.6999C31.0888 13.7201 31.1767 13.7438 31.2634 13.7707C31.8515 13.9535 32.2442 14.4782 32.443 15.0611C32.6529 15.6765 32.8387 16.2999 33.0001 16.9299C33.4901 18.7099 34.1 20.9299 36.35 21.0499H36.4901C36.9178 21.0423 37.3376 20.9332 37.7149 20.7315C38.0922 20.5298 38.4161 20.2414 38.66 19.8899C40.37 17.6199 40.41 11.6199 39.66 8.30991L39.51 7.62991C39.4126 7.24632 39.1064 6.94577 38.7201 6.85991L38.09 6.71991C35.2114 6.1002 28.0966 5.66032 20.8901 5.65991C20.8845 5.65991 20.8801 5.66439 20.8801 5.66991Z" fill="#3A85D0"/>
<path d="M59.0897 55.6899C55.5016 52.3286 52.228 48.6466 49.3097 44.6899C48.7397 43.8899 51.6897 39.8499 51.3097 35.5899C50.7797 29.6999 45.6997 26.1699 42.5997 24.7699C38.8997 23.1099 32.1797 21.0199 31.5997 22.9499C31.2897 23.9499 39.8997 32.8099 40.0897 33.8499C40.2797 34.8899 39.3097 37.0999 36.3997 39.8499C33.9297 42.1799 30.3197 43.9999 27.9997 43.6399C25.6797 43.2799 19.0697 32.8799 18.1197 34.3899C16.8397 36.3899 17.9297 49.7099 26.1697 53.2199C35.6897 57.2699 41.2297 51.9699 41.1697 50.2899C41.1097 48.6099 38.5997 50.9999 38.6897 52.9999C38.7497 54.3699 42.5297 58.0699 42.5297 58.0699" fill="white"/>
<path d="M59.0897 55.6899C55.5016 52.3286 52.228 48.6466 49.3097 44.6899C48.7397 43.8899 51.6897 39.8499 51.3097 35.5899C50.7797 29.6999 45.6997 26.1699 42.5997 24.7699C38.8997 23.1099 32.1797 21.0199 31.5997 22.9499C31.2897 23.9499 39.8997 32.8099 40.0897 33.8499C40.2797 34.8899 39.3097 37.0999 36.3997 39.8499C33.9297 42.1799 30.3197 43.9999 27.9997 43.6399C25.6797 43.2799 19.0697 32.8799 18.1197 34.3899C16.8397 36.3899 17.9297 49.7099 26.1697 53.2199C35.6897 57.2699 41.2297 51.9699 41.1697 50.2899C41.1097 48.6099 38.5997 50.9999 38.6897 52.9999C38.7497 54.3699 42.5297 58.0699 42.5297 58.0699" stroke="#3A85D0" stroke-miterlimit="10" stroke-linecap="round"/>
<path d="M21.194 37.0511C22.9789 39.8568 25.3614 42.288 28.193 44.1932C31.0032 46.2426 34.0785 47.2487 37.2599 45.6837C39.911 44.4416 42.8165 41.3556 45.6797 42.0015C48.5429 42.6474 49.4021 46.9382 48.2621 49.4721C47.1221 52.006 44.2854 53.5834 41.515 54.3411C38.862 55.0388 36.0784 55.1858 33.3586 54.7718C30.6387 54.3577 28.048 53.3926 25.7672 51.9438C21.247 49.0125 18.1982 41.7462 17.8138 39.97C16.8726 36.3804 21.194 37.0511 21.194 37.0511Z" fill="#FFF5EC"/>
<path d="M35 49.8642C35.2474 48.6496 36.5006 48.0522 38.1496 47.3752C41.695 46.0112 46.6421 45.5233 47.8624 46.5488C50.0556 48.3608 46.9554 51.6364 47.3347 52.7615C47.9297 54.5217 49.4789 56.1121 51.7376 57.2815C53.3345 57.926 54.7962 58.6849 56.091 59.5416C57.2288 60.4775 57.4432 61.9908 55.8931 62.6778C55.1873 62.9035 54.396 63.014 53.5977 62.9983C52.7994 62.9826 52.0217 62.8412 51.3418 62.5882C45.5537 60.8956 41.9589 57.3811 38.6608 54.0558" fill="#FFF5EC"/>
<path d="M49.3097 44.6899C48.7397 43.8899 51.6897 39.8499 51.3097 35.5899M31.5996 22.9499C31.2896 23.9499 39.8996 32.8099 40.0896 33.8499C40.2796 34.8899 39.3097 37.0999 36.3997 39.8499C33.9297 42.1799 30.3196 43.9999 27.9996 43.6399C25.6796 43.2799 19.0696 32.8799 18.1196 34.3899C16.8396 36.3899 17.9296 49.7099 26.1696 53.2199C35.6896 57.2699 41.2296 51.9699 41.1696 50.2899C41.1096 48.6099 38.5996 50.9999 38.6896 52.9999C38.7496 54.3699 42.9996 57.9999 42.9996 57.9999M11.6396 53.6499C12.8096 54.9699 14.8096 55.1899 15.4896 54.0899C16.1696 52.9899 14.9096 49.7699 13.9296 49.9999C12.9496 50.2299 16.9296 55.6199 23.8196 56.6799M51.9996 23.3999C49.6296 21.9299 49.1996 15.4699 49.7896 15.0599C50.3796 14.6499 50.5196 16.7699 49.5996 17.3899C49.413 17.5162 49.2023 17.6026 48.9808 17.6438C48.7593 17.685 48.5316 17.6801 48.3121 17.6295C48.0925 17.5788 47.8857 17.4834 47.7047 17.3493C47.5236 17.2152 47.3721 17.0452 47.2596 16.8499C46.3917 15.0863 46.145 13.0813 46.5597 11.1599" stroke="#3A85D0" stroke-miterlimit="10"/>
</svg>
