<svg width="50" height="50" viewBox="0 0 50 50" fill="none" xmlns="http://www.w3.org/2000/svg">
<path d="M16.8447 38.7728L29.3367 9.59667C29.7895 8.53895 31.0141 8.04862 32.0718 8.50149C33.054 8.92201 33.5469 10.0079 33.2497 11.0078L33.167 11.2367L20.675 40.4127C20.2222 41.4705 18.9976 41.9608 17.9399 41.5079C16.9577 41.0874 16.4648 40.0015 16.7619 39.0016L16.8447 38.7728L29.3367 9.59667L16.8447 38.7728ZM4.7767 23.5269L13.11 15.1935C13.9236 14.3799 15.2427 14.3799 16.0563 15.1935C16.8073 15.9445 16.8651 17.1263 16.2296 17.9435L16.0563 18.1398L9.19612 25L16.0563 31.8602C16.8699 32.6738 16.8699 33.9929 16.0563 34.8065C15.3053 35.5575 14.1236 35.6152 13.3063 34.9798L13.11 34.8065L4.7767 26.4731C4.02569 25.7221 3.96792 24.5404 4.60339 23.7231L4.7767 23.5269L13.11 15.1935L4.7767 23.5269ZM33.9417 15.1909C34.6927 14.44 35.8745 14.3823 36.6917 15.0178L36.888 15.1911L45.223 23.5269C45.9744 24.2783 46.0317 25.4607 45.3955 26.2779L45.222 26.4741L36.8869 34.7981C36.0728 35.6112 34.7537 35.6103 33.9406 34.7962C33.1901 34.0447 33.1331 32.8629 33.7692 32.046L33.9426 31.8499L40.8027 24.9989L33.9415 18.1372C33.128 17.3236 33.1281 16.0045 33.9417 15.1909Z" fill="#FFC107"/>
</svg>
