<svg width="64" height="64" viewBox="0 0 64 64" fill="none" xmlns="http://www.w3.org/2000/svg">
<rect x="35.6709" y="5" width="2" height="8.03024" rx="1" transform="rotate(11.9231 35.6709 5)" fill="#FFB745"/>
<rect x="15" y="11.042" width="2" height="8.03024" rx="1" transform="rotate(-24.6679 15 11.042)" fill="#FFB745"/>
<rect x="24.7461" y="5.48608" width="2" height="8.03024" rx="1" transform="rotate(-6.20499 24.7461 5.48608)" fill="#FFB745"/>
<rect x="52.1729" y="17" width="2" height="8.03024" rx="1" transform="rotate(50.2422 52.1729 17)" fill="#FFB745"/>
<rect x="46.2842" y="10.0073" width="2" height="8.03024" rx="1" transform="rotate(40.8745 46.2842 10.0073)" fill="#FFB745"/>
<path d="M42.8861 32.0084C43.1609 33.5382 39.388 37.2116 37.8269 37.4921C36.2657 37.7726 34.7773 36.7599 34.5025 35.2302C34.2277 33.7004 38.3409 28.441 39.9021 28.1605C41.4632 27.88 42.6113 30.4787 42.8861 32.0084Z" fill="#FFB745"/>
<path d="M33.0851 32.1793C33.0851 33.2028 32.9953 34.1869 32.313 34.1869C31.6307 34.1869 30.6143 33.2028 30.6143 32.1793C30.6143 31.1559 30.7041 29.7085 31.3864 29.7085C32.0687 29.7085 33.0851 31.1559 33.0851 32.1793Z" fill="#FFB745"/>
<path d="M28.916 31.394C28.916 33.2684 29.5439 34.6404 27.588 34.6404C25.632 34.6404 23.3086 33.2684 23.3086 31.394C23.3086 29.5195 23.4186 28 25.3745 28C27.3304 28 28.916 29.5195 28.916 31.394Z" fill="#FFB745"/>
<path d="M24.4999 47.5001L22.2749 42.2172L19.3408 35.4224" stroke="#3A85D0" stroke-width="1.05657" stroke-linecap="round"/>
<path d="M18.4999 33.9999V33.9999C17.9327 32.4896 17.6421 30.8895 17.6421 29.2762V28.7818V26.6878C17.6421 25.9241 17.7257 25.1627 17.8913 24.4172V24.4172C18.1354 23.319 18.5549 22.2673 19.1337 21.3026L19.6496 20.4427L20.1481 19.7227C20.7388 18.8695 21.4582 18.1131 22.2808 17.4803V17.4803C22.7905 17.0883 23.3366 16.7461 23.9118 16.4585L24.8938 15.9675C25.5148 15.657 26.1593 15.396 26.8214 15.1869V15.1869C28.1068 14.781 29.4468 14.5745 30.7948 14.5745H31.1146C31.9121 14.5745 32.7084 14.6369 33.4961 14.7613L34.1118 14.8585C34.8665 14.9777 35.6073 15.1729 36.3228 15.4412V15.4412C37.2487 15.7885 38.1252 16.2554 38.9299 16.8302L39.8797 17.5086L40.6605 18.2374C41.6819 19.1907 42.6098 20.2394 43.4315 21.3693V21.3693" stroke="#3A85D0" stroke-width="1.05657" stroke-linecap="round"/>
<path d="M24.7461 49.1663V49.8557C24.7461 50.2053 24.885 50.5406 25.1322 50.7878V50.7878C25.3794 51.0349 25.7146 51.1738 26.0642 51.1738H27.5258H33.0852" stroke="#3A85D0" stroke-width="1.05657" stroke-linecap="round"/>
<path d="M24.7461 50.7107V51.7291C24.7461 52.0689 24.8652 52.3979 25.0827 52.6589V52.6589C25.3587 52.9901 25.7675 53.1815 26.1985 53.1815H27.3714L33.0852 52.7183" stroke="#3A85D0" stroke-width="1.05657" stroke-linecap="round"/>
<path d="M24.7461 53.4902V54.0601C24.7461 54.4909 24.8927 54.909 25.1619 55.2454V55.2454C25.2955 55.4125 25.4565 55.5557 25.6379 55.6691L25.8242 55.7855C26.3307 56.1021 26.9159 56.2699 27.5132 56.2699H28.9156V56.2699C30.3374 56.2699 31.7582 56.0082 33.0852 55.4978V55.4978" stroke="#3A85D0" stroke-width="1.05657" stroke-linecap="round"/>
<path d="M24.7461 55.8067L24.9877 56.3382C25.3339 57.0999 25.894 57.7446 26.5999 58.1938V58.1938C27.0084 58.4537 27.4576 58.643 27.9288 58.7539L28.4354 58.8731C29.3598 59.0906 30.3229 59.0839 31.2443 58.8536V58.8536C31.9508 58.677 32.6189 58.3723 33.2155 57.9547L33.67 57.6365C33.7946 57.5493 33.9114 57.4513 34.019 57.3437L34.4814 56.8814C34.6751 56.6877 34.7839 56.425 34.7839 56.151V56.0773C34.7839 55.9016 34.8408 55.7308 34.9462 55.5903V55.5903C35.1307 55.3444 35.1603 55.0153 35.0229 54.7404L34.9623 54.6193C34.853 54.4006 34.8766 54.1389 35.0233 53.9433V53.9433C35.1618 53.7586 35.1911 53.5139 35.1002 53.3017L34.9214 52.8846C34.8372 52.6881 34.872 52.461 35.011 52.2987L35.3181 51.9405C35.4836 51.7474 35.3636 51.448 35.1106 51.4228V51.4228C34.8092 51.3926 34.7203 50.9958 34.98 50.84L35.5393 50.5044C35.6496 50.4382 35.7322 50.3342 35.7715 50.2117L36.0002 49.5" stroke="#3A85D0" stroke-width="1.05657" stroke-linecap="round"/>
<path d="M28.405 47.4579L28.843 45.18C29.0652 44.0244 29.1771 42.8504 29.1771 41.6737V41.6737C29.1771 40.7951 29.1147 39.9177 28.9905 39.0479L28.8683 38.1922L28.405 35.1036L28.3167 34.6846C27.9667 33.0218 27.3163 31.4369 26.3974 30.0075V30.0075L26.0035 29.4167C25.8561 29.1956 25.6615 29.0101 25.4337 28.8734L25.3386 28.8163C25.122 28.6863 24.8741 28.6177 24.6215 28.6177V28.6177C24.3689 28.6177 24.121 28.6863 23.9044 28.8163L23.859 28.8435C23.6006 28.9986 23.3917 29.2241 23.2569 29.4937L23.2074 29.5927C23.071 29.8655 23 30.1663 23 30.4713V30.647C23 31.138 23.1334 31.6198 23.386 32.0408L23.4633 32.1695V32.1695C23.9703 32.8794 24.6433 33.4545 25.4236 33.8446L25.4708 33.8682L25.7073 33.9996C26.4752 34.4262 27.2736 34.7952 28.0961 35.1036V35.1036" stroke="#3A85D0" stroke-width="1.05657" stroke-linecap="round"/>
<path d="M32.776 47.3132C32.776 47.0559 32.776 46.2631 32.776 45.1513C32.776 44.0394 32.776 43.2467 32.776 42.9893V42.9893C32.776 42.1681 32.8659 41.3494 33.044 40.5479L33.0849 40.364L33.3937 39.283L33.857 37.5843V37.5843C34.0626 36.762 34.3336 35.9575 34.6675 35.1784L35.0924 34.1869L35.5713 33.1607C35.9709 32.3045 36.4851 31.5068 37.1 30.7895V30.7895L37.4629 30.4266C37.732 30.1575 38.0601 29.9547 38.4212 29.8343L38.51 29.8047C38.7012 29.741 38.9014 29.7085 39.103 29.7085H39.2385C39.649 29.7085 40.0428 29.8716 40.3331 30.1619V30.1619C40.5413 30.3701 40.6858 30.6333 40.7496 30.9207L40.8923 31.5628C40.9378 31.7673 40.9607 31.9762 40.9607 32.1857V32.2608C40.9607 32.8104 40.7889 33.3463 40.4695 33.7936V33.7936C40.2837 34.0536 40.0523 34.2777 39.7864 34.455L39.5558 34.6088C39.3603 34.7391 39.154 34.8526 38.9393 34.948L37.8721 35.4223L37.2047 35.6448C36.7262 35.8043 36.2252 35.8856 35.7208 35.8856H35.6827C35.2909 35.8856 34.9009 35.8334 34.523 35.7303L34.0076 35.5897C33.6053 35.48 33.2386 35.2672 32.9438 34.9724V34.9724C32.8322 34.8608 32.7099 34.7605 32.5786 34.673L32.451 34.5879C32.0533 34.3228 31.7071 33.9876 31.4292 33.5986L31.3997 33.5572C31.1857 33.2576 31.0118 32.9313 30.8826 32.5866L30.7642 32.2709C30.6649 32.0061 30.614 31.7256 30.614 31.4428V31.1958C30.614 30.9299 30.6863 30.6691 30.8231 30.4411L30.9066 30.3019C31.0173 30.1173 31.1855 29.9741 31.3854 29.8941V29.8941C31.6771 29.7774 32.0069 29.8069 32.2733 29.9734L32.4399 30.0775C32.8411 30.3283 33.0849 30.7681 33.0849 31.2412V31.8705V32.5186C33.0849 32.9066 33.0108 33.291 32.8668 33.6512V33.6512C32.8064 33.8022 32.734 33.9481 32.6503 34.0876L32.5511 34.2529C32.0904 35.0207 31.4478 35.6633 30.68 36.124L30.3052 36.3489" stroke="#3A85D0" stroke-width="1.05657" stroke-linecap="round"/>
<path d="M25 48.9768L26.9079 49H28.2977H30.7686H32.9305V49C33.7134 49 34.4558 48.6524 34.9573 48.0512L35 48" stroke="#3A85D0" stroke-width="1.05657" stroke-linecap="round"/>
<path d="M46.772 21.6329L50.3238 18.6987" stroke="#3A85D0" stroke-width="1.05657" stroke-linecap="round"/>
<path d="M41.5786 15.501L45.4393 10.8682" stroke="#3A85D0" stroke-width="1.05657" stroke-linecap="round"/>
<path d="M34.166 12.4125L35.5559 5.92651" stroke="#3A85D0" stroke-width="1.05657" stroke-linecap="round"/>
<path d="M25.6724 12.7213L25.0547 6.85303" stroke="#3A85D0" stroke-width="1.05657" stroke-linecap="round"/>
<path d="M18.5689 17.8175L15.6348 11.9492" stroke="#3A85D0" stroke-width="1.05657" stroke-linecap="round"/>
<path d="M44.667 23.0681L45.2847 25.0757L45.4894 26.0311C45.6613 26.8332 45.748 27.6603 45.748 28.4806V28.4806C45.748 29.1895 45.6822 29.9047 45.5516 30.6015V30.6015C45.3743 31.5467 45.0789 32.4658 44.6722 33.3373L44.2037 34.3413L42.8138 37.121L41.424 39.4374L39.8797 42.2171L38.4899 44.8424L37.2544 47.1588L36.6367 48.0854" stroke="#3A85D0" stroke-width="1.05657" stroke-linecap="round"/>
<path d="M37.2021 21.5562C36.9243 21.2391 36.8885 20.777 37.114 20.4208C37.4517 19.8875 38.2058 19.8251 38.6265 20.2958L41.0292 22.9838C41.2345 23.2135 41.4102 23.4681 41.552 23.7417L43.1822 26.887C43.3714 27.252 43.3024 27.6975 43.0117 27.9882C42.5327 28.4671 41.7202 28.3003 41.4687 27.6715L41.0526 26.6314C41.0176 26.5438 40.9753 26.4593 40.9261 26.3788L40.0172 24.8919C39.8529 24.6232 39.666 24.3689 39.4584 24.132L37.2021 21.5562Z" fill="#FFF5EC"/>
<path d="M37 19.25C37 19.8022 36.7247 20 36.1111 20C35.4974 20 35 19.3022 35 18.75C35 18.1977 35.4974 18 36.1111 18C36.7247 18 37 18.6977 37 19.25Z" fill="#FFF5EC"/>
<path d="M16.9023 55C17.2164 52.6272 16.7724 50.2415 15.5811 47.9646C15.267 47.3251 14.7363 46.6855 13.675 46.5256C12.7545 46.436 11.8989 46.807 11.7473 47.3442C11.7256 47.4402 11.7148 47.5425 11.7473 47.6448C12.018 48.1501 12.9277 48.4315 13.7833 48.278C13.9674 48.246 14.1407 48.1885 14.2923 48.1181C14.8013 47.7472 15.0287 47.2675 14.9204 46.7942C14.8338 43.7178 13.4909 40.699 11 38" stroke="#3A85D0" stroke-miterlimit="10" stroke-linecap="round"/>
</svg>
