<svg width="64" height="64" viewBox="0 0 64 64" fill="none" xmlns="http://www.w3.org/2000/svg">
<rect width="64" height="64" fill="white"/>
<path d="M8.26017 38.9198C7.83017 41.0598 7.54017 43.4298 8.26017 44.1498C8.98017 44.8698 17.3802 48.6198 18.2602 48.2398C19.1402 47.8598 21.1202 44.5698 21.1202 43.4998C21.1202 42.4298 22.1202 40.4998 23.3902 40.4998C24.6602 40.4998 29.0002 42.3598 29.0002 44.1498C29.0002 45.9398 30.8302 41.7798 29.3902 40.0798C27.9502 38.3798 25.2202 35.5998 23.1402 36.6698C19.4802 38.5798 18.8602 44.1698 17.7802 44.6698C16.7002 45.1698 8.26017 38.9198 8.26017 38.9198Z" fill="#FF7A92" fill-opacity="0.4"/>
<path d="M25.9001 48.6698C25.495 49.2112 25.2695 49.8659 25.2551 50.5419C25.2408 51.218 25.4383 51.8816 25.8201 52.4398C26.6501 53.2798 35.5901 58.6298 37.0801 57.8198C38.5701 57.0098 45.0801 50.2898 45.0801 47.9298C45.0506 46.3645 44.7946 44.8117 44.3201 43.3198C44.2101 42.7698 39.4001 54.1898 36.9601 54.1898C34.5201 54.1898 25.9001 48.6698 25.9001 48.6698Z" fill="#FF7A92" fill-opacity="0.4"/>
<path d="M35.4702 36.43C37.0602 34.85 40.5702 33.71 41.7202 34.86C42.8702 36.01 43.6602 40.86 45.8802 41.26C46.9403 41.4097 48.021 41.2461 48.9893 40.7895C49.9576 40.3329 50.7713 39.6031 51.3302 38.69C52.5602 36.91 55.9502 32.24 55.6102 30.08C55.2702 27.92 55.4302 26.5 54.7302 26.5C54.0302 26.5 51.7302 33.57 49.8902 35.43C48.0502 37.29 48.3402 38.25 47.2902 38.01C46.2402 37.77 45.2902 34.73 44.2902 33.64C43.2902 32.55 41.8102 30.89 39.6202 31.87C37.4302 32.85 35.4702 34.53 35.4702 36.43Z" fill="#FF7A92" fill-opacity="0.4"/>
<path d="M47 21.0699C47 21.0699 45.2 19.1599 45.59 18.7699C45.98 18.3799 49.03 17.2599 49.76 15.2499C50.49 13.2399 49.85 11.1699 50.76 10.8099C51.67 10.4499 52.83 14.6699 51.3 18.0799C50.8559 18.8709 50.2382 19.5509 49.4935 20.0688C48.7487 20.5867 47.8961 20.929 47 21.0699Z" fill="#FF7A92" fill-opacity="0.4"/>
<path d="M19.9102 18.8398C19.1302 19.6098 18.5602 21.2498 19.9102 21.7398C21.2602 22.2298 22.9102 21.7398 24.1202 22.3498C25.3302 22.9598 27.2602 25.4198 26.9502 26.1098C26.6402 26.7998 27.9502 23.1098 27.2902 21.8498C26.6302 20.5898 26.5402 19.9898 25.4702 19.6498C24.4002 19.3098 19.9102 18.8398 19.9102 18.8398Z" fill="#FF7A92" fill-opacity="0.4"/>
<path d="M41.65 31.9998C39.06 30.3598 36.65 33.8898 36.65 33.8898C35.8997 34.107 35.1064 34.1292 34.3452 33.9542C33.584 33.7792 32.88 33.4129 32.3 32.8898C31.51 32.0898 31.53 26.8898 34.69 22.5298C37.85 18.1698 42.57 18.8398 43.6 22.1298C45.11 26.9398 43.3 30.1298 46.99 30.1298C48.21 30.1298 52.75 29.4698 52.47 30.9998C52.19 32.5298 48.75 38.3698 47.29 37.9998C45.83 37.6298 44.2 33.3598 43.61 32.7698C43.032 32.3521 42.3578 32.0872 41.65 31.9998Z" fill="#FF7A92"/>
<path d="M37.9999 16.9001C40.4699 16.2901 27.8499 10.3401 26.1799 10.6801C24.5099 11.0201 18.8199 17.6101 19.9299 18.8401C21.0399 20.0701 27.1299 17.2201 27.5699 23.3501C27.8099 26.7801 23.0299 32.8201 20.3399 30.1201C18.2299 28.0201 16.8699 26.3001 14.8399 26.2801C12.8099 26.2601 7.04992 36.7001 7.38992 37.8801C7.72992 39.0601 15.9299 45.0001 17.7499 44.6301C18.7999 44.4201 19.1399 41.4401 20.2499 39.1801C21.3599 36.9201 23.2499 35.3801 27.4199 38.0401C30.2699 39.8701 30.0199 42.1801 28.9699 44.1501C28.0255 45.6522 26.9042 47.0354 25.6299 48.2701C25.2499 48.9001 35.6299 54.5301 36.7699 54.2701C37.9099 54.0101 44.3199 44.8801 44.3199 43.2701C44.3199 41.2701 40.9899 41.9701 38.6399 40.8001C31.4299 37.2501 37.9999 28.6701 43.5299 33.0001C46.3599 35.2301 45.2299 38.0001 47.3099 38.1101C48.0099 38.1101 54.9999 27.5601 54.5499 26.0101C54.0999 24.4601 45.7899 21.6401 45.7799 19.4601C45.7799 18.2601 48.3299 17.9101 49.7199 15.2701C53.6199 7.84009 43.3699 2.54009 38.2599 8.36009C35.7299 11.2201 35.7799 17.4501 37.9999 16.9001Z" stroke="#3A85D0" stroke-miterlimit="10"/>
<path d="M21.0899 43.5001C20.2299 45.3201 20.1799 46.7601 19.0899 47.8701C17.3499 49.6001 8.9899 44.8701 8.2699 42.7701C7.82785 41.1709 7.53658 39.5337 7.3999 37.8801" stroke="#3A85D0" stroke-miterlimit="10" stroke-linecap="round"/>
<path d="M23.3599 40.5102C24.8199 40.0002 28.9999 42.1302 28.9999 44.1502" stroke="#3A85D0" stroke-miterlimit="10" stroke-linecap="round"/>
<path d="M25.63 48.27C25.3611 49.6554 25.4262 51.0849 25.82 52.44C26.13 53.44 35.06 57.82 37.08 57.82C39.1 57.82 45.08 49.25 45.08 47.57C45.1529 45.9251 44.8556 44.2847 44.21 42.77" stroke="#3A85D0" stroke-miterlimit="10"/>
<path d="M35.73 36C36.5616 35.1942 37.6223 34.6655 38.7664 34.4864C39.9104 34.3074 41.0819 34.4868 42.12 35" stroke="#3A85D0" stroke-miterlimit="10" stroke-linecap="round"/>
<path d="M20.29 16.9001C19.51 18.9901 18.84 21.9001 20.34 21.9001C21.84 21.9001 27.71 21.9001 26.65 26.8501" stroke="#3A85D0" stroke-miterlimit="10"/>
<path d="M45.8799 41.26C48.7799 44.15 53.2899 35.91 54.8799 32.82C56.4699 29.73 54.9999 27.33 54.5499 26" stroke="#3A85D0" stroke-miterlimit="10" stroke-linecap="round"/>
<path d="M47 21.07C48.1507 20.7208 49.2135 20.1297 50.1172 19.3364C51.0209 18.543 51.7447 17.5658 52.24 16.47" stroke="#3A85D0" stroke-miterlimit="10" stroke-linecap="round"/>
</svg>
