<svg width="50" height="50" viewBox="0 0 50 50" fill="none" xmlns="http://www.w3.org/2000/svg">
<g clip-path="url(#clip0_1279_3599)">
<path d="M24.9992 0C11.1927 0 0 11.1935 0 24.9995C0 38.8055 11.1927 50 24.9992 50C38.8057 50 49.9997 38.8062 49.9997 24.9995C49.9997 11.1928 38.8057 0 24.9992 0ZM37.5603 20.5503L31.446 26.6647C30.7828 27.3278 29.9012 27.693 28.9635 27.693C28.026 27.693 27.1442 27.3277 26.481 26.665L26.2415 26.4255L25.5905 27.0765L25.8295 27.3155C27.1985 28.6845 27.1985 30.912 25.8295 32.281L19.716 38.3953C19.0528 39.0585 18.1712 39.4237 17.233 39.4237C16.295 39.4237 15.4132 39.0583 14.7497 38.3948L12.4388 36.0833C11.0698 34.7152 11.0698 32.4878 12.4383 31.1183L18.5532 25.0043C19.2163 24.3412 20.098 23.976 21.0362 23.976C21.9743 23.976 22.8555 24.3413 23.5192 25.0043L23.7578 25.243L24.4088 24.592L24.1702 24.3533C22.8012 22.9848 22.8012 20.7573 24.1693 19.3883L30.2842 13.274C30.9477 12.6105 31.8295 12.2452 32.7672 12.2452C33.7048 12.2452 34.5865 12.6105 35.2502 13.2735L37.5615 15.5857C38.9293 16.9538 38.9293 19.1817 37.5603 20.5503Z" fill="#F87872"/>
<path d="M23.7564 28.9099L22.5742 30.0921L20.7405 28.2589L21.9227 27.0767L21.684 26.8381C21.5107 26.6652 21.2804 26.5696 21.0357 26.5696C20.7905 26.5696 20.5602 26.6651 20.3869 26.8381L14.2725 32.9516C13.915 33.3094 13.915 33.8912 14.2725 34.2487L16.5842 36.5609C16.9314 36.9081 17.5355 36.9076 17.8819 36.5614L23.9954 30.4471C24.3534 30.0892 24.3534 29.5069 23.9954 29.1489L23.7564 28.9099Z" fill="#F87872"/>
<path d="M33.4155 15.1072C33.2422 14.9339 33.0114 14.8384 32.7662 14.8384C32.5211 14.8384 32.2902 14.9339 32.1169 15.1077L26.0026 21.2217C25.6456 21.5795 25.6456 22.1614 26.0031 22.5194L26.242 22.758L28.0554 20.9442L29.8891 22.7779L28.0757 24.5917L28.3147 24.8307C28.6619 25.1769 29.2652 25.1774 29.6124 24.8302L35.7264 18.7167C36.0839 18.3589 36.0839 17.777 35.7264 17.419L33.4155 15.1072Z" fill="#F87872"/>
</g>
<defs>
<clipPath id="clip0_1279_3599">
<rect width="50" height="50" fill="white"/>
</clipPath>
</defs>
</svg>
