<svg width="50" height="50" viewBox="0 0 50 50" fill="none" xmlns="http://www.w3.org/2000/svg">
<path fill-rule="evenodd" clip-rule="evenodd" d="M15.2131 42.2099C15.176 42.1443 15.143 42.0765 15.1142 42.0069C14.9145 41.5449 14.853 41.0349 14.9372 40.5386H3.12366L20.6799 9.64336L26.4435 19.7752L28.1148 16.8179L23.0905 7.96687C22.95 7.71176 22.1013 6.34766 20.6383 6.34766C19.9771 6.34766 19.0295 6.63401 18.2589 7.9877L0.473558 39.2579C0.32257 39.5286 -0.411545 40.95 0.317364 42.2099C0.650579 42.7826 1.35866 43.4647 2.92061 43.4647H17.8164C16.2648 43.4647 15.5463 42.7931 15.2131 42.2099Z" fill="#01C58E"/>
<path fill-rule="evenodd" clip-rule="evenodd" d="M49.4613 39.2579L34.8467 13.5119C34.6957 13.2411 33.8523 11.8718 32.3841 11.8718C31.7228 11.8718 30.7753 12.153 30.0047 13.5067L28.1147 16.818L29.7964 19.7753L32.3997 15.1675L46.8581 40.5387H41.36C41.4304 40.9582 41.3909 41.3887 41.2455 41.7883C41.2149 41.8765 41.1765 41.9619 41.131 42.0434L41.0841 42.1371C40.3448 43.3971 38.7464 43.4648 38.434 43.4648H47.0351C47.3527 43.4648 48.9459 43.3971 49.6852 42.1371C50.0132 41.5644 50.2475 40.6012 49.4613 39.2579Z" fill="#108775"/>
<path fill-rule="evenodd" clip-rule="evenodd" d="M41.0842 42.137L41.131 42.0433C41.1766 41.9618 41.215 41.8764 41.2456 41.7882C41.391 41.3885 41.4305 40.958 41.3601 40.5386C41.2791 40.0863 41.1168 39.6523 40.8811 39.2578L29.8069 19.7752L28.1148 16.8179L26.4331 19.7752L15.3641 39.2578C15.1492 39.657 15.0048 40.0903 14.9372 40.5386C14.8481 41.0333 14.9042 41.5433 15.0986 42.0069C15.1274 42.0765 15.1604 42.1443 15.1975 42.2099C15.5307 42.7826 16.2388 43.4647 17.8008 43.4647H38.4185C38.7465 43.4647 40.3449 43.397 41.0842 42.137ZM28.1148 22.7324L38.2362 40.5386H17.9986L28.1148 22.7324Z" fill="#2F495E"/>
</svg>
