<svg width="232" height="256" viewBox="0 0 232 256" fill="none" xmlns="http://www.w3.org/2000/svg">
<g filter="url(#filter0_dd_1113_17831)">
<g clip-path="url(#clip0_1113_17831)">
<rect x="16" y="8" width="200" height="224" rx="8" fill="#87D3C4" fill-opacity="0.6" shape-rendering="crispEdges"/>
<rect x="51" y="18" width="130" height="152" rx="14.4762" fill="white"/>
<rect x="72.7148" y="39.7143" width="61.524" height="7.2381" rx="3.61905" fill="#4C8D87"/>
<rect x="68.9521" y="56" width="94.0955" height="7.2381" rx="3.61905" fill="#87D3C4" fill-opacity="0.6"/>
<rect x="68.9521" y="66.8572" width="94.0955" height="7.2381" rx="3.61905" fill="#87D3C4" fill-opacity="0.6"/>
<rect x="68.9521" y="77.7143" width="94.0955" height="7.2381" rx="3.61905" fill="#87D3C4" fill-opacity="0.6"/>
<rect x="68.9521" y="94" width="94.0955" height="30.7619" rx="3.61905" fill="#87D3C4" fill-opacity="0.6"/>
<path d="M85.2373 136.524C85.2373 135.025 86.4525 133.81 87.9516 133.81H160.333C161.832 133.81 163.047 135.025 163.047 136.524V136.524C163.047 138.023 161.832 139.238 160.333 139.238H87.9516C86.4525 139.238 85.2373 138.023 85.2373 136.524V136.524Z" fill="#4C8D87"/>
<rect x="126.856" y="142.857" width="36.1906" height="5.42857" rx="2.71429" fill="#4C8D87"/>
<rect x="34" y="182" width="164" height="40" rx="6" fill="#6DC9B7"/>
<path d="M96.788 203.544L95.708 200.352C95.628 200.149 95.5427 199.912 95.452 199.64C95.3613 199.363 95.2707 199.064 95.18 198.744C95.1 199.069 95.0147 199.371 94.924 199.648C94.8333 199.925 94.748 200.165 94.668 200.368L93.596 203.544H96.788ZM101.084 208H98.988C98.7533 208 98.564 207.947 98.42 207.84C98.276 207.728 98.1667 207.587 98.092 207.416L97.404 205.384H92.972L92.284 207.416C92.2253 207.565 92.1187 207.701 91.964 207.824C91.8147 207.941 91.628 208 91.404 208H89.292L93.804 196.344H96.572L101.084 208ZM104.675 200.984C104.931 200.536 105.224 200.184 105.555 199.928C105.891 199.672 106.275 199.544 106.707 199.544C107.08 199.544 107.384 199.632 107.619 199.808L107.459 201.632C107.432 201.749 107.387 201.829 107.323 201.872C107.264 201.915 107.182 201.936 107.075 201.936C107.032 201.936 106.976 201.933 106.907 201.928C106.838 201.923 106.766 201.917 106.691 201.912C106.616 201.901 106.539 201.893 106.459 201.888C106.384 201.877 106.315 201.872 106.251 201.872C105.888 201.872 105.598 201.968 105.379 202.16C105.166 202.352 104.984 202.619 104.835 202.96V208H102.355V199.704H103.827C103.95 199.704 104.051 199.715 104.131 199.736C104.216 199.757 104.286 199.792 104.339 199.84C104.398 199.883 104.44 199.941 104.467 200.016C104.499 200.091 104.526 200.181 104.547 200.288L104.675 200.984ZM112.072 208.128C111.678 208.128 111.328 208.072 111.024 207.96C110.726 207.843 110.472 207.68 110.264 207.472C110.062 207.259 109.907 207.003 109.8 206.704C109.694 206.405 109.64 206.072 109.64 205.704V201.416H108.936C108.808 201.416 108.699 201.376 108.608 201.296C108.518 201.211 108.472 201.088 108.472 200.928V199.96L109.792 199.704L110.28 197.68C110.344 197.424 110.526 197.296 110.824 197.296H112.12V199.72H114.176V201.416H112.12V205.536C112.12 205.728 112.166 205.888 112.256 206.016C112.352 206.139 112.488 206.2 112.664 206.2C112.755 206.2 112.83 206.192 112.888 206.176C112.952 206.155 113.006 206.133 113.048 206.112C113.096 206.085 113.139 206.064 113.176 206.048C113.219 206.027 113.267 206.016 113.32 206.016C113.395 206.016 113.454 206.035 113.496 206.072C113.544 206.104 113.592 206.157 113.64 206.232L114.392 207.408C114.072 207.648 113.712 207.829 113.312 207.952C112.912 208.069 112.499 208.128 112.072 208.128ZM118.684 199.704V208H116.204V199.704H118.684ZM118.94 197.432C118.94 197.629 118.9 197.816 118.82 197.992C118.74 198.163 118.631 198.315 118.492 198.448C118.353 198.576 118.191 198.68 118.004 198.76C117.823 198.835 117.628 198.872 117.42 198.872C117.217 198.872 117.028 198.835 116.852 198.76C116.676 198.68 116.519 198.576 116.38 198.448C116.247 198.315 116.14 198.163 116.06 197.992C115.985 197.816 115.948 197.629 115.948 197.432C115.948 197.229 115.985 197.04 116.06 196.864C116.14 196.688 116.247 196.533 116.38 196.4C116.519 196.267 116.676 196.163 116.852 196.088C117.028 196.013 117.217 195.976 117.42 195.976C117.628 195.976 117.823 196.013 118.004 196.088C118.191 196.163 118.353 196.267 118.492 196.4C118.631 196.533 118.74 196.688 118.82 196.864C118.9 197.04 118.94 197.229 118.94 197.432ZM127.15 201.672C127.075 201.763 127.003 201.835 126.934 201.888C126.864 201.941 126.766 201.968 126.638 201.968C126.515 201.968 126.403 201.939 126.302 201.88C126.206 201.821 126.096 201.757 125.974 201.688C125.851 201.613 125.707 201.547 125.542 201.488C125.376 201.429 125.171 201.4 124.926 201.4C124.622 201.4 124.358 201.456 124.134 201.568C123.915 201.68 123.734 201.84 123.59 202.048C123.446 202.256 123.339 202.512 123.27 202.816C123.2 203.115 123.166 203.453 123.166 203.832C123.166 204.627 123.318 205.237 123.622 205.664C123.931 206.091 124.355 206.304 124.894 206.304C125.182 206.304 125.408 206.269 125.574 206.2C125.744 206.125 125.888 206.045 126.006 205.96C126.123 205.869 126.23 205.787 126.326 205.712C126.427 205.637 126.552 205.6 126.702 205.6C126.899 205.6 127.048 205.672 127.15 205.816L127.87 206.704C127.614 206.997 127.344 207.237 127.062 207.424C126.779 207.605 126.488 207.749 126.19 207.856C125.896 207.957 125.6 208.027 125.302 208.064C125.003 208.107 124.712 208.128 124.43 208.128C123.923 208.128 123.438 208.032 122.974 207.84C122.515 207.648 122.11 207.371 121.758 207.008C121.411 206.64 121.134 206.189 120.926 205.656C120.723 205.123 120.622 204.515 120.622 203.832C120.622 203.235 120.71 202.677 120.886 202.16C121.067 201.637 121.331 201.187 121.678 200.808C122.03 200.424 122.462 200.123 122.974 199.904C123.491 199.685 124.088 199.576 124.766 199.576C125.416 199.576 125.987 199.68 126.478 199.888C126.968 200.096 127.411 200.4 127.806 200.8L127.15 201.672ZM131.955 196.024V208H129.475V196.024H131.955ZM139.431 202.856C139.431 202.659 139.405 202.467 139.351 202.28C139.303 202.093 139.221 201.928 139.103 201.784C138.991 201.635 138.842 201.515 138.655 201.424C138.469 201.333 138.242 201.288 137.975 201.288C137.506 201.288 137.138 201.424 136.871 201.696C136.605 201.963 136.429 202.349 136.343 202.856H139.431ZM136.311 204.296C136.391 204.989 136.602 205.493 136.943 205.808C137.285 206.117 137.725 206.272 138.263 206.272C138.551 206.272 138.799 206.237 139.007 206.168C139.215 206.099 139.399 206.021 139.559 205.936C139.725 205.851 139.874 205.773 140.007 205.704C140.146 205.635 140.29 205.6 140.439 205.6C140.637 205.6 140.786 205.672 140.887 205.816L141.607 206.704C141.351 206.997 141.074 207.237 140.775 207.424C140.482 207.605 140.178 207.749 139.863 207.856C139.554 207.957 139.242 208.027 138.927 208.064C138.618 208.107 138.322 208.128 138.039 208.128C137.458 208.128 136.911 208.035 136.399 207.848C135.893 207.656 135.447 207.373 135.063 207C134.685 206.627 134.383 206.163 134.159 205.608C133.941 205.053 133.831 204.408 133.831 203.672C133.831 203.117 133.925 202.592 134.111 202.096C134.303 201.6 134.575 201.165 134.927 200.792C135.285 200.419 135.714 200.123 136.215 199.904C136.722 199.685 137.293 199.576 137.927 199.576C138.477 199.576 138.978 199.661 139.431 199.832C139.89 200.003 140.282 200.251 140.607 200.576C140.938 200.901 141.194 201.301 141.375 201.776C141.562 202.245 141.655 202.779 141.655 203.376C141.655 203.563 141.647 203.715 141.631 203.832C141.615 203.949 141.586 204.043 141.543 204.112C141.501 204.181 141.442 204.229 141.367 204.256C141.298 204.283 141.207 204.296 141.095 204.296H136.311Z" fill="white"/>
<rect x="-34" y="35.6207" width="67.9076" height="57.6" rx="8" transform="rotate(-6.44344 -34 35.6207)" fill="#E2FFFC" fill-opacity="0.3"/>
<rect x="198.463" y="102.826" width="67.9076" height="57.598" rx="8" transform="rotate(6.44 198.463 102.826)" fill="#E2FFFC" fill-opacity="0.3"/>
</g>
</g>
<defs>
<filter id="filter0_dd_1113_17831" x="0" y="0" width="232" height="256" filterUnits="userSpaceOnUse" color-interpolation-filters="sRGB">
<feFlood flood-opacity="0" result="BackgroundImageFix"/>
<feColorMatrix in="SourceAlpha" type="matrix" values="0 0 0 0 0 0 0 0 0 0 0 0 0 0 0 0 0 0 127 0" result="hardAlpha"/>
<feOffset dy="1"/>
<feGaussianBlur stdDeviation="2"/>
<feComposite in2="hardAlpha" operator="out"/>
<feColorMatrix type="matrix" values="0 0 0 0 0.419608 0 0 0 0 0.47451 0 0 0 0 0.521569 0 0 0 0.15 0"/>
<feBlend mode="normal" in2="BackgroundImageFix" result="effect1_dropShadow_1113_17831"/>
<feColorMatrix in="SourceAlpha" type="matrix" values="0 0 0 0 0 0 0 0 0 0 0 0 0 0 0 0 0 0 127 0" result="hardAlpha"/>
<feOffset dy="8"/>
<feGaussianBlur stdDeviation="8"/>
<feComposite in2="hardAlpha" operator="out"/>
<feColorMatrix type="matrix" values="0 0 0 0 0.419608 0 0 0 0 0.47451 0 0 0 0 0.521569 0 0 0 0.15 0"/>
<feBlend mode="normal" in2="effect1_dropShadow_1113_17831" result="effect2_dropShadow_1113_17831"/>
<feBlend mode="normal" in="SourceGraphic" in2="effect2_dropShadow_1113_17831" result="shape"/>
</filter>
<clipPath id="clip0_1113_17831">
<rect x="16" y="8" width="200" height="224" rx="8" fill="white"/>
</clipPath>
</defs>
</svg>
