<svg width="84" height="74" fill="none" xmlns="http://www.w3.org/2000/svg"><path d="m5.432 45.716 5.548-12.214a1.156 1.156 0 0 1 1.851-.358l1.712 1.635c.073.07.155.13.245.18l5.277 2.877c.059.033.12.06.184.081l4.272 1.44c.055.019.112.033.17.043l5.5.967c.067.012.134.018.2.018h1.779c.753 0 1.305.708 1.12 1.439l-1.843 7.317-1.086 4.887a.661.661 0 0 1-.362.454A10.583 10.583 0 0 1 25.47 55.5H22.327c-.642 0-1.28-.089-1.898-.264l-5.022-1.428a1.157 1.157 0 0 1-.279-.121l-5.496-3.298a1.154 1.154 0 0 1-.272-.226l-3.928-4.447z" fill="#FFF5EC"/><path d="m20.796 20.367 8.34 3.336 5.639 2.256c.094.038.183.088.264.148l4.04 3.03c.292.219.463.562.463.925v2.177c0 .438-.247.838-.64 1.034l-1.428.714c-.16.08-.338.122-.517.122h-3.07c-.084 0-.168-.009-.25-.027L23.46 31.82a1.16 1.16 0 0 1-.205-.066l-7.85-3.364a1.161 1.161 0 0 1-.267-.16l-2.334-1.867a1.156 1.156 0 0 1-.434-.903v-1.201c0-.351.16-.684.434-.903l2.247-1.798c.138-.11.3-.187.472-.226l4.592-1.02c.227-.05.464-.031.68.055z" fill="#FFF5EC" stroke="#FFF5EC" stroke-width="1.156"/><path d="m70.073 65.923-1.282-4.575a1.156 1.156 0 0 1 .906-1.45l5.006-.91c.07-.013.138-.032.204-.057l5.27-2.008a1.156 1.156 0 0 1 1.568 1.08v4.735c0 .508-.332.957-.818 1.106l-9.402 2.873a1.156 1.156 0 0 1-1.452-.794z" fill="#FF7A92"/><mask id="a" fill="#fff"><path d="M13.54 17.718c2.05.314 3.788.74 7.116 1.774 2.255.721 7.652 2.755 8.207 3.106.185.13-.61.943-1.165 1.442l-1.478-.537c-4.437-1.626-8.873-2.329-10.925-1.719-1.996.574-3.013 2.126-2.514 3.808.462 1.553 1.997 2.7 5.36 3.975 5.158 1.977 10.463 3.16 16.97 3.77l2.07.185 3.512 2.274c1.941 1.239 3.439 2.292 3.328 2.31-.536.204-7.986-.831-12.552-1.737-8.798-1.738-16.488-4.215-22.181-7.117-2.755-1.404-4.492-2.68-5.361-3.955-3.438-5.01 1.423-8.836 9.612-7.58zm23.05 9.076c1.996 1.312 5.785 4.233 5.785 4.455 0 .11-.277-.056-2.218-1.368-1.275-.85-1.756-.943-2.55-.536-.5.259-.555.222-1.683-.647-.647-.5-1.59-1.183-2.088-1.497-.481-.315-.888-.648-.888-.703 0-.11 1.257-1.072 1.442-1.09.037-.019 1.017.61 2.2 1.386zm5.286 5.342c1.59 1.017 2.884 1.94 2.903 2.033 0 .111-.407.592-.906 1.09l-.887.888-3.087-1.978c-1.683-1.09-3.069-2.07-3.069-2.18 0-.278 1.7-1.794 1.96-1.739.11.019 1.497.87 3.086 1.886zm-29.945-.277c.462.647 2.958 2.754 4.473 3.77 2.92 1.942 6.322 3.328 9.594 3.9 1.737.297 6.192.37 7.745.112.48-.074.869-.13.869-.093 0 .019-.74 3.069-1.645 6.747-1.941 7.801-2.181 8.43-3.716 9.298l-1.016.573H25c-2.607-.018-3.586-.092-5.028-.406-2.551-.573-4.381-1.22-6.71-2.366-2.791-1.368-4.732-2.68-6.396-4.326-2.218-2.237-2.31-3.198-.628-7.135 1.793-4.215 4.935-10.444 5.268-10.444.092 0 .277.166.425.37zm42.09 8.133c4.621 2.976 8.577 5.564 8.78 5.749.278.277.37.665.425 1.737.056.888 0 1.387-.11 1.387-.111 0-4.086-2.477-8.855-5.509-10.536-6.728-10.776-6.876-10.776-6.932 0-.203 1.793-1.94 1.94-1.885.111.018 3.975 2.477 8.596 5.453zm15.915-4.566c.795.536 1.313 1.313 1.923 2.902.37.962.591 1.294.832 1.294.554 0 .591-.277.185-1.33-.204-.537-.37-1.184-.37-1.442 0-.592.48-1.294.887-1.294 1.054 0 2.828 2.236 4.14 5.175 1.091 2.514 1.646 4.862 1.757 7.58.11 2.735-.111 4.473-.887 6.654-.721 2.033-.814 2.514-.518 2.68.203.148.776-.37.943-.832.037-.092.536-.221 1.109-.296.85-.092 1.164-.055 1.571.204l.5.333-.574.499c-1.053.942-6.322 2.31-10.814 2.81l-2.033.221-.351-.425c-.444-.554-.222-.869.776-1.127.536-.148.924-.148 1.479.018.61.185.776.185.906-.018.277-.444.018-.647-1.498-1.165-2.218-.758-5.97-2.422-7.024-3.106-1.774-1.127-3.235-3.604-3.438-5.822l-.11-1.257.535.351c.296.185 1.054.684 1.7 1.072.87.555 1.128.813 1.036 1.035-.259.61-.166 1.035.222 1.09.314.038.48-.147.887-1.053 1.017-2.292.85-3.475-.998-7.098-1.775-3.494-2.033-4.954-1.017-5.97.592-.592 1.294-.574 1.682.018.167.259.61 1.183.998 2.07.684 1.59 1.165 2.089 1.405 1.46.13-.35-.517-2.255-1.164-3.382-.518-.925-.388-1.35.48-1.72.481-.184.647-.184 1.165.13.5.296.776.721 1.534 2.514.962 2.255 1.22 2.662 1.553 2.459.351-.222.222-.758-.702-2.847-.814-1.867-.87-2.089-.629-2.422.351-.517 1.128-.499 1.922.037z"/></mask><path d="m49.016 5.305.32.481-.01.008-.012.007-.298-.496zm3.18 2.144L52.02 8h-.002l.178-.55zm1.737.666-.378.437-.016-.014-.015-.014.41-.41zm-3.715 3.66-.192-.546.005-.001.187.547zm-9.224 3.401.517.259-.042.083-.066.067-.41-.409zM35.67 20.76l-.134-.563h.002l.132.563zm-6.137 2.2.378.437-.004.004-.374-.442zm-.72.61.373.44-.273.23-.327-.139.226-.532zm-2.127-.906-.226.531-.004-.002.23-.53zm-11.46-3.827-.136.562.136-.562zm-11.313.277-.26-.516.26.516zm4.048 12.681-.25.52h-.003l.253-.52zm1.535.74.25-.521.562.27-.312.54-.5-.29zm-.758 1.312-.505-.283.004-.006.5.289zM3.192 46.249l-.569-.104v-.002l.57.106zm12.33 14.733-.238.527.238-.527zm20.315 2.125.293.498-.003.002-.29-.5zm.998-7.763-.424.394-.005-.006-.004-.005.433-.383zm-2.034-1.7.318-.484.006.004-.324.48zm.315-11.258.573.072-.573-.072zm.443-2.551.463.347-.006.007-.005.007-.452-.361zm3.254.314.079-.572-.08.572zm4.658.573-.048.576h-.002l.05-.576zm1.553.13.047-.576.142.011.12.076-.31.489zm6.21 3.937.31-.488h.002l-.312.488zm6.193 3.956.311-.488.277.177-.01.329-.578-.018zm-.037 1.164-.578-.017v-.001l.578.018zm4.38 8.337-.314.485-.002-.002.317-.483zm2.552 1.33.207-.539-.207.54zm1.127.999-.543-.198.004-.01.54.208zm.296 1.719-.535.218-.002-.005.537-.213zm1.885 7.727-.568.107v-.004l.569-.103zm1.96 3.697-.19.546-.011-.004-.011-.004.212-.538zm-.111-7.653.563-.13v.001l-.563.129zm-.573-3.013.481.32-.032.048-.04.04-.409-.408zm1.534-.259.072.574h-.005l-.067-.574zm9.871-2.495-.265-.514.01-.005.255.519zm-.776-3.069v.578h-.015l.015-.578zm-.888-1.682.556.162-.002.004-.553-.166zm.278-8.263.57-.099-.57.1zM73.01 36.286l-.224.533-.007-.003.23-.53zm-2.015.259-.444-.37.003-.004.44.374zm-.462.554.444.37-.424.508-.447-.487.427-.39zm-.407-.443.423-.394.003.003-.426.39zm-3.53-.592-.325-.479.004-.002.32.481zm-1.35.185-.169.553-.007-.002-.007-.003.183-.548zm-2.495.573.426.39-.007.007-.42-.397zm-1.036.351-.088.572-.005-.001.093-.57zm-2.643 2.717-.576-.051v-.007l.576.058zm1.386 4.492.517-.258.003.005-.52.253zm.37 1.11.259-.518.024.013.024.014-.307.49zm-7.634-4.862-.312.487.312-.487zm-9.465-6.803-.404.413h-.001l.406-.413zm-7.301-5.97.319-.482.003.002-.322.48zm-1.94-1.534.227.53-.034.015-.035.01-.159-.555zm5.045-.574.06.575h-.003l-.057-.575zm4.917-.554.321.48-.03.02-.032.017-.259-.517zm1.294-2.865-.532-.225v-.002l.532.227zm1.183-2.773-.531-.227.095-.224.227-.088.21.539zm1.48-.573-.21-.54.21.54zm5.526-1.904.181.549-.003.001-.178-.55zm4.03-1.33.509.273-.11.203-.218.072-.181-.549zm1.164-2.164.511.272-.002.002-.509-.274zm3.161-1.7.094-.57h.002l-.096.57zm1.867.314.41.409-.212.21-.294-.049.096-.57zm.98-.98.409.41-.409-.41zm.961-.96.575-.06.029.273-.195.195-.409-.409zm-.48-4.64.574-.063v.003l-.574.06zm-7.302 5.785.478.326-.004.005-.474-.33zm-1.737 2.385.37.444-.017.014-.017.012-.336-.47zm-1.516.591-.181-.549.01-.003.17.552zm-9.52 3.808-.409-.409.41.41zm-1.017 2.31-.538-.21.003-.007.535.218zm-1.257 2.515-.397-.42.007-.007.39.427zm-4.547.887.072.574h-.002l-.07-.574zm-4.695.665.172.552-.01.003-.162-.555zm-4.27 2.718-.341-.467.001-.001.34.468zm-3.512 1.885v.578h-.009l.009-.578zm-6.119-.591-.09.57h-.002l.092-.57zm-1.479-.24-.092.57.092-1.149v.578zm4.46 0 .04.576-.02.002h-.02v-.579zm2.325-.722.247.523-.007.003-.24-.526zm3.382.353.392.425-.004.004-.388-.429zm2.274-4.918.253.52-.012.005-.241-.525zm8.392-2.2.11.568-.11-.568zm1.239-.24.563.13-.085.366-.368.071-.11-.567zm.37-1.59.565.12-.003.01-.563-.13zm.48-2.274.568.108-.001.006-.567-.114zm.351-.85.366.447-.014.012-.016.011-.336-.47zm8.522-3.18-.172-.552.007-.002.165.555zm2.2-1.645-.406-.412.002-.002.403.414zm2.698-3.438L54.889 8l-.007-.009-.006-.009.462-.347zM52.639 6.6l-.171.552h-.003l.174-.552zm-2.403-.85.481.32-.032.048-.04.04-.409-.408zm6.628-3.315c-2.005.877-3.866 1.7-5.246 2.315-.69.309-1.26.565-1.665.75a38.32 38.32 0 0 0-.478.222c-.14.067-.161.08-.138.065l-.642-.962c.065-.043.187-.101.283-.147.122-.058.289-.135.494-.229.41-.188.983-.446 1.675-.754 1.383-.618 3.247-1.441 5.253-2.32l.464 1.06zM49.314 5.8c.008-.005.005-.005-.005.006a.243.243 0 0 0-.05.081c0 .003 0 .003 0 0 .001-.004.003-.013.003-.028h-1.157c0-.23.085-.442.178-.6.095-.16.24-.333.436-.45l.595.99zm-.052.059a.23.23 0 0 0-.02-.086c-.015-.037-.033-.054-.031-.053.017.017.095.078.33.185.463.21 1.306.5 2.832.993L52.018 8c-1.505-.486-2.419-.797-2.954-1.04-.263-.12-.495-.248-.663-.412a.937.937 0 0 1-.296-.687h1.157zm3.11 1.039c.442.14.864.288 1.19.412.162.063.307.122.422.173.056.026.112.053.162.08.034.019.121.067.196.142l-.818.818c.052.052.095.07.065.054a1.31 1.31 0 0 0-.083-.04 6.766 6.766 0 0 0-.357-.147 22.275 22.275 0 0 0-1.13-.39l.352-1.102zm1.94.779c.27.235.218.553.198.643-.027.118-.08.222-.12.294a3.826 3.826 0 0 1-.358.5c-.29.355-.703.795-1.141 1.227-.44.435-.918.873-1.342 1.223a8.77 8.77 0 0 1-.6.46 2.399 2.399 0 0 1-.545.297l-.373-1.094.006-.003a.46.46 0 0 0 .075-.038c.05-.027.11-.066.183-.115.145-.1.32-.235.517-.398a20.37 20.37 0 0 0 1.266-1.155c.424-.417.805-.825 1.058-1.136.13-.159.21-.272.247-.338.022-.038.01-.026 0 .02a.508.508 0 0 0 .172.487l.757-.874zm-3.903 4.642c-.678.239-2.975 1.078-5.11 1.864a787.47 787.47 0 0 0-3.754 1.395 21.44 21.44 0 0 0-.3.117l.006-.003a.483.483 0 0 0 .089-.054.983.983 0 0 0 .059-.05c.025-.026.082-.102.112-.154l-1.034-.518c.03-.052.087-.128.112-.154a.616.616 0 0 1 .16-.112l.043-.019.08-.032a148.713 148.713 0 0 1 1.176-.445c.76-.284 1.785-.663 2.852-1.056a595.946 595.946 0 0 1 5.126-1.87l.383 1.091zm-9.006 3.265c.068-.068.101-.138.104-.144a.57.57 0 0 0 .03-.072c.002-.002 0 0-.003.014a38.126 38.126 0 0 0-.148.603c-.097.407-.226.964-.364 1.573l-1.128-.256a180.17 180.17 0 0 1 .487-2.08 6.52 6.52 0 0 1 .057-.21.755.755 0 0 1 .04-.1c.004-.007.038-.077.107-.146l.818.818zm-.381 1.974c-.14.611-.27 1.173-.37 1.588-.05.207-.093.382-.127.508a4.053 4.053 0 0 1-.075.244.73.73 0 0 1-.027.061c-.006.011-.041.084-.111.154l-.818-.818c-.067.068-.1.136-.102.14l-.017.038c-.004.009-.004.01 0-.002a21.41 21.41 0 0 0 .153-.597c.099-.407.227-.963.366-1.572l1.128.256zm-.71 2.555a.648.648 0 0 1-.25.15 12.403 12.403 0 0 1-.365.105c-.223.06-.54.14-.925.236-.77.193-1.822.448-2.97.716l-.264-1.125c1.144-.268 2.19-.521 2.954-.712a62.674 62.674 0 0 0 1.15-.3l.045-.014c.003 0-.005.002-.018.007a.525.525 0 0 0-.041.02c-.007.004-.07.036-.134.1l.818.817zm-4.508 1.207c-2.266.539-3.497.85-4.296 1.137-.758.272-1.104.513-1.597.938l-.755-.876c.579-.499 1.046-.822 1.96-1.15.874-.314 2.176-.64 4.42-1.174l.268 1.125zM29.907 23.4l-.721.61-.747-.883.72-.61.748.883zm-1.321.7-2.126-.906.453-1.063 2.126.905-.453 1.064zm-2.13-.908c-2.686-1.169-8.421-3.08-11.366-3.794l.272-1.124c3.007.729 8.806 2.661 11.555 3.858l-.461 1.06zm-11.367-3.794c-4.808-1.17-8.379-1.046-10.916.232l-.52-1.033c2.898-1.459 6.794-1.519 11.71-.323l-.274 1.124zm-10.916.232c-1.885.95-2.787 2.357-2.787 4.16H.229c0-2.3 1.205-4.074 3.424-5.193l.52 1.032zm-2.787 4.16c0 2.64 2.137 5.193 6.829 7.485l-.507 1.038C2.936 29.983.229 27.14.229 23.79h1.157zm6.826 7.483 1.534.74-.501 1.041-1.535-.74.502-1.04zm1.784 1.55-.758 1.312-1.001-.578.758-1.313 1.001.578zm-.754 1.306a91.222 91.222 0 0 0-3.56 7.104c-1.028 2.298-1.751 4.211-1.922 5.122l-1.136-.212c.2-1.067.982-3.1 2.002-5.382a92.377 92.377 0 0 1 3.608-7.198l1.008.566zM3.76 46.353c-.172.942.013 2.087.544 3.358.53 1.266 1.387 2.617 2.5 3.95 2.23 2.667 5.442 5.205 8.955 6.794l-.477 1.053c-3.678-1.664-7.028-4.31-9.364-7.106-1.17-1.398-2.096-2.848-2.68-4.245-.582-1.392-.841-2.773-.616-4.011l1.138.207zm11.998 14.102c3.696 1.666 7.768 2.73 11.373 3.108 3.637.38 6.684.049 8.414-.956l.58 1c-2.059 1.196-5.417 1.493-9.114 1.106-3.728-.39-7.92-1.488-11.728-3.204l.475-1.054zm19.784 2.154c1.41-.832 2.155-1.96 2.306-3.132.151-1.174-.28-2.497-1.438-3.74l.847-.787c1.338 1.438 1.942 3.09 1.737 4.675-.204 1.588-1.207 3.002-2.865 3.98l-.587-.995zm.859-6.882c-.38-.43-1.262-1.157-1.924-1.605l.647-.958c.705.477 1.673 1.266 2.143 1.797l-.866.766zm-1.918-1.6a13.12 13.12 0 0 1-.945-.68 4.337 4.337 0 0 1-.318-.275 1.363 1.363 0 0 1-.13-.144.773.773 0 0 1-.074-.117.626.626 0 0 1-.07-.285h1.157a.53.53 0 0 0-.056-.24c-.017-.034-.033-.054-.036-.059-.007-.009-.004-.003.02.02.044.044.12.11.23.198.214.171.518.392.857.615l-.635.966zm-1.536-1.5c0-.064.013-.155.019-.193.01-.067.022-.156.04-.265.033-.218.081-.52.14-.885.118-.73.28-1.71.456-2.764l1.14.19a668.316 668.316 0 0 0-.455 2.759 121.37 121.37 0 0 0-.176 1.125c-.012.087-.008.072-.008.032h-1.156zm.655-4.107c.35-2.104.774-4.905.939-6.207l1.147.145c-.168 1.324-.594 4.142-.946 6.252l-1.14-.19zm.939-6.206c.084-.673.178-1.297.26-1.768.042-.235.081-.437.117-.59.017-.076.035-.148.054-.209.01-.03.021-.066.036-.102.01-.023.04-.098.099-.171l.903.722a.507.507 0 0 0 .068-.113c.004-.008.003-.01 0 .003a2.029 2.029 0 0 0-.034.129c-.028.125-.064.306-.104.531-.079.449-.17 1.054-.252 1.712l-1.147-.144zm.555-2.826a.6.6 0 0 1 .372-.23.973.973 0 0 1 .144-.018c.076-.004.166-.002.258.001.188.008.442.029.74.058.6.059 1.407.157 2.28.278l-.158 1.145a60.058 60.058 0 0 0-2.234-.272c-.291-.029-.52-.047-.677-.053a1.782 1.782 0 0 0-.148-.002c-.013 0 .001 0 .029-.005a.556.556 0 0 0 .32-.208l-.926-.694zm3.796.089c1.718.24 3.794.497 4.628.57l-.1 1.151c-.867-.075-2.968-.336-4.688-.576l.16-1.145zm4.626.57 1.553.129-.097 1.152-1.552-.13.096-1.152zm1.814.216 6.21 3.938-.618.976-6.211-3.937.619-.977zm6.213 3.939 6.192 3.955-.622.975-6.193-3.956.623-.974zm6.459 4.461-.037 1.165-1.156-.037.037-1.165 1.156.037zm-.037 1.164c-.043 1.395.376 2.96 1.126 4.388.75 1.426 1.807 2.67 2.993 3.447l-.633.968c-1.383-.906-2.562-2.314-3.384-3.877-.82-1.564-1.308-3.325-1.258-4.961l1.156.035zm4.117 7.834c.659.427 1.77 1.017 2.444 1.276l-.415 1.08c-.767-.295-1.949-.926-2.658-1.386l.63-.97zm2.445 1.276c.32.124.577.224.772.31.183.08.376.174.522.303a.807.807 0 0 1 .287.666c-.01.189-.086.373-.122.466l-1.08-.415c.024-.061.037-.097.046-.123.008-.026.002-.017 0 .012a.352.352 0 0 0 .101.26c.003.002-.04-.032-.219-.111a19.125 19.125 0 0 0-.723-.289l.416-1.079zm1.463 1.736a.593.593 0 0 0-.027.35c.033.19.122.468.317.958l-1.075.426c-.194-.49-.326-.868-.382-1.19a1.74 1.74 0 0 1 .08-.94l1.087.395zm.287 1.303c.636 1.56 1.236 4.092 1.92 7.841l-1.138.207c-.685-3.755-1.268-6.177-1.852-7.612l1.07-.436zm1.919 7.838c.147.782.294 1.516.414 2.064.06.276.114.499.156.657.021.08.038.135.05.17l.005.016a.498.498 0 0 0-.065-.102l-.889.74a.725.725 0 0 1-.104-.172 1.347 1.347 0 0 1-.043-.111 3.908 3.908 0 0 1-.071-.243 17.437 17.437 0 0 1-.168-.706 74.614 74.614 0 0 1-.422-2.1l1.137-.213zm.56 2.805c-.05-.059-.081-.066.003-.015a3.7 3.7 0 0 0 .25.132c.215.105.496.228.79.344l-.424 1.076c-.317-.125-.627-.26-.874-.382a4.803 4.803 0 0 1-.333-.177 1.182 1.182 0 0 1-.3-.238l.888-.74zm1.02.453c.427.148.678.22.829.243.17.026.038-.037-.096.097l.818.818c-.282.282-.655.265-.9.227-.266-.041-.606-.146-1.03-.293l.38-1.092zm.733.34c-.106.106-.11.211-.105.174.003-.02.007-.079 0-.199-.014-.236-.066-.615-.173-1.2-.212-1.164-.625-3.06-1.319-6.093l1.128-.258c.692 3.03 1.111 4.95 1.329 6.144.108.593.17 1.028.19 1.338.008.153.009.3-.01.433a.832.832 0 0 1-.222.479l-.818-.818zm-1.596-7.317a60.782 60.782 0 0 1-.45-2.11 14.903 14.903 0 0 1-.118-.685 3.026 3.026 0 0 1-.026-.237.987.987 0 0 1 0-.132.597.597 0 0 1 .174-.388l.819.818c.107-.108.138-.225.145-.251a.493.493 0 0 0 .016-.087V63.1c.002.02.006.066.017.14.02.145.057.359.108.628.102.536.258 1.268.441 2.067l-1.126.26zm-.491-3.464c.088-.131.205-.19.226-.202a.79.79 0 0 1 .108-.046c.052-.018.109-.033.158-.045a6.09 6.09 0 0 1 .378-.072c.291-.048.676-.1 1.078-.147l.134 1.148a22.87 22.87 0 0 0-1.024.14 4.963 4.963 0 0 0-.301.057l-.04.01s.02-.007.048-.022c.006-.003.114-.055.197-.18l-.962-.64zm1.944-.512c1.672-.209 3.686-.606 5.496-1.061 1.826-.46 3.386-.964 4.181-1.374l.53 1.027c-.924.477-2.598 1.008-4.428 1.468-1.846.465-3.907.872-5.636 1.088l-.144-1.148zm9.688-2.44a3.414 3.414 0 0 0 1.016-.734c.244-.27.305-.468.305-.559h1.156c0 .501-.27.967-.604 1.336-.346.381-.82.727-1.364.995l-.51-1.038zm1.321-1.293a.498.498 0 0 0-.059-.264.498.498 0 0 0-.21-.177c-.266-.139-.754-.238-1.574-.238v-1.156c.862 0 1.585.095 2.108.368.274.142.506.34.667.606.16.265.224.56.224.861h-1.156zm-1.858-.679a9.086 9.086 0 0 1-.966-.07 2.368 2.368 0 0 1-.367-.076.888.888 0 0 1-.213-.096.62.62 0 0 1-.293-.52h1.156c0-.306-.226-.445-.24-.454-.047-.03-.079-.038-.065-.033.02.006.077.02.182.034.202.028.497.05.836.06l-.03 1.155zm-1.839-.763c0-.07.014-.141.017-.159a12.45 12.45 0 0 1 .112-.482c.071-.28.17-.644.284-1.022l1.107.332a24.739 24.739 0 0 0-.348 1.295l-.017.085c-.007.037.001.004.001-.049h-1.156zm.411-1.659c.258-.882.427-2.304.477-3.822.05-1.512-.02-3.059-.214-4.18l1.14-.197c.212 1.226.281 2.858.23 4.415-.052 1.551-.225 3.087-.522 4.108l-1.11-.324zm.263-8.002a23.278 23.278 0 0 0-2.356-6.8c-.529-.982-1.094-1.831-1.656-2.485-.569-.663-1.102-1.088-1.557-1.279l.447-1.066c.691.29 1.364.867 1.987 1.591.63.733 1.24 1.655 1.797 2.69a24.431 24.431 0 0 1 2.477 7.151l-1.139.198zM72.78 36.816c-.46-.2-.716-.237-.875-.216-.126.017-.266.08-.468.319l-.882-.748c.315-.372.693-.65 1.2-.717.474-.063.967.076 1.486.301l-.46 1.061zm-1.34.099-.462.554-.889-.74.463-.554.888.74zm-1.332.575-.407-.444.852-.781.407.444-.853.78zm-.404-.44c-.82-.883-2.008-1.024-2.787-.505l-.641-.962c1.328-.885 3.135-.547 4.274.679l-.846.787zm-2.783-.507c-.275.185-.553.366-.892.409-.328.041-.646-.057-.951-.15l.338-1.106c.36.11.43.113.468.109.026-.004.09-.017.388-.22l.649.958zm-1.857.254c-.699-.233-1.468-.042-1.886.415l-.853-.78c.765-.837 2.03-1.09 3.105-.732l-.366 1.097zm-1.893.422c-.191.203-.408.388-.696.486-.288.097-.572.082-.847.04l.176-1.143c.207.032.273.016.3.007.026-.009.087-.036.228-.185l.84.795zm-1.548.525c-.381-.063-.82.096-1.215.504-.391.404-.69 1.012-.76 1.701l-1.15-.117c.096-.938.5-1.79 1.08-2.389.575-.595 1.374-.981 2.232-.84l-.187 1.14zm-1.974 2.198c-.077.856.255 2.037 1.327 4.182l-1.034.517c-1.072-2.144-1.553-3.588-1.445-4.802l1.152.103zm1.33 4.187c.18.368.321.694.4.928.032.096.081.25.082.398a.667.667 0 0 1-.03.202.603.603 0 0 1-.908.325l.613-.981a.556.556 0 0 0-.83.461c0 .06.012.068-.022-.036a7.569 7.569 0 0 0-.344-.79l1.04-.507zm-.409 1.88a4.477 4.477 0 0 1-.251-.15 592.59 592.59 0 0 1-2.155-1.367c-1.385-.884-3.257-2.081-5.28-3.375l.622-.974 5.28 3.373a548.27 548.27 0 0 0 2.144 1.36l.158.098-.518 1.034zm-7.687-4.892c-7.037-4.507-7.475-4.833-9.557-6.877l.81-.825c1.984 1.948 2.322 2.214 9.37 6.728l-.623.974zm-9.558-6.878c-2.508-2.47-4.328-3.963-7.218-5.902l.644-.96c2.952 1.98 4.828 3.518 7.385 6.039l-.811.823zm-7.215-5.9a22.36 22.36 0 0 1-1.51-1.081 5.175 5.175 0 0 1-.444-.387 1.096 1.096 0 0 1-.174-.22c-.02-.034-.095-.168-.084-.35a.593.593 0 0 1 .431-.534l.318 1.111a.56.56 0 0 0 .405-.506c.01-.167-.058-.28-.064-.29-.026-.046-.044-.059-.008-.021.057.058.169.156.34.292.334.266.837.63 1.428 1.021l-.638.965zm-1.85-2.548c.071-.03.145-.044.16-.048l.121-.021c.088-.014.204-.03.343-.05.277-.036.66-.082 1.12-.134.918-.105 2.15-.234 3.474-.364l.113 1.15c-1.32.13-2.546.26-3.457.363-.456.051-.831.097-1.099.132a11.697 11.697 0 0 0-.382.057c-.033.007.008.001.063-.022l-.456-1.063zm5.214-.617a555.64 555.64 0 0 0 3.418-.366 92.646 92.646 0 0 0 1.351-.162 2.21 2.21 0 0 0 .065-.01l-.005.001a.54.54 0 0 0-.11.04l.517 1.035c-.069.034-.133.048-.136.049l-.056.012a15.117 15.117 0 0 1-.423.06c-.262.031-.629.074-1.074.124-.892.1-2.104.229-3.426.367l-.12-1.15zm4.657-.46c-.083.055-.13.12-.13.12l-.021.03.008-.016c.017-.03.043-.081.078-.154.07-.143.167-.351.284-.609.233-.515.54-1.217.863-1.98l1.065.45a86.337 86.337 0 0 1-.875 2.008c-.119.262-.22.48-.297.638a5.448 5.448 0 0 1-.101.199 1.46 1.46 0 0 1-.09.141c-.006.008-.056.077-.143.135l-.641-.962zm1.083-2.611 1.183-2.773 1.063.454-1.183 2.773-1.063-.454zm1.505-3.085 1.48-.573.417 1.078-1.479.573-.418-1.078zm1.48-.573c.828-.32 3.316-1.193 5.558-1.915l.355 1.1c-2.232.72-4.698 1.585-5.496 1.893l-.417-1.078zm5.554-1.914 4.03-1.33.362 1.097-4.03 1.331-.362-1.098zm3.702-1.056 1.164-2.163 1.018.549-1.164 2.162-1.018-.548zm1.163-2.16c.317-.596.617-1.135.843-1.523.113-.192.211-.354.287-.468.036-.055.076-.113.114-.16a.762.762 0 0 1 .105-.108.582.582 0 0 1 .79.032l-.817.818a.573.573 0 0 0 .59.138c.097-.033.16-.084.174-.096.023-.02.039-.036.045-.042a.231.231 0 0 0 .011-.013l-.012.016-.035.051c-.058.089-.145.23-.254.416-.217.371-.508.895-.82 1.482l-1.021-.543zm2.14-2.226c-.065-.065-.129-.096-.139-.101a.458.458 0 0 0-.044-.02c-.012-.005-.017-.006-.008-.004a12.191 12.191 0 0 0 .5.112c.345.07.814.157 1.316.24l-.187 1.14a38.14 38.14 0 0 1-1.36-.246 13.31 13.31 0 0 1-.447-.098 3.024 3.024 0 0 1-.234-.067.705.705 0 0 1-.065-.03c-.016-.008-.084-.042-.15-.109l.817-.817zm1.627.227 1.867.314-.192 1.14-1.867-.314.192-1.14zm1.363.475.98-.98.817.818-.98.98-.817-.818zm.98-.98.96-.96.818.817-.961.961-.818-.817zm.794-.492-.48-4.64 1.15-.12.48 4.64-1.15.12zm-.48-4.637c-.276-2.54-.484-5.015-.484-5.497h1.156c0 .405.199 2.81.477 5.372l-1.15.125zm-.374-5.865c.027.081.043.198.053.263.014.093.03.216.047.36.035.292.079.687.128 1.148.098.924.217 2.125.33 3.316.114 1.191.221 2.375.296 3.267.037.446.067.82.085 1.088.008.133.015.245.017.327.002.04.003.08.002.118a.802.802 0 0 1-.023.167c-.003.01-.034.144-.15.26l-.818-.817c-.116.116-.146.248-.148.254a.547.547 0 0 0-.017.104v-.01l-.001-.037c-.002-.063-.008-.16-.016-.29a65.58 65.58 0 0 0-.083-1.067c-.074-.886-.182-2.066-.295-3.255a330.866 330.866 0 0 0-.329-3.303A81.26 81.26 0 0 0 63.62.58a14.772 14.772 0 0 0-.043-.334c-.016-.107-.02-.103-.006-.063l1.097-.366zm.784 10.315c-.12.12-.258.15-.276.155a.659.659 0 0 1-.21.02 2.993 2.993 0 0 1-.192-.014 15.085 15.085 0 0 1-.56-.066 58.179 58.179 0 0 1-1.742-.266l.19-1.14c.66.11 1.264.2 1.705.26.222.03.396.05.515.061.06.006.097.008.114.009h-.02a.495.495 0 0 0-.078.014c-.012.003-.145.031-.263.15l.817.817zm-2.98-.171a35.68 35.68 0 0 0-1.72-.248 9.753 9.753 0 0 0-.533-.05 1.575 1.575 0 0 0-.121-.003c-.01 0-.004 0 .014-.002a.533.533 0 0 0 .183-.068l-.595-.991c.11-.066.218-.081.242-.085.044-.006.087-.009.12-.01.066-.002.143 0 .22.005.158.009.364.028.601.055.477.055 1.106.144 1.779.256l-.19 1.14zm-2.177-.37c.038-.024.064-.046.07-.052a.289.289 0 0 0 .018-.016l-.014.015a3.546 3.546 0 0 0-.102.126c-.09.116-.216.283-.366.49-.301.412-.695.97-1.108 1.577l-.956-.652c.42-.614.82-1.182 1.13-1.606.154-.212.287-.39.39-.522.051-.065.098-.123.139-.17.02-.023.042-.048.066-.072.011-.012.064-.066.138-.11l.595.991zm-1.506 2.145a104.09 104.09 0 0 1-1.152 1.624c-.159.218-.296.403-.402.542-.053.068-.1.129-.14.177a1.205 1.205 0 0 1-.147.155l-.74-.888c-.035.028-.044.045-.005-.004.028-.032.066-.08.114-.144.098-.127.229-.303.384-.518.312-.428.716-.998 1.14-1.605l.948.66zm-1.875 2.524a1.865 1.865 0 0 1-.284.155 7.735 7.735 0 0 1-.375.159c-.286.114-.647.244-1.023.36l-.34-1.105c.345-.106.677-.226.936-.33.13-.05.237-.097.317-.134.095-.044.114-.058.096-.046l.673.941zm-1.671.67c-.848.28-3.16 1.174-5.302 2.03-1.067.427-2.084.842-2.846 1.162-.382.16-.696.295-.92.396a7.34 7.34 0 0 0-.304.145c-.027.015.025-.01.08-.065l-.818-.818c.068-.068.147-.11.16-.12l.112-.058c.077-.039.178-.086.296-.139.237-.106.561-.246.946-.407a193.5 193.5 0 0 1 2.865-1.169c2.133-.853 4.48-1.761 5.369-2.055l.362 1.098zm-9.292 3.668c.055-.055.074-.101.046-.05a2.718 2.718 0 0 0-.065.126c-.057.119-.133.286-.223.493-.18.411-.409.96-.648 1.55l-1.071-.435c.24-.593.474-1.153.66-1.578.092-.212.174-.394.241-.533.033-.068.066-.132.095-.185.016-.029.07-.128.147-.206l.818.818zm-.887 2.112a20.381 20.381 0 0 1-.74 1.674 9.474 9.474 0 0 1-.336.616c-.09.15-.205.326-.329.44l-.781-.853c-.014.013.026-.028.12-.184.082-.136.182-.319.292-.538.22-.439.472-1 .697-1.576l1.077.421zm-1.399 2.724c-.301.285-.74.421-1.403.55-.69.133-1.765.279-3.47.49l-.142-1.147c1.715-.213 2.748-.354 3.392-.479.674-.13.798-.225.83-.255l.793.841zm-4.874 1.04c-1.134.14-2.23.282-3.078.401-.425.06-.785.114-1.055.158a12.064 12.064 0 0 0-.428.078l-.032.007-.345-1.103c.122-.038.357-.08.619-.123.282-.046.651-.101 1.08-.162.856-.12 1.96-.264 3.1-.403l.14 1.148zm-4.603.647c-.637.187-1.152.495-4.092 2.63l-.68-.935c2.864-2.08 3.57-2.547 4.448-2.804l.324 1.11zm-4.09 2.63c-1.223.893-1.919 1.395-2.421 1.664a2.635 2.635 0 0 1-.746.281 3.444 3.444 0 0 1-.687.051v-1.156c.22 0 .345-.006.462-.029.108-.021.233-.063.425-.166.413-.22 1.028-.66 2.284-1.579l.682.933zm-3.863 1.996c-1.254-.019-4.295-.3-6.2-.598l.18-1.143c1.866.293 4.852.567 6.038.585l-.018 1.156zm-6.202-.599-1.48-.24.186-1.141 1.48.24-.186 1.141zm-1.387-1.389h4.46v1.157h-4.46v-1.157zm4.42.002c1.027-.073 1.399-.197 1.554-.277a.793.793 0 0 0 .175-.127c.075-.065.2-.177.395-.266l.481 1.051a.469.469 0 0 0-.118.089c-.082.07-.206.179-.403.28-.374.193-.943.328-2.003.403l-.082-1.153zm2.117-.667a.744.744 0 0 1 .367-.066c.091.005.174.025.239.044.128.037.266.095.389.149.268.119.534.25.838.362.631.231 1.09.247 1.41-.042l.775.857c-.844.764-1.902.52-2.583.27-.352-.129-.692-.294-.909-.39a2.137 2.137 0 0 0-.24-.095c-.022-.007-.016-.003.008-.002.02.002.102.005.201-.042l-.495-1.045zm3.239.45c.206-.19.428-.535.652-1.013.22-.466.418-1.004.6-1.535.176-.513.347-1.049.492-1.442.073-.2.15-.39.23-.544.04-.077.09-.16.148-.237a.82.82 0 0 1 .302-.248l.482 1.051a.413.413 0 0 0 .104-.067c.017-.016.025-.027.026-.027 0-.002-.002.003-.01.014a.826.826 0 0 0-.025.047 3.9 3.9 0 0 0-.172.412c-.141.38-.293.86-.484 1.417-.185.54-.4 1.126-.646 1.651-.242.513-.54 1.025-.916 1.372l-.783-.851zm2.411-5.013c.241-.118.75-.283 1.356-.464a75.46 75.46 0 0 1 2.26-.627c1.686-.443 3.608-.904 4.92-1.157l.22 1.136c-1.276.246-3.17.7-4.845 1.14-.837.22-1.613.434-2.225.616-.634.189-1.04.328-1.179.395l-.507-1.039zm8.536-2.248 1.238-.24.22 1.135-1.238.24-.22-1.135zm.785.197.37-1.59 1.126.262-.37 1.59-1.126-.262zm.368-1.58c.185-.872.406-1.901.479-2.266l1.134.227c-.075.374-.298 1.415-.482 2.28l-1.131-.24zm.478-2.26c.043-.228.109-.455.188-.648.039-.096.086-.193.14-.282a.973.973 0 0 1 .255-.283l.672.94c.06-.042.074-.077.057-.049a.805.805 0 0 0-.054.112 2.316 2.316 0 0 0-.122.425l-1.136-.216zm.553-1.19c.061-.05.128-.083.142-.09a9.927 9.927 0 0 1 .374-.165c.22-.09.52-.21.873-.347.71-.275 1.648-.63 2.62-.992 1.935-.721 4.032-1.481 4.707-1.69l.343 1.104c-.637.197-2.7.944-4.646 1.67-.97.36-1.903.713-2.605.986-.352.137-.643.252-.851.338a8.742 8.742 0 0 0-.29.125c-.024.013.017-.005.065-.045l-.732-.894zm8.723-3.287c.154-.045.394-.17.738-.426.337-.252.742-.607 1.221-1.077l.81.825c-.5.49-.946.885-1.339 1.178-.386.289-.755.506-1.101.609l-.329-1.109zm1.961-1.505c1.012-.984 1.724-1.748 2.15-2.292.216-.276.337-.469.392-.588.027-.06.023-.07.02-.044A.381.381 0 0 0 54.89 8l.898-.73c.154.19.178.408.163.568-.014.155-.065.3-.12.421-.112.244-.3.522-.534.821-.475.607-1.232 1.414-2.254 2.408l-.806-.829zm2.64-2.677c.062.084.126.11.076.081a1.702 1.702 0 0 0-.135-.068 8.966 8.966 0 0 0-.563-.233c-.476-.182-1.111-.4-1.786-.61l.343-1.104c.693.215 1.352.441 1.855.634.251.095.471.186.64.265.085.04.166.08.235.121.043.026.169.1.26.22l-.925.694zm-2.41-.83a54.7 54.7 0 0 1-1.741-.578 13.18 13.18 0 0 1-.537-.2 2.297 2.297 0 0 1-.18-.081.77.77 0 0 1-.125-.079c-.017-.014-.094-.074-.152-.178a.583.583 0 0 1 .096-.695l.818.818a.575.575 0 0 0 .096-.686c-.056-.101-.129-.157-.14-.165a.461.461 0 0 0-.058-.04l-.004-.002.006.003a1.263 1.263 0 0 0 .08.034c.105.043.27.105.486.181a53.51 53.51 0 0 0 1.702.565l-.348 1.103zm-2.71-1.723c.048-.073.102-.118.115-.128a.663.663 0 0 1 .111-.075 11.452 11.452 0 0 1 .386-.188c.236-.11.571-.26.979-.44.816-.362 1.931-.848 3.152-1.375l.458 1.061c-1.22.527-2.33 1.011-3.142 1.37-.406.18-.734.328-.962.433a10.597 10.597 0 0 0-.303.146l.018-.01a.523.523 0 0 0 .04-.03c.01-.009.062-.051.11-.123l-.963-.64zm-36.217 12.29-.175 1.143.175-1.143zm7.117 1.774.343-1.104.009.003-.352 1.101zm8.207 3.106.619-.977.022.014.022.015-.663.948zm-1.165 1.442.774.859-.516.464-.651-.236.393-1.087zm-1.478-.537-.394 1.088-.004-.002.398-1.085zm-10.925-1.719.33 1.109-.01.003-.32-1.112zm-2.514 3.808-1.108.33 1.108-.33zm5.36 3.975.41-1.082.005.002-.414 1.08zm16.97 3.77-.103 1.152h-.005l.108-1.151zm2.07.185.103-1.151.285.025.24.156-.628.97zm3.512 2.274-.622.975-.006-.004.628-.971zm3.328 2.31-.41-1.08.107-.041.113-.019.19 1.14zM31.469 36.37l.224-1.134h.001l-.225 1.134zM9.288 29.252l-.526 1.03.526-1.03zm-5.361-3.955.953-.655.003.004-.956.65zm32.663 1.497.634-.967-.634.967zm3.567 3.087.642-.962.006.004-.648.958zm-2.55-.536-.533-1.027.006-.003.526 1.03zm-1.683-.647-.705.916.705-.916zM33.836 27.2l-.617.978-.008-.005-.008-.006.633-.967zm.554-1.794.517 1.035-.19.095-.212.021-.115-1.15zm10.389 8.762 1.133-.226.023.112v.114h-1.156zm-.906 1.09-.818-.817.818.818zm-.887.888.817.818-.658.658-.783-.502.623-.974zm-3.087-1.978-.624.974-.005-.004.628-.97zm-1.11-3.918-.19 1.14-.026-.004-.026-.006.242-1.13zm-26.858 1.608.935-.68.006.008-.941.672zm4.473 3.77-.64.964-.004-.003.644-.96zm9.594 3.9-.194 1.14h-.006l.2-1.14zm7.745.112-.19-1.14.007-.002.007-.001.176 1.143zm-.776 6.654 1.122.277v.003l-1.122-.28zm-3.716 9.298.57 1.006-.002.002-.568-1.008zm-1.016.573.567 1.008-.264.148h-.303v-1.156zm-3.235 0v1.157h-.009L25 56.165zm-5.028-.406-.246 1.13-.008-.002.254-1.128zm-6.71-2.366.509-1.039.001.001-.51 1.038zm-6.396-4.326-.813.822-.008-.008.821-.814zm-.628-7.135 1.064.453-.001.001-1.063-.454zM62.8 45.74l.778-.856.02.019.02.02-.818.817zm.425 1.737-1.154.072v-.012l1.154-.06zm-8.965-4.122-.62.976-.002-.001.622-.975zm-8.836-8.817-.19 1.14-.11-.018-.105-.04.405-1.082zm26.434 3.79-1.08.414 1.08-.415zm1.017-.038-1.08.417-.002-.006 1.082-.41zm4.658 2.44 1.056-.471.004.011-1.06.46zm1.756 7.58 1.155-.048-1.155.047zm-.887 6.654-1.09-.387 1.09.387zm-.518 2.68.567-1.008.059.033.054.04-.68.935zm.943-.832-1.088-.391.007-.02.007-.018 1.074.43zm1.109-.296-.148-1.146.011-.002.012-.001.125 1.15zm1.571.204.62-.976.011.007.01.007-.641.962zm.5.333.64-.962 1.26.84-1.142.993-.759-.871zm-.574.499-.77-.862.005-.005.006-.005.76.872zm-10.814 2.81.128 1.148h-.002l-.126-1.149zm-2.033.221.126 1.15-.62.067-.397-.48.891-.737zm-.351-.425-.892.736-.005-.007-.006-.007.903-.722zm.776-1.127.308 1.114-.009.002-.009.003-.29-1.12zm1.479.018.332-1.108.003.001-.335 1.107zm.906-.018.98.612-.005.008-.975-.62zm-1.498-1.165-.373 1.094.374-1.094zm-7.024-3.106.62-.976.01.007-.63.97zm-3.438-5.822-1.151.105v-.004l1.151-.101zm-.11-1.257-1.153.101-.21-2.376 1.996 1.308-.634.967zm.535.351-.613.98-.01-.006-.01-.007.633-.967zm1.7 1.072.596-.991.013.008.014.008-.622.975zm1.036 1.035 1.067.445-.003.007-1.064-.452zm.222 1.09-.135 1.15-.015-.003-.014-.002.164-1.144zm.887-1.053 1.057.469-.002.005-1.055-.474zm-.998-7.098-1.03.526-.001-.002 1.03-.524zm-1.017-5.97.818.817-.818-.818zm1.682.018.967-.635.006.01-.973.625zm.998 2.07 1.06-.463.003.006-1.063.457zm1.405 1.46 1.085.4-.005.013-1.08-.413zm-1.164-3.382-1.003.575-.006-.01 1.009-.565zm.48-1.72-.452-1.063.018-.008.02-.008.415 1.08zm1.165.13-.59.995-.01-.007.6-.988zm1.534 2.514-1.063.453-.002-.003 1.065-.45zm1.553 2.459.617.977-.007.005-.007.004-.603-.986zm-.702-2.847-1.058.468-.002-.006 1.06-.462zm-.629-2.422.957.65-.01.014-.01.013-.937-.677zm-54.3-18.814c2.132.326 3.93.77 7.285 1.813l-.687 2.208c-3.3-1.026-4.976-1.433-6.948-1.735l.35-2.286zm7.294 1.816c1.157.37 3.092 1.067 4.798 1.711.855.323 1.662.636 2.293.892.314.128.592.244.812.341.192.085.417.188.57.286l-1.237 1.954c.016.01-.05-.028-.268-.124-.19-.084-.442-.19-.747-.314-.607-.246-1.395-.552-2.24-.872-1.696-.64-3.587-1.32-4.685-1.671l.704-2.203zm8.518 3.26c.517.361.547.917.507 1.19a1.547 1.547 0 0 1-.187.53c-.117.21-.28.412-.415.567-.288.331-.663.694-.959.961l-1.547-1.719c.258-.232.558-.525.76-.758.11-.127.146-.184.143-.179a.893.893 0 0 0-.084.269c-.014.096-.023.267.04.468.071.223.215.424.416.565l1.326-1.895zm-2.221 3.476-1.48-.536.789-2.175 1.479.537-.788 2.174zm-1.483-.538c-2.157-.79-4.302-1.352-6.139-1.642-1.883-.296-3.29-.282-4.058-.054l-.66-2.217c1.285-.382 3.121-.321 5.078-.013 2.004.316 4.295.919 6.575 1.755l-.796 2.171zm-10.208-1.693c-.787.226-1.285.616-1.546 1.012-.25.38-.333.835-.178 1.355l-2.217.658c-.345-1.161-.169-2.324.464-3.284.621-.945 1.63-1.617 2.84-1.964l.637 2.223zm-1.725 2.366c.287.963 1.288 1.944 4.663 3.223l-.82 2.163c-3.354-1.272-5.421-2.583-6.059-4.726l2.216-.66zm4.667 3.225c5.043 1.934 10.243 3.097 16.663 3.7l-.216 2.302c-6.594-.618-12.004-1.821-17.275-3.843l.828-2.159zm16.658 3.699 2.07.185-.206 2.303-2.07-.185.206-2.303zm2.596.366 3.512 2.273-1.257 1.942-3.512-2.274 1.257-1.941zm3.505 2.27c.98.625 1.854 1.207 2.473 1.638.306.214.564.4.743.54.082.064.18.143.262.222.02.02.133.125.225.28.02.034.213.338.154.76a1.162 1.162 0 0 1-.961.985l-.38-2.28a1.147 1.147 0 0 0-.95.974c-.058.417.132.714.147.74a1.042 1.042 0 0 0 .157.203c.014.013-.002-.003-.075-.06-.13-.102-.349-.26-.645-.467a73.958 73.958 0 0 0-2.394-1.586l1.244-1.95zm3.116 4.366c-.23.087-.464.095-.544.098a5.38 5.38 0 0 1-.419-.003 20.321 20.321 0 0 1-1.105-.084 86.418 86.418 0 0 1-3.266-.4c-2.515-.349-5.542-.837-7.853-1.296l.45-2.268c2.255.447 5.236.929 7.721 1.273 1.242.173 2.35.309 3.173.39.414.04.741.065.973.074.117.005.193.005.235.003.09-.003-.023-.011-.185.05l.82 2.163zm-13.186-1.685c-8.866-1.75-16.666-4.255-22.483-7.22l1.05-2.06c5.57 2.838 13.15 5.287 21.881 7.012l-.448 2.268zm-22.483-7.22c-2.783-1.42-4.748-2.805-5.79-4.335l1.91-1.302c.695 1.02 2.205 2.186 4.93 3.576l-1.05 2.06zM2.974 25.95c-.967-1.408-1.431-2.853-1.298-4.24.135-1.404.868-2.585 1.981-3.462 2.17-1.709 5.814-2.325 10.058-1.674l-.351 2.286c-3.946-.606-6.826.062-8.275 1.204-.697.55-1.046 1.185-1.111 1.868-.068.7.15 1.612.902 2.71L2.974 25.95zm34.25-.123c1.034.678 2.506 1.756 3.713 2.686.605.466 1.156.905 1.56 1.245.2.169.379.325.514.456.065.063.142.14.21.221.032.04.085.105.136.19.021.036.175.28.175.623h-2.313c0 .33.146.553.154.565.036.06.067.098.071.103l-.038-.037a8.735 8.735 0 0 0-.399-.352c-.368-.31-.89-.726-1.481-1.182-1.187-.914-2.608-1.952-3.571-2.586l1.27-1.932zm6.308 5.42a1.176 1.176 0 0 1-1.371 1.17c-.11-.016-.2-.045-.255-.065a3.04 3.04 0 0 1-.517-.27 64.666 64.666 0 0 1-1.88-1.244l1.296-1.916c.978.662 1.51 1.015 1.795 1.19.168.104.168.092.097.067a1.108 1.108 0 0 0-.678-.01 1.137 1.137 0 0 0-.8 1.079h2.313zm-4.016-.405c-.639-.426-.912-.541-1.05-.57-.029-.006-.071-.033-.333.101l-1.053-2.059c.533-.272 1.128-.457 1.856-.306.621.129 1.226.485 1.863.91l-1.283 1.924zm-1.377-.472c-.112.058-.342.18-.612.236-.338.07-.656.029-.95-.087a3.162 3.162 0 0 1-.653-.375c-.195-.138-.43-.32-.705-.531l1.411-1.832c.288.222.483.371.631.476.159.113.192.122.163.11a.704.704 0 0 0-.368-.025c-.053.011-.082.024-.074.021.01-.004.034-.015.092-.046l1.065 2.053zm-2.92-.758c-.639-.492-1.547-1.15-2-1.434l1.233-1.957c.546.344 1.523 1.054 2.178 1.56l-1.412 1.831zm-2.016-1.445a9.517 9.517 0 0 1-.714-.513 4.031 4.031 0 0 1-.271-.235 1.777 1.777 0 0 1-.153-.165 1.31 1.31 0 0 1-.122-.18c-.029-.052-.151-.27-.151-.577h2.313a1.14 1.14 0 0 0-.142-.549 1.007 1.007 0 0 0-.095-.142c-.032-.04-.055-.06-.047-.053.01.01.045.041.113.095.13.105.322.245.534.384l-1.265 1.935zm-1.411-1.67a1.187 1.187 0 0 1 .225-.696c.054-.077.11-.138.143-.174a3.33 3.33 0 0 1 .225-.213c.147-.13.333-.279.515-.417.182-.139.38-.281.552-.394.085-.056.18-.115.271-.165.046-.025.106-.056.175-.084.047-.02.19-.08.377-.098l.23 2.301a1.05 1.05 0 0 0 .284-.07c.03-.012.044-.02.038-.017a1.708 1.708 0 0 0-.106.066 7.948 7.948 0 0 0-.421.302 7.59 7.59 0 0 0-.39.313c-.05.044-.067.063-.065.06a.85.85 0 0 0 .063-.079 1.04 1.04 0 0 0 .154-.326c.02-.072.043-.178.043-.309h-2.313zm2.081-2.125a1.16 1.16 0 0 1 .962-.036c.064.025.117.052.144.067.062.032.13.071.193.108.131.078.306.186.507.314.405.257.952.612 1.545 1.001l-1.269 1.933a124.28 124.28 0 0 0-1.514-.98 19.356 19.356 0 0 0-.506-.312c-.015-.009-.022-.012-.02-.012l.014.007a.898.898 0 0 0 .213.072 1.133 1.133 0 0 0 .765-.093l-1.034-2.069zm8.626 6.789a58.014 58.014 0 0 1 2.084 1.392c.269.19.498.357.667.488.082.064.165.131.236.194.033.03.083.077.134.133.025.028.067.077.11.141.029.041.136.2.182.433l-2.267.453c.045.227.149.378.17.41.038.056.072.094.086.11.029.032.048.048.04.042a2.354 2.354 0 0 0-.11-.09c-.128-.1-.325-.243-.58-.424a55.99 55.99 0 0 0-1.997-1.334l1.245-1.948zm3.436 3.007c0 .296-.113.519-.136.567-.044.09-.094.168-.132.225a4.302 4.302 0 0 1-.267.35c-.192.23-.443.5-.71.767l-1.635-1.636a9.91 9.91 0 0 0 .57-.614 2.15 2.15 0 0 0 .122-.156c.008-.012-.006.007-.026.048a1.075 1.075 0 0 0-.1.45h2.314zm-1.245 1.909-.887.887-1.635-1.635.887-.888 1.635 1.636zm-2.328 1.043-3.087-1.978 1.247-1.947 3.087 1.978-1.247 1.947zm-3.093-1.982a67.24 67.24 0 0 1-2.205-1.485c-.284-.202-.53-.383-.712-.527a3.861 3.861 0 0 1-.26-.224 1.636 1.636 0 0 1-.157-.173 1.183 1.183 0 0 1-.26-.742h2.311a1.128 1.128 0 0 0-.228-.68.804.804 0 0 0-.065-.073l.026.022.074.061c.132.105.337.257.61.45.54.383 1.293.892 2.125 1.431l-1.258 1.94zm-3.595-3.15c0-.276.094-.485.131-.563.049-.103.105-.19.148-.253.088-.127.193-.25.29-.358.2-.22.453-.463.701-.685.25-.22.52-.443.762-.614.117-.083.255-.174.396-.246a1.74 1.74 0 0 1 .286-.118c.088-.027.338-.098.644-.032l-.485 2.261a1.07 1.07 0 0 0 .515-.017.696.696 0 0 0 .074-.027l.024-.011c.003-.001-.007.003-.03.018a1.987 1.987 0 0 0-.088.06c-.15.105-.352.269-.561.455a7.28 7.28 0 0 0-.525.51 2.27 2.27 0 0 0-.094.11l-.006.008-.002.003.002-.004.007-.01a.922.922 0 0 0 .081-.191c.018-.06.042-.164.042-.297h-2.312zm3.306-2.879c.174.03.314.097.32.1.046.02.09.042.125.06.072.038.157.086.247.138.184.106.427.252.71.424.567.348 1.318.819 2.117 1.33l-1.245 1.948c-.791-.505-1.528-.968-2.079-1.305-.276-.169-.5-.302-.657-.393a5.037 5.037 0 0 0-.165-.092c-.017-.009-.016-.008-.003-.002l.054.022c.016.006.092.034.195.051l.38-2.281zm-26.108 2.077c.042.059.207.242.533.55.303.286.689.627 1.113.985.854.72 1.82 1.471 2.53 1.947l-1.288 1.92c-.806-.54-1.845-1.35-2.733-2.1a29.943 29.943 0 0 1-1.209-1.07c-.319-.301-.64-.624-.828-.888l1.882-1.344zm4.172 3.48c2.796 1.858 6.049 3.18 9.153 3.724l-.399 2.278c-3.439-.602-6.989-2.053-10.034-4.076l1.28-1.926zm9.148 3.723c.776.132 2.25.224 3.765.247 1.526.023 2.934-.026 3.596-.137l.38 2.281c-.89.149-2.486.191-4.01.168-1.535-.023-3.158-.116-4.12-.28l.389-2.279zm7.375.108c.238-.036.475-.072.656-.093.084-.01.191-.021.29-.024a1.43 1.43 0 0 1 .267.016 1.163 1.163 0 0 1 .988 1.151h-2.312a1.15 1.15 0 0 0 .953 1.132c.058.01.103.012.122.012h.043c.012 0-.008 0-.081.01-.134.015-.331.044-.574.082l-.352-2.286zm2.201 1.05c0 .086-.01.155-.01.158a1.266 1.266 0 0 1-.02.104l-.008.039-.027.112-.097.403-.354 1.459c-.298 1.225-.71 2.908-1.163 4.749l-2.245-.553a1877.71 1877.71 0 0 0 1.633-6.694l.003-.012.001-.005v.003l-.003.01a.843.843 0 0 0-.012.07c0 .004-.01.072-.01.157h2.312zm-1.68 7.027c-.96 3.86-1.526 6.064-2.057 7.397-.275.688-.57 1.226-.96 1.666-.394.445-.827.722-1.25.961l-1.14-2.012c.345-.195.517-.322.66-.483.147-.166.321-.436.541-.988.458-1.15.982-3.16 1.963-7.1l2.244.559zM29.82 56.6l-1.017.574-1.135-2.015 1.016-.573L29.82 56.6zm-1.584.722H25V55.01h3.235v2.313zm-3.244 0c-2.63-.018-3.705-.093-5.265-.433l.492-2.26c1.324.29 2.208.363 4.79.381l-.017 2.313zm-5.273-.434c-2.64-.593-4.556-1.27-6.967-2.457l1.021-2.075c2.248 1.106 3.991 1.722 6.453 2.276l-.507 2.256zm-6.965-2.456c-2.869-1.406-4.923-2.785-6.7-4.542l1.626-1.644c1.55 1.533 3.378 2.78 6.092 4.11l-1.018 2.076zm-6.708-4.55c-1.125-1.134-1.978-2.19-2.108-3.641-.12-1.346.414-2.835 1.237-4.762l2.127.908c-.859 2.01-1.12 2.97-1.06 3.649.05.572.353 1.116 1.446 2.218l-1.642 1.628zm-.871-8.402c.908-2.135 2.153-4.77 3.213-6.87.53-1.05 1.02-1.98 1.402-2.653.19-.334.365-.625.512-.842.07-.104.156-.222.249-.326.044-.05.119-.129.22-.204.055-.043.328-.252.736-.252v2.312c.387 0 .633-.197.658-.216.069-.052.107-.095.11-.098.009-.01-.01.01-.06.083-.095.14-.235.37-.414.686a62.109 62.109 0 0 0-1.348 2.551c-1.043 2.068-2.266 4.655-3.15 6.735l-2.128-.906zm6.332-11.147c.327 0 .57.13.66.183.121.07.22.148.295.213.15.132.29.29.405.45l-1.87 1.36a.672.672 0 0 0-.042-.053l-.02-.02a.631.631 0 0 0 .08.054 1.037 1.037 0 0 0 .492.125v-2.312zm43.141 8.687c2.312 1.489 4.46 2.882 6.054 3.926.797.522 1.459.958 1.935 1.276.237.158.432.29.576.389.103.071.27.185.367.274l-1.556 1.711c.047.043.046.036-.124-.081-.13-.09-.314-.214-.548-.37-.467-.313-1.121-.744-1.916-1.264-1.59-1.04-3.731-2.43-6.04-3.917l1.252-1.944zm8.972 5.903c.64.64.71 1.502.762 2.496l-2.31.12c-.027-.534-.06-.803-.097-.954-.016-.064-.026-.079-.02-.068a.19.19 0 0 0 .03.041l1.635-1.635zm.761 2.483c.03.471.033.882.005 1.2a2.392 2.392 0 0 1-.099.528 1.38 1.38 0 0 1-.22.42 1.205 1.205 0 0 1-.95.467v-2.313c-.475 0-.762.28-.873.422-.105.135-.145.255-.154.282-.021.065-.015.078-.007-.01a6.235 6.235 0 0 0-.01-.852l2.308-.144zm-1.264 2.615c-.204 0-.36-.056-.374-.061a1.34 1.34 0 0 1-.225-.098 5.646 5.646 0 0 1-.193-.106c-.14-.08-.332-.195-.566-.336-.47-.284-1.13-.691-1.934-1.191-1.607-1-3.796-2.38-6.183-3.897l1.24-1.952a817.13 817.13 0 0 0 6.165 3.886c.8.498 1.452.9 1.908 1.175a28.38 28.38 0 0 0 .63.37l-.026-.013a.97.97 0 0 0-.085-.032c-.007-.002-.158-.057-.357-.057v2.312zm-9.477-5.69c-5.267-3.364-7.963-5.084-9.342-5.97a75.684 75.684 0 0 1-1.259-.819 3.502 3.502 0 0 1-.26-.19 1.303 1.303 0 0 1-.213-.22 1.177 1.177 0 0 1-.237-.708h2.313c0-.294-.111-.527-.226-.68-.08-.107-.158-.169-.162-.172-.021-.018-.014-.01.082.055.174.118.52.344 1.212.788 1.375.884 4.067 2.602 9.337 5.967l-1.245 1.949zm-11.31-7.907c0-.336.148-.585.163-.613.048-.087.1-.162.14-.215.08-.109.178-.224.273-.33.194-.218.444-.473.69-.711.245-.238.505-.477.722-.66a4.17 4.17 0 0 1 .336-.258 1.72 1.72 0 0 1 .245-.14c.052-.023.145-.062.265-.088.098-.021.361-.068.669.047l-.813 2.166a1.125 1.125 0 0 0 .842-.022c.063-.029.096-.053.085-.046-.014.01-.06.044-.143.114-.16.134-.377.331-.598.547-.221.214-.43.428-.576.592a2.578 2.578 0 0 0-.136.162c-.011.014.003-.002.024-.041a1.087 1.087 0 0 0 .124-.503h-2.313zm3.287-3.026c.141.024.248.07.26.075a1.405 1.405 0 0 1 .175.087c.052.029.113.064.179.104.134.08.32.193.546.334.455.283 1.096.687 1.876 1.182 1.56.991 3.683 2.351 5.995 3.84l-1.252 1.944a1191.55 1191.55 0 0 0-5.983-3.831c-.778-.494-1.412-.894-1.857-1.17a37.102 37.102 0 0 0-.627-.382l.007.004.056.025c.004.002.106.047.244.07l.38-2.282zm24.967 1.07c1.091.736 1.717 1.783 2.355 3.446l-2.159.829c-.581-1.516-.99-2.022-1.489-2.358l1.293-1.917zm2.355 3.445c.087.227.16.404.224.54.063.139.107.216.132.254.028.044.006-.004-.08-.07a.87.87 0 0 0-.523-.17v2.312c-.745 0-1.162-.543-1.338-.815-.203-.312-.386-.734-.573-1.22l2.158-.83zm-.247.553c.082 0-.058-.018-.25.09a.91.91 0 0 0-.317.303.848.848 0 0 0-.126.335c-.017.127.013.17-.021.04a5.2 5.2 0 0 0-.18-.526l2.157-.833c.107.277.2.54.262.78.056.217.118.527.073.855a1.42 1.42 0 0 1-.71 1.06c-.34.192-.694.209-.888.209v-2.313zm-.897.236a9.225 9.225 0 0 1-.3-.948c-.067-.264-.144-.615-.144-.904h2.312c0-.037-.003-.026.011.056.013.07.033.163.061.273.057.222.137.476.223.702l-2.162.82zm-.444-1.852c0-.578.22-1.125.493-1.523.141-.206.326-.416.555-.584.222-.163.564-.344.995-.344v2.313a.734.734 0 0 0 .266-.048.475.475 0 0 0 .108-.057c.026-.019.014-.016-.016.027a.604.604 0 0 0-.07.14c-.019.053-.019.08-.019.076H71.35zm2.043-2.45c.642 0 1.202.322 1.608.632.436.332.864.78 1.27 1.288.812 1.02 1.632 2.402 2.319 3.94l-2.112.943c-.626-1.401-1.35-2.606-2.015-3.44-.335-.42-.63-.714-.864-.893-.264-.2-.321-.158-.206-.158v-2.313zm5.201 5.871c1.146 2.64 1.734 5.127 1.851 7.992l-2.31.094c-.105-2.569-.626-4.777-1.662-7.165l2.121-.92zm1.851 7.992c.116 2.852-.117 4.742-.953 7.09l-2.179-.776c.717-2.015.928-3.6.822-6.22l2.31-.094zm-.953 7.088c-.367 1.037-.538 1.58-.594 1.873-.03.154 0 .107-.028-.026a.872.872 0 0 0-.418-.56l-1.134 2.015a1.44 1.44 0 0 1-.708-.967c-.073-.333-.03-.659.017-.9.096-.497.333-1.211.686-2.208l2.18.773zm-.927 1.359a1.011 1.011 0 0 0-.617-.195.826.826 0 0 0-.293.058c-.08.033-.094.057-.054.021a.727.727 0 0 0 .1-.112c.035-.047.043-.071.039-.06l2.176.783a2.867 2.867 0 0 1-.777 1.117c-.15.133-.356.287-.604.39-.19.078-.775.272-1.33-.132l1.36-1.87zm-.81-.326c.135-.34.387-.515.454-.561.104-.071.203-.118.27-.146a2.96 2.96 0 0 1 .407-.136c.26-.07.58-.129.903-.17l.296 2.293a5.06 5.06 0 0 0-.608.112c-.075.02-.097.03-.083.024a1.014 1.014 0 0 0 .278-.202c.061-.063.16-.18.23-.355l-2.148-.86zm2.057-1.016c.434-.047.842-.076 1.223-.028.435.056.775.202 1.094.405l-1.242 1.951a.534.534 0 0 0-.091-.05.212.212 0 0 0-.053-.012c-.09-.011-.264-.012-.681.033l-.25-2.299zm2.337.39.5.334-1.283 1.924-.5-.333 1.283-1.924zm.617 2.167-.573.5-1.518-1.744.573-.5 1.518 1.745zm-.56.49c-.441.394-1.155.718-1.866.986-.763.288-1.703.574-2.733.842a50.895 50.895 0 0 1-6.859 1.268l-.255-2.298a48.6 48.6 0 0 0 6.533-1.208c.98-.255 1.836-.518 2.498-.768.713-.269 1.053-.469 1.14-.546l1.541 1.723zm-11.46 3.097-2.033.222-.251-2.3 2.033-.221.25 2.299zm-3.05-.191-.352-.426 1.783-1.472.352.425-1.783 1.473zm-.363-.44a2.124 2.124 0 0 1-.43-.833 1.516 1.516 0 0 1 .23-1.222c.224-.324.534-.513.771-.628.25-.121.533-.212.818-.286l.58 2.239a2.305 2.305 0 0 0-.392.129c-.07.034.025.006.124-.138a.797.797 0 0 0 .122-.62c-.03-.129-.08-.164-.017-.085l-1.806 1.444zm1.372-2.964c.744-.205 1.353-.204 2.118.026l-.664 2.214c-.345-.103-.51-.101-.84-.01l-.614-2.23zm2.121.026c.144.044.235.068.295.082.066.014.047.004-.017.005a.844.844 0 0 0-.407.122.828.828 0 0 0-.276.259l1.951 1.241a1.49 1.49 0 0 1-.496.489 1.472 1.472 0 0 1-.732.201c-.346.006-.715-.103-.988-.185l.67-2.214zm-.41.476c.027-.044-.103.133-.073.431a.797.797 0 0 0 .267.54c.012.009-.04-.032-.25-.12a13.181 13.181 0 0 0-.834-.309l.747-2.188c.386.131.718.252.99.367.258.11.536.244.768.425.243.189.56.529.612 1.055.048.477-.154.846-.266 1.024l-1.96-1.225zm-.89.542c-1.153-.394-2.68-1.014-4.043-1.617-1.338-.592-2.622-1.213-3.237-1.613l1.259-1.94c.438.285 1.557.838 2.914 1.438 1.33.589 2.789 1.18 3.854 1.544l-.747 2.188zm-7.27-3.224c-2.099-1.333-3.737-4.144-3.97-6.693l2.303-.21c.172 1.886 1.456 4.03 2.906 4.951l-1.24 1.952zm-3.97-6.697-.112-1.257 2.304-.203.11 1.257-2.303.203zm1.674-2.325.536.35L59.229 49l-.536-.351 1.267-1.934zm.515.337c.341.214 1.04.676 1.683 1.062l-1.19 1.983c-.652-.391-1.468-.927-1.719-1.084l1.226-1.96zm1.71 1.078c.43.275.812.538 1.073.8a1.8 1.8 0 0 1 .418.615c.126.326.133.694-.01 1.04l-2.135-.89a.937.937 0 0 0-.012.686c.059.15.134.213.104.184a1.89 1.89 0 0 0-.2-.161 9.713 9.713 0 0 0-.482-.324l1.244-1.95zm1.477 2.462a.795.795 0 0 0-.053.163c-.005.025.006-.014-.01-.096a.728.728 0 0 0-.21-.368.747.747 0 0 0-.406-.205l-.327 2.29a1.569 1.569 0 0 1-.874-.421 1.588 1.588 0 0 1-.448-.827c-.108-.52.028-1.036.2-1.44l2.128.904zm-.707-.51a.737.737 0 0 0-.348.053.674.674 0 0 0-.259.173c-.01.012.014-.014.075-.127.058-.108.132-.26.23-.477l2.109.947c-.194.43-.397.856-.653 1.156a1.656 1.656 0 0 1-.648.477c-.297.117-.572.12-.776.095l.27-2.296zm-.305-.374c.464-1.044.591-1.683.487-2.42-.115-.821-.531-1.866-1.458-3.683l2.06-1.051c.921 1.805 1.513 3.163 1.688 4.412.188 1.334-.11 2.433-.663 3.68l-2.114-.938zm-.972-6.105c-.888-1.749-1.472-3.125-1.664-4.243-.1-.578-.104-1.143.043-1.685.15-.553.44-1.007.818-1.384l1.635 1.635a.773.773 0 0 0-.222.356c-.034.128-.055.337.005.687.127.74.56 1.841 1.447 3.586l-2.062 1.048zm-.803-7.312c.453-.453 1.062-.784 1.752-.773.725.011 1.335.396 1.714.974l-1.933 1.27c-.01-.016-.001.004.04.028.044.025.096.04.144.04.094.002.056-.042-.082.096l-1.635-1.635zm3.472.21c.226.352.706 1.367 1.085 2.233l-2.119.927a38.85 38.85 0 0 0-.565-1.233 17.976 17.976 0 0 0-.31-.612 1.91 1.91 0 0 0-.034-.06l-.002-.004 1.945-1.25zm1.088 2.24c.161.375.302.666.422.881a3.144 3.144 0 0 0 .199.313l.014.017.005.005-.008-.006a.682.682 0 0 0-.134-.09.935.935 0 0 0-.593-.08.942.942 0 0 0-.539.304.705.705 0 0 0-.083.117c-.014.025-.02.041-.02.043l2.16.825c-.087.226-.367.849-1.093.984-.708.133-1.195-.325-1.357-.493-.399-.415-.76-1.121-1.098-1.907l2.125-.914zm-.743 1.517c-.074.201-.05.343-.054.286a1.383 1.383 0 0 0-.028-.163 6.927 6.927 0 0 0-.218-.749c-.21-.613-.505-1.299-.782-1.782l2.006-1.15c.37.644.721 1.473.964 2.182.122.357.226.71.292 1.015.032.151.06.315.072.474a1.64 1.64 0 0 1-.082.686l-2.17-.8zm-1.088-2.418c-.27-.483-.598-1.194-.383-1.95.23-.808.932-1.19 1.42-1.398l.905 2.128c-.078.033-.133.06-.172.082-.038.022-.052.034-.05.033a.312.312 0 0 0 .05-.06.52.52 0 0 0 .09-.29c0-.028-.005-.035 0-.016.005.02.018.057.044.117.026.059.063.133.114.224l-2.018 1.13zm1.074-3.364c.246-.094.634-.239 1.096-.194.448.044.814.25 1.084.415l-1.2 1.976a3.03 3.03 0 0 0-.19-.105c-.016-.007.018.01.082.016.03.003.059.003.082 0 .022-.001.035-.004.034-.004a2.684 2.684 0 0 0-.157.054l-.83-2.157zm2.17.214c.883.524 1.285 1.346 2.01 3.059l-2.13.9c-.793-1.874-.945-1.901-1.06-1.97l1.18-1.989zm2.008 3.056c.492 1.154.76 1.723.926 1.986.097.154.053.025-.151-.081a.938.938 0 0 0-.889.02l1.206 1.973a1.443 1.443 0 0 1-.615.21 1.374 1.374 0 0 1-.77-.152c-.376-.196-.607-.53-.736-.734-.287-.453-.63-1.215-1.098-2.316l2.127-.906zm-.128 1.934a.804.804 0 0 0-.348.506c-.027.136.008.18-.03.024-.076-.306-.294-.867-.765-1.931l2.115-.936c.453 1.025.762 1.776.895 2.315.066.267.125.618.052.982a1.51 1.51 0 0 1-.685.995l-1.234-1.955zm-1.145-1.407c-.391-.897-.655-1.518-.77-1.959a2.058 2.058 0 0 1-.058-.856c.057-.346.21-.592.322-.746l1.874 1.354c-.009.013.061-.08.087-.233.02-.128-.009-.19.015-.098.057.22.227.644.65 1.614l-2.12.924zm-.526-3.533c.435-.64 1.122-.897 1.776-.883.621.012 1.227.258 1.75.61l-1.293 1.918c-.272-.184-.452-.215-.505-.216-.02 0 .005.004.054-.02a.335.335 0 0 0 .132-.11l-1.914-1.299z" fill="#3A85D0" mask="url(#a)"/><path d="m83.047 69.683-.002-.002.002.002zm-.452.154a.033.033 0 0 0 0 .002v-.001zM11.214 39.313l-.944 2.203a3.468 3.468 0 0 0 .413 3.448l.53.708" stroke="#3A85D0" stroke-width="1.156"/><path d="m20.796 20.367 8.34 3.336 5.639 2.256c.094.038.183.088.264.148l4.04 3.03c.292.219.463.562.463.925v2.177c0 .438-.247.838-.64 1.034l-1.428.714c-.16.08-.338.122-.517.122h-3.07c-.084 0-.168-.009-.25-.027L23.46 31.82a1.16 1.16 0 0 1-.205-.066l-7.85-3.364a1.161 1.161 0 0 1-.267-.16l-2.334-1.867a1.156 1.156 0 0 1-.434-.903v-1.201c0-.351.16-.684.434-.903l2.247-1.798c.138-.11.3-.187.472-.226l4.592-1.02c.227-.05.464-.031.68.055z" fill="#FFF5EC" stroke="#FFF5EC" stroke-width="1.156"/><path d="m70.073 65.923-1.282-4.575a1.156 1.156 0 0 1 .906-1.45l5.006-.91c.07-.013.138-.032.204-.057l5.27-2.008a1.156 1.156 0 0 1 1.568 1.08v4.735c0 .508-.332.957-.818 1.106l-9.402 2.873a1.156 1.156 0 0 1-1.452-.794z" fill="#FF7A92"/><mask id="b" fill="#fff"><path d="M13.54 17.718c2.05.314 3.788.74 7.116 1.774 2.255.721 7.652 2.755 8.207 3.106.06.041.018.153-.084.302-.546.8-1.649.934-2.56.604-4.436-1.627-8.872-2.33-10.924-1.72-1.996.574-3.013 2.126-2.514 3.808.462 1.553 1.997 2.7 5.36 3.975 5.158 1.977 10.463 3.16 16.97 3.77l1.33.12a3 3 0 0 1 1.364.469l2.888 1.87c1.45.925 2.653 1.747 3.122 2.112.156.12.111.225-.086.224-1.524-.002-8.093-.936-12.26-1.763-8.798-1.738-16.488-4.215-22.181-7.117-2.755-1.404-4.492-2.68-5.361-3.955-3.438-5.01 1.423-8.836 9.612-7.58zm23.05 9.076c1.996 1.312 5.785 4.233 5.785 4.455 0 .11-.277-.056-2.218-1.368-1.275-.85-1.756-.943-2.55-.536-.5.259-.555.222-1.683-.647-.647-.5-1.59-1.183-2.088-1.497-.481-.315-.888-.648-.888-.703 0-.073.544-.513.968-.812.299-.21.642-.198.952-.005.404.253 1.028.658 1.722 1.113zm5.286 5.342c1.21.774 2.25 1.494 2.684 1.835.156.122.19.295.07.452-.162.212-.441.52-.757.837a1.56 1.56 0 0 1-1.944.21l-2.03-1.3c-1.683-1.091-3.069-2.071-3.069-2.182 0-.277 1.7-1.793 1.96-1.738.11.019 1.497.87 3.086 1.886zm-29.945-.277c.462.647 2.958 2.754 4.473 3.77 2.92 1.942 6.322 3.328 9.594 3.9 1.737.297 6.192.37 7.745.112.48-.074.869-.13.869-.093 0 .019-.74 3.069-1.645 6.747-1.941 7.801-2.181 8.43-3.716 9.298l-.33.187a3 3 0 0 1-1.474.386H25c-2.607-.018-3.586-.092-5.028-.406-2.551-.573-4.381-1.22-6.71-2.366-2.791-1.368-4.732-2.68-6.396-4.326-2.218-2.237-2.31-3.198-.628-7.135 1.793-4.215 4.935-10.444 5.268-10.444.092 0 .277.166.425.37zm42.09 8.133c4.621 2.976 8.577 5.564 8.78 5.749.278.277.37.665.425 1.737.056.888 0 1.387-.11 1.387-.111 0-4.086-2.477-8.855-5.509-10.536-6.728-10.776-6.876-10.776-6.932 0-.163 1.164-1.324 1.694-1.74.152-.119.332-.103.498-.004.937.564 4.359 2.746 8.344 5.312zm15.915-4.566c.795.536 1.313 1.313 1.923 2.902.37.962.591 1.294.832 1.294.554 0 .591-.277.185-1.33-.204-.537-.37-1.184-.37-1.442 0-.592.48-1.294.887-1.294 1.054 0 2.828 2.236 4.14 5.175 1.091 2.514 1.646 4.862 1.757 7.58.11 2.735-.111 4.473-.887 6.654-.721 2.033-.814 2.514-.518 2.68.203.148.776-.37.943-.832.037-.092.536-.221 1.109-.296.85-.092 1.164-.055 1.571.204a.458.458 0 0 1 .047.727l-.12.105c-1.055.942-6.323 2.31-10.815 2.81l-1.485.161c-.342.038-.68-.1-.9-.365-.443-.554-.22-.869.777-1.127.536-.148.924-.148 1.479.018.61.185.776.185.906-.018.277-.444.018-.647-1.498-1.165-2.218-.758-5.97-2.422-7.024-3.106-1.774-1.127-3.235-3.604-3.438-5.822l-.054-.619a.31.31 0 0 1 .48-.287c.295.185 1.053.684 1.7 1.072.869.555 1.127.813 1.035 1.035-.259.61-.166 1.035.222 1.09.314.038.48-.147.887-1.053 1.017-2.292.85-3.475-.998-7.098-1.775-3.494-2.033-4.954-1.017-5.97.592-.592 1.294-.574 1.682.018.167.259.61 1.183.998 2.07.684 1.59 1.165 2.089 1.405 1.46.13-.35-.517-2.255-1.164-3.382-.518-.925-.388-1.35.48-1.72.481-.184.647-.184 1.165.13.5.296.776.721 1.534 2.514.962 2.255 1.22 2.662 1.553 2.459.351-.222.222-.758-.702-2.847-.814-1.867-.87-2.089-.629-2.422.351-.517 1.128-.499 1.922.037z"/></mask><path d="m49.016 5.305.32.481-.01.008-.012.007-.298-.496zm3.18 2.144L52.02 8h-.002l.178-.55zm1.737.666-.378.437-.016-.014-.015-.014.41-.41zm-3.715 3.66-.192-.546.005-.001.187.547zm-9.76 5.656-.564-.128.564.128zM35.67 20.76l-.134-.563h.002l.132.563zm-8.984 1.904-.226.531-.004-.002.23-.53zm-11.46-3.827-.136.562.136-.562zm-11.313.277-.26-.516.26.516zm4.048 12.681-.25.52h-.003l.253-.52zM3.192 46.249l-.569-.104v-.002l.57.106zm12.33 14.733-.238.527.238-.527zm20.315 2.125.293.498-.003.002-.29-.5zm.998-7.763-.424.394-.005-.006-.004-.005.433-.383zm-2.034-1.7.318-.484.006.004-.324.48zm.315-11.258.573.072-.573-.072zm.443-2.551.463.347-.006.007-.005.007-.452-.361zm3.254.314.079-.572-.08.572zm4.658.573-.048.576h-.002l.05-.576zm7.763 4.067.31-.488h.002l-.312.488zm10.537 13.457-.315.485-.002-.002.317-.483zm2.55 1.33.208-.539-.207.54zm1.128.999-.543-.198.004-.01.54.208zm.296 1.719-.535.218-.002-.005.537-.213zm1.885 7.727-.568.107v-.004l.569-.103zm1.96 3.697-.19.546-.011-.004-.011-.004.212-.538zm1.33.203-.408-.409.409.409zm-1.441-7.856.563-.13v.001l-.563.129zm.961-3.272.072.574h-.005l-.067-.574zm9.871-2.495-.265-.514.01-.005.255.519zm-.776-3.069v.578h-.015l.015-.578zm-.888-1.682.556.162-.002.004-.553-.166zm.278-8.263.57-.099-.57.1zM73.01 36.286l-.224.533-.007-.003.23-.53zm-2.015.259-.444-.37.003-.004.44.374zm-4.4-.481-.324-.479.004-.002.32.481zm-1.349.185-.169.553-.007-.002-.007-.003.183-.548zm-2.495.573.426.39-.007.007-.42-.397zm-1.036.351-.088.572-.005-.001.093-.57zm-2.643 2.717-.576-.051v-.007l.576.058zm1.386 4.492.517-.258.003.005-.52.253zm.37 1.11.259-.518.024.013.024.014-.307.49zm-7.634-4.862-.312.487.312-.487zm-9.465-6.803-.404.413h-.001l.406-.413zm-7.301-5.97.319-.482.003.002-.322.48zm-1.94-1.534.227.53-.034.015-.035.01-.159-.555zm5.045-.574.06.575h-.003l-.057-.575zm4.917-.554.321.48-.03.02-.032.017-.259-.517zm1.294-2.865-.532-.225v-.002l.532.227zm2.662-3.346-.209-.54.21.54zm5.527-1.904.181.549-.003.001-.178-.55zm5.194-3.494.511.272-.002.002-.509-.274zm3.161-1.7.094-.57h.002l-.096.57zm3.328-6.267.574-.062v.003l-.574.06zm-7.302 5.786.478.326-.004.005-.474-.33zm-1.737 2.385.37.444-.017.014-.017.012-.336-.47zm-1.516.591-.181-.549.01-.003.17.552zm-9.52 3.808-.409-.409.41.41zm-1.017 2.31-.538-.21.003-.007.535.218zm-1.257 2.515-.397-.42.007-.007.39.427zm-4.547.887.072.574h-.002l-.07-.574zm-4.695.665.172.552-.01.003-.162-.555zm-4.27 2.718-.341-.467.001-.001.34.468zm-3.512 1.885v.578h-.009l.009-.578zm-3.138-.832.04.577-.02.002h-.02v-.579zm2.325-.72.247.522-.007.003-.24-.526zm3.382.352.392.425-.004.004-.388-.429zm2.274-4.918.253.52-.012.005-.241-.525zm10-4.03.566.12-.003.01-.563-.13zm.48-2.274.569.108-.001.006-.567-.114zm.352-.85.366.447-.014.012-.016.011-.336-.47zm8.522-3.18-.172-.552.007-.002.165.555zm2.2-1.645-.406-.412.002-.002.403.414zm2.698-3.438L54.889 8l-.007-.009-.006-.009.462-.347zM52.639 6.6l-.171.552h-.003l.174-.552zm10.15 5.371-.096.57.096-.57zM50.501 5.875l-.21.539.21-.539zm-.002-.261-.246-.523.246.523zM20.124 28.578l-.09.57h-.002l.092-.57zm36.321 19.54.311-.488-.311.487zm.945 1.791-.578-.017v-.001l.578.018zm8.566-41.002-.575.06.575-.06zM46.431 20.72l-.532-.227.532.227zm1.675-1.62-.208-.539.208.54zM41.444 15l-.205-.54.205.54zm-.571.647-.562-.135.562.135zm29.254 21.009.423-.394.003.003-.426.39zM44.289 40.79l-.048.577.048-.577zm24.635 22.556-.573.082.573-.082zm.266-.374-.11-.568.11.568zM56.829 16.124l.181.549-.181-.55zm1.7-1.427-.509-.274.51.274zM8.13 31.875l-.25.521.25-.52zm.608 1.97-.505-.282.004-.006.5.289zm19.205-10.647.227-.532-.227.532zm28.92-20.764c-2.004.877-3.865 1.7-5.245 2.315-.69.309-1.26.565-1.665.75a38.44 38.44 0 0 0-.478.222c-.14.067-.161.08-.138.065l-.642-.962c.065-.043.187-.101.283-.147.122-.058.289-.135.494-.229.41-.188.983-.446 1.675-.754 1.383-.618 3.247-1.441 5.253-2.32l.464 1.06zM49.314 5.8c.009-.005.006-.005-.004.006a.244.244 0 0 0-.05.081c0 .003 0 .003 0 0 .001-.004.003-.013.003-.028h-1.157c0-.23.085-.442.178-.6.095-.16.24-.333.436-.45l.595.99zm-.051.059a.23.23 0 0 0-.02-.086c-.015-.037-.033-.054-.031-.053.017.017.095.078.33.185.463.21 1.306.5 2.832.993L52.018 8c-1.505-.486-2.419-.797-2.954-1.04-.263-.12-.495-.248-.663-.412a.937.937 0 0 1-.296-.687h1.157zm3.11 1.039c.442.14.864.288 1.19.412.162.063.307.122.422.173a2.4 2.4 0 0 1 .162.08c.034.019.121.067.196.142l-.818.818c.052.052.095.07.065.054a1.282 1.282 0 0 0-.083-.04 6.766 6.766 0 0 0-.357-.147 22.275 22.275 0 0 0-1.13-.39l.352-1.102zm1.94.779c.27.235.218.553.198.643-.027.118-.08.222-.12.294a3.826 3.826 0 0 1-.358.5c-.29.355-.703.795-1.141 1.227-.44.435-.918.873-1.342 1.223a8.77 8.77 0 0 1-.6.46 2.399 2.399 0 0 1-.545.297l-.373-1.094.006-.003a.46.46 0 0 0 .075-.038c.05-.027.11-.066.183-.115.145-.1.32-.235.517-.398.392-.324.845-.738 1.266-1.155.424-.417.805-.825 1.058-1.136.13-.159.21-.272.247-.338.022-.038.01-.026 0 .02a.508.508 0 0 0 .172.487l.757-.874zm-3.903 4.642a812.68 812.68 0 0 0-8.761 3.22l-.41-1.08a812.89 812.89 0 0 1 8.788-3.23l.383 1.09zm-8.975 3.462c-.099.412-.25 1.058-.412 1.777l-1.128-.256c.164-.72.315-1.373.416-1.791l1.124.27zm-.412 1.777c-.14.611-.27 1.173-.37 1.588-.05.207-.093.382-.127.508a4.053 4.053 0 0 1-.075.244.73.73 0 0 1-.027.061c-.006.011-.041.084-.111.154l-.818-.818c-.067.068-.1.136-.102.14l-.017.038c-.004.009-.004.01 0-.002a21.41 21.41 0 0 0 .153-.597c.099-.407.227-.963.366-1.572l1.128.256zm-.71 2.555a.648.648 0 0 1-.25.15 11.856 11.856 0 0 1-.365.105c-.223.06-.54.14-.925.236-.77.193-1.822.448-2.97.716l-.264-1.125c1.144-.268 2.19-.521 2.954-.712a62.674 62.674 0 0 0 1.15-.3l.045-.014c.003 0-.005.002-.018.007a.525.525 0 0 0-.041.02c-.007.004-.07.036-.134.1l.818.817zm-4.508 1.207c-2.266.539-3.497.85-4.296 1.137-.758.272-1.104.513-1.597.938l-.755-.876c.579-.499 1.046-.822 1.96-1.15.874-.314 2.176-.64 4.42-1.174l.268 1.125zm-8.087 2.409-1.257-.536.453-1.063 1.257.535-.453 1.064zm-1.261-.538c-2.686-1.169-8.421-3.08-11.366-3.794l.272-1.124c3.007.729 8.806 2.661 11.555 3.858l-.461 1.06zm-11.367-3.794c-4.808-1.17-8.379-1.046-10.916.232l-.52-1.033c2.898-1.459 6.794-1.519 11.71-.323l-.274 1.124zm-10.916.232c-1.885.95-2.787 2.357-2.787 4.16H.229c0-2.3 1.205-4.074 3.424-5.193l.52 1.032zm-2.787 4.16c0 2.64 2.137 5.193 6.829 7.485l-.507 1.038C2.936 29.983.229 27.14.229 23.79h1.157zm6.826 7.483.17.082-.503 1.041-.169-.081.502-1.042zm1.03 2.856a91.222 91.222 0 0 0-3.56 7.104c-1.028 2.298-1.751 4.211-1.922 5.122l-1.136-.212c.2-1.067.982-3.1 2.002-5.382a92.377 92.377 0 0 1 3.608-7.198l1.008.566zM3.76 46.353c-.172.942.013 2.087.544 3.358.53 1.266 1.387 2.617 2.5 3.95 2.23 2.667 5.442 5.205 8.955 6.794l-.477 1.053c-3.678-1.664-7.028-4.31-9.364-7.106-1.17-1.398-2.096-2.848-2.68-4.245-.582-1.392-.841-2.773-.616-4.011l1.138.207zm11.998 14.102c3.696 1.666 7.768 2.73 11.373 3.108 3.637.38 6.684.049 8.414-.956l.58 1c-2.059 1.196-5.417 1.493-9.114 1.106-3.728-.39-7.92-1.488-11.728-3.204l.475-1.054zm19.784 2.154c1.41-.832 2.155-1.96 2.306-3.132.151-1.174-.28-2.497-1.438-3.74l.847-.787c1.338 1.438 1.942 3.09 1.737 4.675-.204 1.588-1.207 3.002-2.865 3.98l-.587-.995zm.859-6.882c-.38-.43-1.262-1.157-1.924-1.605l.647-.958c.705.477 1.673 1.266 2.143 1.797l-.866.766zm-1.918-1.6a13.12 13.12 0 0 1-.945-.68 4.337 4.337 0 0 1-.318-.275 1.363 1.363 0 0 1-.13-.144.773.773 0 0 1-.074-.117.626.626 0 0 1-.07-.285h1.157a.53.53 0 0 0-.056-.24c-.017-.034-.033-.054-.036-.059-.007-.009-.004-.003.02.02.044.044.12.11.23.198.214.171.518.392.857.615l-.635.966zm-1.536-1.5c0-.064.013-.155.019-.193.01-.067.022-.156.04-.265.033-.218.081-.52.14-.885.118-.73.28-1.71.456-2.764l1.14.19a668.316 668.316 0 0 0-.455 2.759 121.37 121.37 0 0 0-.176 1.125c-.012.087-.008.072-.008.032h-1.156zm.655-4.107c.35-2.104.774-4.905.939-6.207l1.147.145c-.168 1.324-.594 4.142-.946 6.252l-1.14-.19zm.939-6.206c.084-.673.178-1.297.26-1.768.042-.235.081-.437.117-.59.017-.076.035-.148.054-.209.01-.03.021-.066.036-.102.01-.023.04-.098.099-.171l.903.722a.507.507 0 0 0 .068-.113c.003-.008.003-.01 0 .003a2.029 2.029 0 0 0-.034.129c-.028.125-.064.306-.104.531-.079.449-.17 1.054-.252 1.712l-1.147-.144zm.555-2.826a.6.6 0 0 1 .372-.23.973.973 0 0 1 .144-.018c.076-.004.166-.002.258.001.188.008.442.029.74.058.6.059 1.407.157 2.28.278l-.158 1.145a60.058 60.058 0 0 0-2.234-.272c-.291-.029-.52-.047-.677-.053a1.782 1.782 0 0 0-.148-.002c-.013 0 .001 0 .029-.005a.556.556 0 0 0 .32-.208l-.926-.694zm3.796.089c1.718.24 3.794.497 4.628.57l-.1 1.151c-.867-.075-2.968-.336-4.688-.576l.16-1.145zm4.626.57.818.067-.096 1.153-.818-.069.096-1.152zm2.437.611 5.588 3.543-.62.976-5.587-3.543.619-.976zm5.59 3.544 5.21 3.328-.622.975-5.21-3.329.622-.974zm6.422 5.625c-.043 1.395.376 2.96 1.126 4.388.75 1.426 1.807 2.67 2.993 3.447l-.633.968c-1.383-.906-2.562-2.314-3.384-3.877-.82-1.564-1.308-3.325-1.258-4.961l1.156.035zm4.117 7.834c.659.427 1.77 1.017 2.444 1.276l-.415 1.08c-.767-.295-1.949-.926-2.658-1.386l.63-.97zm2.445 1.276c.32.124.577.224.772.31.183.08.376.174.522.303a.807.807 0 0 1 .287.666c-.01.189-.086.373-.122.466l-1.08-.415c.024-.061.037-.097.046-.123.008-.026.002-.017 0 .012a.353.353 0 0 0 .101.26c.003.002-.04-.032-.219-.111a19.125 19.125 0 0 0-.723-.289l.416-1.079zm1.463 1.736a.593.593 0 0 0-.027.35c.033.19.122.468.317.958l-1.075.426c-.194-.49-.326-.868-.382-1.19a1.74 1.74 0 0 1 .08-.94l1.087.395zm.287 1.303c.636 1.56 1.236 4.092 1.92 7.841l-1.138.207c-.685-3.755-1.268-6.177-1.852-7.612l1.07-.436zm1.919 7.838c.147.782.294 1.516.414 2.064.06.276.114.499.156.657.021.08.038.135.05.17l.005.016a.498.498 0 0 0-.065-.102l-.889.74a.725.725 0 0 1-.104-.172 1.347 1.347 0 0 1-.043-.111 3.908 3.908 0 0 1-.071-.243 17.437 17.437 0 0 1-.168-.706 74.614 74.614 0 0 1-.422-2.1l1.137-.213zm.56 2.805c-.05-.059-.081-.066.004-.015.057.034.141.079.25.132.214.105.495.228.789.344l-.424 1.076c-.317-.125-.627-.26-.874-.382a4.803 4.803 0 0 1-.333-.177 1.184 1.184 0 0 1-.3-.238l.888-.74zm1.02.453c.427.148.678.22.829.243.17.026.038-.037-.096.097l.818.818c-.282.282-.655.265-.9.227-.266-.041-.606-.146-1.03-.293l.38-1.092zm.733.34c-.106.106-.11.211-.105.174.003-.02.007-.079 0-.199-.014-.236-.066-.615-.173-1.2-.212-1.164-.625-3.06-1.319-6.093l1.128-.258c.692 3.03 1.111 4.95 1.329 6.144.108.593.17 1.028.19 1.338.008.153.009.3-.01.433a.832.832 0 0 1-.222.479l-.818-.818zm-1.596-7.317c-.273-1.186-.49-2.251-.564-2.767l1.144-.165c.067.464.274 1.488.546 2.672l-1.126.26zm.165-3.791c.305-.059.787-.126 1.292-.185l.134 1.148c-.498.058-.946.122-1.208.172l-.218-1.135zm1.287-.185c1.673-.209 3.688-.606 5.497-1.061 1.826-.46 3.386-.964 4.181-1.374l.53 1.027c-.924.477-2.598 1.008-4.428 1.468-1.846.465-3.907.872-5.636 1.088l-.144-1.148zm9.689-2.44a3.414 3.414 0 0 0 1.016-.734c.244-.27.305-.468.305-.559h1.156c0 .501-.27.967-.604 1.336-.346.381-.82.727-1.364.995l-.51-1.038zm1.321-1.293a.498.498 0 0 0-.059-.264.498.498 0 0 0-.21-.177c-.266-.139-.754-.238-1.574-.238v-1.156c.862 0 1.585.095 2.108.368.274.142.506.34.667.606.16.265.224.56.224.861h-1.156zm-1.858-.679a9.086 9.086 0 0 1-.966-.07 2.368 2.368 0 0 1-.367-.076.884.884 0 0 1-.213-.096.62.62 0 0 1-.293-.52h1.156c0-.306-.226-.445-.24-.454-.047-.03-.079-.038-.065-.033.02.006.077.02.182.034.202.028.497.05.836.06l-.03 1.155zm-1.839-.763c0-.07.014-.141.017-.159a12.45 12.45 0 0 1 .112-.482c.071-.28.17-.644.284-1.022l1.107.332a24.739 24.739 0 0 0-.348 1.295l-.017.085c-.007.037.001.004.001-.049h-1.156zm.411-1.659c.258-.882.427-2.304.477-3.822.05-1.512-.02-3.059-.214-4.18l1.14-.197c.212 1.226.281 2.858.23 4.415-.052 1.551-.225 3.087-.522 4.108l-1.11-.324zm.263-8.002a23.278 23.278 0 0 0-2.356-6.8c-.529-.982-1.094-1.831-1.656-2.485-.569-.663-1.102-1.088-1.557-1.279l.447-1.066c.691.29 1.364.867 1.987 1.591.63.733 1.24 1.655 1.797 2.69a24.431 24.431 0 0 1 2.477 7.151l-1.139.198zM72.78 36.816c-.46-.2-.716-.237-.875-.216-.126.017-.266.08-.468.319l-.882-.748c.315-.372.693-.65 1.2-.717.474-.063.967.076 1.486.301l-.46 1.061zm-1.34.099-.077.092-.888-.74.077-.093.888.74zm-1.736.134c-.82-.882-2.008-1.023-2.787-.504l-.641-.962c1.328-.885 3.135-.547 4.274.679l-.846.787zm-2.783-.506c-.275.185-.553.366-.892.409-.328.041-.646-.057-.951-.15l.338-1.106c.36.11.43.113.468.109.026-.004.09-.017.388-.22l.649.958zm-1.857.254c-.699-.233-1.468-.042-1.886.415l-.853-.78c.765-.837 2.03-1.09 3.105-.732l-.366 1.097zm-1.893.422c-.191.203-.408.388-.696.486-.288.097-.572.082-.847.04l.176-1.143c.207.032.273.016.3.007.026-.009.087-.036.228-.185l.84.795zm-1.548.525c-.381-.063-.82.096-1.215.504-.391.404-.69 1.012-.76 1.701l-1.15-.117c.096-.938.5-1.79 1.08-2.389.575-.595 1.374-.981 2.232-.84l-.187 1.14zm-1.974 2.198c-.077.856.255 2.037 1.327 4.182l-1.034.517c-1.072-2.144-1.553-3.588-1.445-4.802l1.152.103zm1.33 4.187c.18.368.321.694.4.928.032.096.081.25.082.398a.667.667 0 0 1-.03.202.603.603 0 0 1-.908.325l.613-.981a.556.556 0 0 0-.83.461c0 .06.012.068-.022-.036a7.569 7.569 0 0 0-.344-.79l1.04-.507zm-.409 1.88a4.477 4.477 0 0 1-.251-.15 592.59 592.59 0 0 1-2.155-1.367c-1.385-.884-3.257-2.081-5.28-3.375l.622-.974 5.28 3.373a548.27 548.27 0 0 0 2.144 1.36l.158.098-.518 1.034zm-7.687-4.892c-7.037-4.507-7.475-4.833-9.557-6.877l.81-.825c1.984 1.948 2.322 2.214 9.37 6.728l-.623.974zm-9.558-6.878c-2.508-2.47-4.328-3.963-7.218-5.902l.644-.96c2.952 1.98 4.828 3.518 7.385 6.039l-.811.823zm-7.215-5.9a22.36 22.36 0 0 1-1.51-1.081 5.175 5.175 0 0 1-.444-.387 1.096 1.096 0 0 1-.174-.22c-.02-.034-.095-.167-.084-.35a.593.593 0 0 1 .431-.534l.318 1.111a.56.56 0 0 0 .405-.506c.01-.167-.058-.28-.064-.29-.026-.046-.044-.059-.008-.021.057.058.169.156.34.292.334.266.837.63 1.428 1.021l-.638.965zm-1.85-2.548c.071-.03.145-.044.16-.048l.121-.021c.088-.014.204-.03.343-.05.277-.036.66-.082 1.12-.134.918-.105 2.15-.234 3.474-.364l.113 1.15c-1.32.13-2.546.26-3.457.363-.456.051-.831.097-1.099.132a11.697 11.697 0 0 0-.382.057c-.033.007.008.001.063-.022l-.456-1.063zm5.214-.617a555.64 555.64 0 0 0 3.418-.366 92.646 92.646 0 0 0 1.351-.162l.065-.01-.005.001a.54.54 0 0 0-.11.04l.517 1.035c-.069.034-.133.048-.136.049l-.056.012a15.117 15.117 0 0 1-.423.06c-.262.031-.629.074-1.074.124-.892.1-2.104.229-3.426.367l-.12-1.15zm4.657-.46c-.083.055-.13.12-.13.12l-.021.03.008-.016c.017-.03.043-.081.078-.154.07-.143.167-.351.284-.609.233-.515.54-1.217.863-1.98l1.065.45a86.337 86.337 0 0 1-.875 2.008c-.119.262-.22.48-.297.638a5.448 5.448 0 0 1-.101.199 1.427 1.427 0 0 1-.09.141c-.006.008-.056.077-.143.135l-.641-.962zm1.083-2.611.686-1.61 1.064.454-.687 1.61-1.063-.454zm2.685-3.542.3-.116.417 1.078-.3.116-.417-1.078zm.3-.116c.828-.32 3.316-1.193 5.558-1.915l.355 1.1c-2.232.72-4.698 1.585-5.496 1.893l-.417-1.078zm5.554-1.914 2.895-.956.363 1.098-2.895.956-.363-1.098zm4.268-2.108.598-1.11 1.018.547-.598 1.112-1.018-.549zm.597-1.108c.317-.596.617-1.135.843-1.523.113-.192.211-.354.287-.468.036-.055.076-.113.114-.16a.762.762 0 0 1 .105-.108.582.582 0 0 1 .79.032l-.817.818a.573.573 0 0 0 .59.138c.097-.033.16-.084.174-.096.023-.02.039-.036.045-.042a.231.231 0 0 0 .011-.013l-.012.016-.035.051c-.058.089-.145.23-.254.416-.217.371-.508.895-.82 1.482l-1.021-.543zm2.14-2.226c-.065-.065-.129-.096-.139-.101a.458.458 0 0 0-.044-.02c-.012-.005-.017-.006-.008-.004a12.191 12.191 0 0 0 .5.112c.345.07.814.157 1.316.24l-.187 1.14a38.14 38.14 0 0 1-1.36-.246 13.31 13.31 0 0 1-.447-.098 3.024 3.024 0 0 1-.234-.067.705.705 0 0 1-.065-.03c-.016-.008-.084-.042-.15-.109l.817-.817zm1.627.227.501.084-.192 1.14-.5-.084.191-1.14zm2.997-2.35-.34-3.287 1.15-.12.34 3.288-1.15.12zm-.34-3.284c-.276-2.54-.484-5.015-.484-5.497h1.156c0 .405.199 2.81.477 5.372l-1.15.125zm-.374-5.865c.027.081.043.198.053.263.014.093.03.216.047.36.035.292.079.687.128 1.148.098.924.217 2.125.33 3.316.114 1.191.221 2.375.296 3.267.037.446.067.82.085 1.088.008.133.015.245.017.327.002.04.003.08.002.118a.802.802 0 0 1-.023.167c-.003.01-.034.144-.15.26l-.818-.817c-.116.116-.146.248-.148.254a.547.547 0 0 0-.017.104v-.01l-.001-.037a9.67 9.67 0 0 0-.016-.29 65.58 65.58 0 0 0-.083-1.067c-.074-.886-.182-2.066-.295-3.255a330.866 330.866 0 0 0-.329-3.303A81.26 81.26 0 0 0 63.62.58a14.772 14.772 0 0 0-.043-.334c-.016-.107-.02-.103-.006-.063l1.097-.366zm.784 10.315c-.12.12-.258.15-.276.155a.659.659 0 0 1-.21.02 2.993 2.993 0 0 1-.192-.014 15.085 15.085 0 0 1-.56-.066 58.179 58.179 0 0 1-1.742-.266l.19-1.14c.66.11 1.264.2 1.705.26.222.03.396.05.515.061.06.006.097.008.114.009h-.02a.497.497 0 0 0-.078.014c-.012.003-.145.031-.263.15l.817.817zm-2.98-.171a35.68 35.68 0 0 0-1.72-.248 9.753 9.753 0 0 0-.533-.05 1.575 1.575 0 0 0-.121-.003c-.01 0-.004 0 .014-.002a.533.533 0 0 0 .183-.068l-.595-.991c.11-.066.218-.081.242-.085.044-.006.087-.009.12-.01.066-.002.143 0 .22.005.158.009.364.028.601.055.477.055 1.106.144 1.779.256l-.19 1.14zm-2.177-.37c.038-.024.064-.046.07-.052a.289.289 0 0 0 .018-.016l-.014.015a3.54 3.54 0 0 0-.102.126 18.89 18.89 0 0 0-.366.49c-.301.412-.695.97-1.108 1.577l-.956-.652c.42-.614.82-1.182 1.13-1.606.154-.212.287-.39.39-.522.051-.065.098-.123.139-.17.02-.023.042-.048.066-.072.011-.012.064-.066.138-.11l.595.991zm-1.506 2.145a104.09 104.09 0 0 1-1.152 1.624c-.159.218-.296.403-.402.542-.053.068-.1.129-.14.177a1.205 1.205 0 0 1-.147.155l-.74-.888c-.035.028-.044.045-.005-.004.028-.032.066-.08.114-.144.098-.127.229-.303.384-.518.312-.428.716-.998 1.14-1.605l.948.66zm-1.875 2.524a1.865 1.865 0 0 1-.284.155 7.735 7.735 0 0 1-.375.159c-.286.114-.647.244-1.023.36l-.34-1.105c.345-.106.677-.226.936-.33.13-.05.237-.097.317-.134.095-.044.114-.058.096-.046l.673.941zm-1.671.67c-.848.28-3.16 1.174-5.302 2.03-1.067.427-2.084.842-2.846 1.162-.382.16-.696.295-.92.396a7.34 7.34 0 0 0-.304.145c-.027.015.025-.01.08-.065l-.818-.818c.068-.068.147-.11.16-.12l.112-.058c.077-.039.178-.086.296-.139.237-.106.561-.246.946-.407a193.5 193.5 0 0 1 2.865-1.169c2.133-.853 4.48-1.761 5.369-2.055l.362 1.098zm-9.292 3.668c.055-.055.074-.101.046-.05a2.718 2.718 0 0 0-.065.126c-.057.119-.133.286-.223.493-.18.411-.409.96-.648 1.55l-1.071-.435c.24-.593.474-1.153.66-1.578.092-.212.174-.394.241-.533.033-.068.066-.132.095-.185.016-.029.07-.128.147-.206l.818.818zm-.887 2.112a20.381 20.381 0 0 1-.74 1.674 9.474 9.474 0 0 1-.336.616c-.09.15-.205.326-.329.44l-.781-.853c-.014.013.026-.028.12-.184.082-.136.182-.319.292-.538.22-.439.472-1 .697-1.576l1.077.421zm-1.399 2.724c-.301.285-.74.421-1.403.55-.69.133-1.765.279-3.47.49l-.142-1.147c1.715-.213 2.748-.354 3.392-.479.674-.13.798-.225.83-.255l.793.841zm-4.874 1.04c-1.134.14-2.23.282-3.078.401-.425.06-.785.114-1.055.158a12.064 12.064 0 0 0-.428.078l-.032.007-.345-1.103c.122-.038.357-.08.619-.123.282-.046.651-.101 1.08-.162.856-.12 1.96-.264 3.1-.403l.14 1.148zm-4.603.647c-.637.187-1.152.495-4.092 2.63l-.68-.935c2.864-2.08 3.57-2.547 4.448-2.804l.324 1.11zm-4.09 2.63c-1.223.893-1.919 1.395-2.421 1.664a2.635 2.635 0 0 1-.746.281 3.444 3.444 0 0 1-.687.051v-1.156c.22 0 .345-.006.462-.029.108-.021.233-.063.425-.166.413-.22 1.028-.66 2.284-1.579l.682.933zm-3.863 1.996c-1.254-.019-4.295-.3-6.2-.598l.18-1.143c1.866.293 4.852.567 6.038.585l-.018 1.156zm-6.09-1.988h2.961v1.157h-2.961v-1.157zm2.92.002c1.028-.073 1.4-.197 1.555-.277a.793.793 0 0 0 .175-.127c.075-.065.2-.177.395-.266l.481 1.051a.469.469 0 0 0-.118.089c-.082.07-.206.179-.403.28-.374.193-.943.328-2.003.403l-.082-1.153zm2.118-.667a.744.744 0 0 1 .367-.066c.091.005.174.025.239.044.128.037.266.095.389.149.268.119.534.25.838.362.631.231 1.09.247 1.41-.042l.775.857c-.844.764-1.902.52-2.583.27-.352-.129-.692-.294-.909-.39a2.137 2.137 0 0 0-.24-.095c-.022-.007-.016-.003.008-.002.02.002.101.005.201-.042l-.495-1.045zm3.239.45c.206-.19.428-.535.652-1.013.22-.466.418-1.004.6-1.535.176-.513.347-1.049.492-1.442.073-.2.15-.39.23-.544.04-.077.09-.16.148-.237a.82.82 0 0 1 .302-.248l.482 1.051a.413.413 0 0 0 .104-.067c.017-.016.025-.027.026-.027 0-.002-.002.003-.01.014a.826.826 0 0 0-.025.047 3.9 3.9 0 0 0-.172.412c-.141.38-.293.86-.484 1.417-.185.54-.4 1.126-.646 1.651-.242.513-.54 1.025-.916 1.372l-.783-.851zm2.411-5.013c.241-.118.75-.283 1.356-.464a75.46 75.46 0 0 1 2.26-.627c1.686-.443 3.608-.904 4.92-1.157l.22 1.136c-1.276.246-3.17.7-4.845 1.14-.837.22-1.613.434-2.225.616-.634.189-1.04.328-1.179.395l-.507-1.039zm9.607-3.28.084-.361 1.126.262-.084.36-1.126-.261zm.082-.35c.185-.873.406-1.902.479-2.267l1.134.227c-.075.374-.298 1.415-.482 2.28l-1.131-.24zm.478-2.262c.043-.227.109-.454.188-.647.039-.096.086-.193.14-.282a.973.973 0 0 1 .255-.283l.672.94c.06-.042.074-.077.057-.049a.805.805 0 0 0-.054.112 2.316 2.316 0 0 0-.122.425l-1.136-.216zm.553-1.19c.061-.05.128-.082.142-.09a9.927 9.927 0 0 1 .374-.165c.22-.09.52-.208.873-.346.71-.275 1.648-.63 2.62-.992 1.935-.721 4.032-1.481 4.707-1.69l.343 1.104c-.637.197-2.7.944-4.646 1.67-.97.36-1.903.713-2.605.986-.352.137-.643.252-.851.338a8.606 8.606 0 0 0-.29.125c-.024.013.017-.005.065-.045l-.732-.894zm8.723-3.286c.154-.045.394-.17.738-.426.337-.252.742-.607 1.221-1.077l.81.825c-.5.49-.946.885-1.339 1.178-.386.289-.755.506-1.101.609l-.329-1.109zm1.961-1.505c1.012-.984 1.724-1.748 2.15-2.292.216-.276.337-.469.392-.588.027-.06.023-.07.02-.044A.381.381 0 0 0 54.89 8l.898-.73c.154.19.178.408.163.568-.014.155-.065.3-.12.421-.112.244-.3.522-.534.821-.475.607-1.232 1.414-2.254 2.408l-.806-.829zm2.64-2.677c.062.084.126.11.076.081a1.7 1.7 0 0 0-.135-.068 8.954 8.954 0 0 0-.563-.233c-.476-.182-1.111-.4-1.786-.61l.343-1.104a32.3 32.3 0 0 1 1.855.634c.251.095.471.186.64.265.085.04.166.08.235.121.043.026.169.1.26.22l-.925.694zm-2.41-.83a42.043 42.043 0 0 1-2.174-.737l.418-1.078c.381.148 1.175.42 2.103.712l-.348 1.103zm-2.213-2.06c.635-.3 2.313-1.035 4.246-1.87l.458 1.062c-1.938.837-3.597 1.564-4.212 1.854l-.492-1.046zM62.885 11.4a2.109 2.109 0 0 0 1.841-.588l.818.817a3.265 3.265 0 0 1-2.85.911l.191-1.14zM50.292 6.414a.893.893 0 0 1-.29-.176.668.668 0 0 1-.216-.492.677.677 0 0 1 .2-.473.926.926 0 0 1 .267-.182l.492 1.046c-.01.004.022-.008.064-.05a.48.48 0 0 0 .133-.335.488.488 0 0 0-.15-.359c-.05-.047-.09-.06-.082-.057l-.418 1.078zm-10.924 13.87c.53-.103.949-.508 1.071-1.033l1.126.262c-.225.97-1 1.716-1.977 1.905l-.22-1.135zm-19.336 8.864c-.85-.138-.748-1.389.112-1.389v1.157c.562 0 .628-.819.073-.909l-.185 1.141zM56.756 47.63a2.627 2.627 0 0 1 1.212 2.297l-1.156-.036a1.47 1.47 0 0 0-.678-1.286l.622-.975zm7.97-36.819a2.277 2.277 0 0 0 .655-1.844l1.15-.12a3.433 3.433 0 0 1-.987 2.782l-.818-.817zM45.9 20.494a3.578 3.578 0 0 1 1.999-1.932l.417 1.078a2.422 2.422 0 0 0-1.352 1.308l-1.064-.454zm-4.251-4.953a.306.306 0 0 0-.214.242l-1.124-.27c.12-.5.448-.871.928-1.053l.41 1.081zm29.714 21.467a1.104 1.104 0 0 1-1.662.04l.852-.782a.052.052 0 0 0-.078.002l.888.74zm-27.025 3.207c.575.048 1.13.235 1.619.544l-.62.976a2.422 2.422 0 0 0-1.095-.367l.096-1.153zM68.35 63.428a.91.91 0 0 1 .151-.663.908.908 0 0 1 .579-.361l.218 1.135a.254.254 0 0 0 .146-.105.253.253 0 0 0 .051-.17l-1.144.164zM56.648 15.575a2.422 2.422 0 0 0 1.373-1.152l1.018.549a3.578 3.578 0 0 1-2.028 1.7l-.363-1.097zM8.381 31.355a1.985 1.985 0 0 1 .857 2.78l-1.001-.578a.828.828 0 0 0-.358-1.16l.502-1.042zM29.907 23.4a2.11 2.11 0 0 1-2.19.33l.453-1.064a.953.953 0 0 0 .99-.15l.747.884zm-16.368-5.682-.175 1.143.175-1.143zm7.117 1.774.343-1.104.009.003-.352 1.101zm8.207 3.106.619-.977.022.014.022.015-.663.948zm-13.568-.814.33 1.109-.01.003-.32-1.112zm-2.514 3.808-1.108.33 1.108-.33zm5.36 3.975.41-1.082.005.002-.414 1.08zm16.97 3.77-.103 1.152h-.005l.108-1.151zm5.582 2.459-.622.975-.006-.004.628-.971zm-9.224.573.224-1.134h.001l-.225 1.134zM9.288 29.252l-.526 1.03.526-1.03zm-5.361-3.955.953-.655.003.004-.956.65zm32.663 1.497.634-.967-.634.967zm3.567 3.087.642-.962.006.004-.648.958zm-2.55-.536-.533-1.027.006-.003.526 1.03zm-1.683-.647-.705.916h-.001l.706-.916zM33.836 27.2l-.617.978-.008-.005-.008-.006.633-.967zm6.063 6.968-.624.974-.005-.004.628-.97zm-1.11-3.918-.19 1.14-.026-.004-.026-.006.242-1.13zm-26.858 1.608.935-.68.006.008-.941.672zm4.473 3.77-.64.964-.004-.003.644-.96zm9.594 3.9-.194 1.14h-.006l.2-1.14zm7.745.112-.19-1.14.007-.002.007-.001.176 1.143zm-.776 6.654 1.122.277v.003l-1.122-.28zm-3.716 9.298.57 1.006-.002.002-.568-1.008zM25 56.166v1.157h-.009L25 56.165zm-5.028-.406-.246 1.13-.008-.002.254-1.128zm-6.71-2.366.509-1.039.001.001-.51 1.038zm-6.396-4.326-.813.822-.008-.008.821-.814zm-.628-7.135 1.064.453-.001.001-1.063-.454zM62.8 45.74l.778-.856.02.019.02.02-.818.817zm.425 1.737-1.154.072v-.012l1.154-.06zm-8.965-4.122-.62.976-.002-.001.622-.975zm17.598-5.028-1.08.415 1.08-.415zm1.017-.037-1.08.417-.002-.006 1.082-.41zm4.658 2.44 1.056-.471.004.011-1.06.46zm1.756 7.58 1.155-.048-1.155.047zm-.887 6.654-1.09-.387 1.09.387zm-.518 2.68.567-1.008.059.033.054.04-.68.935zm.943-.832-1.088-.391.007-.02.007-.018 1.074.43zm1.109-.296-.148-1.146.011-.002.012-.001.125 1.15zm1.497 1.036-.77-.862.005-.005.006-.005.76.872zm-10.814 2.81.128 1.148h-.002l-.126-1.149zm-1.608-1.331.308 1.114-.009.002-.009.003-.29-1.12zm1.479.018.332-1.108.003.001-.335 1.107zm.906-.018.98.612-.005.008-.975-.62zm-1.498-1.165-.373 1.094.374-1.094zm-7.024-3.106.62-.976.01.007-.63.97zm-3.438-5.822-1.151.105v-.004l1.151-.101zm2.126.166.595-.991.013.008.014.008-.622.975zm1.035 1.035 1.067.445-.003.007-1.064-.452zm.222 1.09-.135 1.15-.015-.003-.014-.002.164-1.144zm.887-1.053 1.057.469-.002.005-1.055-.474zm-.998-7.098-1.03.526-.001-.002 1.03-.524zm-1.017-5.97-.817-.818.817.817zm1.682.018.967-.635.006.01-.973.625zm.998 2.07 1.06-.463.003.006-1.063.457zm1.405 1.46 1.085.4-.005.013-1.08-.413zm-1.164-3.382-1.003.575-.006-.01 1.009-.565zm.48-1.72-.452-1.063.018-.008.02-.008.415 1.08zm1.165.13-.59.995-.01-.007.6-.988zm1.534 2.514-1.063.453-.002-.003 1.065-.45zm1.553 2.459.617.977-.007.005-.007.004-.603-.986zm-.702-2.847-1.058.468-.002-.006 1.06-.462zm-.629-2.422.957.65-.01.014-.01.013-.937-.677zM59.383 48.32l1.151-.102-1.151.102zm.48-.287-.614.98-.01-.006-.01-.007.633-.967zm9.272 12.491.126 1.15-.126-1.15zm-.9-.365-.89.736-.006-.007-.006-.007.903-.722zm13.32-2.712-.76-.871.76.871zM28.779 22.9l-.955-.652.955.652zm-2.56.604-.393 1.087-.004-.002.398-1.085zm18.96 11.18.713.91-.713-.91zm.498-.004.596-.99-.596.99zm-1.117-.71-.712.911.712-.91zm.07.453-.919-.702.919.702zm-10.714-8.737-.664-.946.664.946zm.952-.005.612-.98-.612.98zm8.947 12.227-.71.913.71-.913zm-.086.224-.002 1.157.002-1.157zM28.92 55.78l.568 1.007-.568-1.007zm14.953-20.52-.818-.818.818.818zm-1.944.21.624-.973-.624.973zm-5.488-2.014-.102 1.152.102-1.152zm1.364.47.628-.97-.628.97zm-24.09-17.351c2.13.326 3.93.77 7.284 1.813l-.687 2.208c-3.3-1.026-4.976-1.433-6.948-1.735l.35-2.286zm7.293 1.816c1.157.37 3.092 1.067 4.798 1.711.855.323 1.662.636 2.293.892.314.128.592.244.812.341.192.085.417.188.57.286l-1.237 1.954c.016.01-.05-.028-.268-.124-.19-.084-.442-.19-.747-.314-.607-.246-1.395-.552-2.24-.872-1.696-.64-3.587-1.32-4.685-1.671l.704-2.203zm8.518 3.26c.684.479.511 1.23.462 1.392a1.887 1.887 0 0 1-.254.509l-1.91-1.304c.033-.047-.013.005-.05.126a1.007 1.007 0 0 0-.028.443c.04.258.183.538.454.728l1.326-1.895zm-3.704 2.938c-2.157-.79-4.302-1.352-6.139-1.642-1.883-.296-3.29-.282-4.058-.054l-.66-2.217c1.285-.382 3.121-.321 5.078-.013 2.004.316 4.295.919 6.575 1.755l-.796 2.171zm-10.208-1.693c-.787.226-1.285.616-1.546 1.012-.25.38-.333.835-.178 1.355l-2.217.658c-.345-1.161-.169-2.324.464-3.284.621-.945 1.63-1.617 2.84-1.964l.637 2.223zm-1.725 2.366c.287.963 1.288 1.944 4.663 3.223l-.82 2.163c-3.354-1.272-5.421-2.583-6.059-4.726l2.216-.66zm4.667 3.225c5.043 1.934 10.243 3.097 16.663 3.7l-.216 2.302c-6.594-.618-12.004-1.821-17.275-3.843l.828-2.159zm16.658 3.699 1.33.119-.205 2.303-1.33-.119.205-2.303zm3.22.77 2.888 1.87-1.257 1.94-2.889-1.87 1.257-1.94zm2.881 1.865c1.452.927 2.694 1.773 3.21 2.173l-1.42 1.827c-.423-.329-1.586-1.126-3.034-2.05l1.244-1.95zm2.412 4.468c-.86-.002-2.972-.251-5.3-.585-2.367-.339-5.073-.782-7.183-1.2l.45-2.27c2.058.409 4.72.846 7.06 1.181 2.38.341 4.314.56 4.976.561l-.003 2.313zm-12.482-1.786c-8.866-1.75-16.666-4.255-22.483-7.22l1.05-2.06c5.57 2.838 13.15 5.287 21.881 7.012l-.448 2.268zm-22.483-7.22c-2.783-1.42-4.748-2.805-5.79-4.335l1.91-1.302c.695 1.02 2.205 2.186 4.93 3.576l-1.05 2.06zM2.974 25.95c-.967-1.408-1.431-2.853-1.298-4.24.135-1.404.868-2.585 1.981-3.462 2.17-1.709 5.814-2.325 10.058-1.674l-.351 2.286c-3.946-.606-6.826.062-8.275 1.204-.697.55-1.046 1.185-1.111 1.868-.068.7.15 1.612.902 2.71L2.974 25.95zm34.25-.123c1.034.678 2.506 1.756 3.713 2.686.605.466 1.156.905 1.56 1.245.2.169.379.325.514.456.065.063.142.14.21.221.032.04.085.105.136.19.021.036.175.28.175.623h-2.313c0 .33.146.553.154.565a.8.8 0 0 0 .071.103l-.038-.037a8.695 8.695 0 0 0-.399-.352c-.368-.31-.89-.726-1.481-1.182-1.187-.914-2.608-1.952-3.571-2.586l1.27-1.932zm6.308 5.42a1.176 1.176 0 0 1-1.371 1.17c-.11-.016-.2-.045-.255-.065a3.04 3.04 0 0 1-.517-.27 64.666 64.666 0 0 1-1.88-1.244l1.296-1.916c.978.662 1.51 1.015 1.795 1.19.168.104.168.092.097.067a1.108 1.108 0 0 0-.678-.01 1.137 1.137 0 0 0-.8 1.079h2.313zm-4.016-.405c-.639-.426-.912-.541-1.05-.57-.029-.006-.071-.033-.333.101l-1.053-2.059c.533-.272 1.128-.457 1.856-.306.621.129 1.226.485 1.863.91l-1.283 1.924zm-1.377-.472c-.112.058-.342.18-.612.236-.338.07-.656.029-.95-.087a3.162 3.162 0 0 1-.653-.375c-.195-.138-.43-.32-.705-.531l1.411-1.832c.288.222.483.371.631.476.159.113.192.122.163.11a.705.705 0 0 0-.369-.025c-.052.011-.081.024-.073.021.01-.004.034-.015.092-.046l1.065 2.053zm-2.921-.758c-.638-.492-1.546-1.15-1.999-1.434l1.233-1.957c.546.344 1.523 1.054 2.178 1.56l-1.412 1.831zm-2.015-1.445a9.517 9.517 0 0 1-.714-.513 4.031 4.031 0 0 1-.271-.235 1.777 1.777 0 0 1-.153-.165 1.31 1.31 0 0 1-.122-.18c-.029-.052-.151-.27-.151-.577h2.313a1.14 1.14 0 0 0-.142-.549 1.017 1.017 0 0 0-.095-.142c-.032-.04-.055-.06-.047-.053.01.01.045.041.113.095.13.105.322.245.534.384l-1.265 1.935zm-1.411-1.67c0-.311.125-.532.153-.582.047-.085.096-.149.125-.184.058-.073.12-.136.162-.177.09-.088.199-.182.303-.269.214-.176.48-.38.717-.546l1.329 1.892a9.68 9.68 0 0 0-.57.435c-.085.07-.139.118-.164.143-.015.015 0 .001.028-.033a1.098 1.098 0 0 0 .23-.679h-2.313zm3.688-1.797c.417.26 1.05.67 1.744 1.126l-1.269 1.933c-.693-.454-1.307-.853-1.7-1.098L35.48 24.7zm7.02 6.46c1.218.78 2.294 1.524 2.773 1.9l-1.425 1.82c-.391-.306-1.393-1.002-2.594-1.771l1.245-1.948zm3.048 3.965c-.206.27-.525.62-.858.952l-1.635-1.636c.3-.3.539-.567.656-.721l1.837 1.405zm-4.243 1.318-2.03-1.301 1.247-1.947 2.03 1.3-1.247 1.948zm-2.035-1.305a67.24 67.24 0 0 1-2.206-1.485c-.284-.202-.53-.383-.712-.527a3.861 3.861 0 0 1-.26-.224 1.636 1.636 0 0 1-.157-.173 1.183 1.183 0 0 1-.26-.742h2.311a1.128 1.128 0 0 0-.228-.68.804.804 0 0 0-.065-.073l.026.022.074.061c.132.105.337.257.61.45.54.383 1.293.892 2.125 1.431l-1.258 1.94zm-3.596-3.15c0-.276.094-.485.131-.563.049-.103.105-.19.148-.253.088-.127.193-.25.29-.358.2-.22.453-.463.701-.685.25-.22.52-.443.762-.614.117-.083.255-.174.396-.246a1.74 1.74 0 0 1 .286-.118c.088-.027.338-.098.644-.032l-.485 2.261a1.07 1.07 0 0 0 .515-.017.696.696 0 0 0 .074-.027l.024-.011c.003-.001-.007.003-.03.018a1.987 1.987 0 0 0-.088.06c-.15.105-.352.269-.561.455a7.28 7.28 0 0 0-.525.51 2.27 2.27 0 0 0-.094.11l-.006.008-.002.003.002-.004.007-.01a.92.92 0 0 0 .081-.191c.018-.06.042-.164.042-.297h-2.312zm3.306-2.879c.174.03.314.097.32.1.046.02.09.042.125.06.072.038.157.086.247.138.184.106.427.252.71.424.567.348 1.318.819 2.117 1.33l-1.245 1.948c-.791-.505-1.528-.968-2.079-1.305-.276-.169-.5-.302-.657-.393a5.037 5.037 0 0 0-.165-.092c-.017-.009-.016-.008-.003-.002l.054.022c.016.006.092.034.195.051l.38-2.281zm-26.108 2.077c.042.059.207.242.533.55.303.286.689.627 1.113.985.854.72 1.82 1.471 2.53 1.947l-1.288 1.92c-.806-.54-1.845-1.35-2.733-2.1a29.943 29.943 0 0 1-1.209-1.07c-.319-.301-.64-.624-.828-.888l1.882-1.344zm4.172 3.48c2.796 1.858 6.049 3.18 9.153 3.724l-.399 2.278c-3.439-.602-6.989-2.053-10.034-4.076l1.28-1.926zm9.148 3.723c.776.132 2.25.224 3.765.247 1.526.023 2.934-.026 3.596-.137l.38 2.281c-.89.149-2.486.191-4.01.168-1.535-.023-3.158-.116-4.12-.28l.389-2.279zm7.375.108c.238-.036.475-.072.656-.093.084-.01.191-.021.29-.024a1.43 1.43 0 0 1 .267.016 1.163 1.163 0 0 1 .988 1.151h-2.312a1.15 1.15 0 0 0 .953 1.132c.058.01.103.012.122.012h.043c.012 0-.008 0-.081.01-.134.015-.331.044-.574.082l-.352-2.286zm2.201 1.05c0 .086-.01.155-.01.158a1.266 1.266 0 0 1-.02.104l-.008.039-.027.112-.097.403-.354 1.459c-.298 1.225-.71 2.908-1.163 4.749l-2.245-.553a1877.71 1877.71 0 0 0 1.633-6.694l.003-.012.001-.005v.003l-.003.01a.843.843 0 0 0-.012.07c0 .004-.01.072-.01.157h2.312zm-1.68 7.027c-.96 3.86-1.526 6.064-2.057 7.397-.275.688-.57 1.226-.96 1.666-.394.445-.827.722-1.25.961l-1.14-2.012c.345-.195.517-.322.66-.483.147-.166.321-.436.541-.988.458-1.15.982-3.16 1.963-7.1l2.244.559zM29.82 56.6l-.33.187-1.136-2.014.33-.187L29.82 56.6zm-2.372.722H25V55.01h2.447v2.313zm-2.456 0c-2.63-.018-3.705-.093-5.265-.433l.492-2.26c1.324.29 2.208.363 4.79.381l-.017 2.313zm-5.273-.434c-2.64-.593-4.556-1.27-6.967-2.457l1.021-2.075c2.248 1.106 3.991 1.722 6.453 2.276l-.507 2.256zm-6.965-2.456c-2.869-1.406-4.923-2.785-6.7-4.542l1.626-1.644c1.55 1.533 3.378 2.78 6.092 4.11l-1.018 2.076zm-6.708-4.55c-1.125-1.134-1.978-2.19-2.108-3.641-.12-1.346.414-2.835 1.237-4.762l2.127.908c-.859 2.01-1.12 2.97-1.06 3.649.05.572.353 1.116 1.446 2.218l-1.642 1.628zm-.871-8.402c.908-2.135 2.153-4.77 3.213-6.87.53-1.05 1.02-1.98 1.402-2.653.19-.334.365-.625.512-.842.07-.104.156-.222.249-.326.044-.05.119-.129.22-.204.055-.043.328-.252.736-.252v2.312c.387 0 .633-.197.658-.216.069-.052.107-.095.11-.098.009-.01-.01.01-.06.083-.095.14-.235.37-.414.686a62.109 62.109 0 0 0-1.348 2.551c-1.043 2.068-2.266 4.655-3.15 6.735l-2.128-.906zm6.332-11.147c.327 0 .57.13.66.183.121.07.22.148.295.213.15.132.29.29.405.45l-1.87 1.36a.695.695 0 0 0-.042-.053l-.02-.02a.631.631 0 0 0 .08.054 1.037 1.037 0 0 0 .492.125v-2.312zm43.141 8.687c2.312 1.489 4.46 2.882 6.054 3.926.797.522 1.459.958 1.935 1.276.237.158.432.29.576.389.103.071.27.185.367.274l-1.556 1.711c.047.043.046.036-.124-.081-.13-.09-.314-.214-.548-.37-.467-.313-1.121-.744-1.916-1.264-1.59-1.04-3.731-2.43-6.04-3.917l1.252-1.944zm8.972 5.903c.64.64.71 1.502.762 2.496l-2.31.12c-.027-.534-.06-.803-.097-.954-.016-.064-.026-.079-.02-.068a.19.19 0 0 0 .03.041l1.635-1.635zm.761 2.483c.03.471.033.882.005 1.2a2.392 2.392 0 0 1-.099.528 1.38 1.38 0 0 1-.22.42 1.205 1.205 0 0 1-.95.467v-2.313c-.475 0-.762.28-.873.422-.105.135-.145.255-.154.282-.021.065-.015.078-.007-.01a6.235 6.235 0 0 0-.01-.852l2.308-.144zm-1.264 2.615c-.204 0-.36-.056-.374-.061a1.34 1.34 0 0 1-.225-.098 5.646 5.646 0 0 1-.193-.106c-.14-.08-.332-.195-.566-.336-.47-.284-1.13-.691-1.934-1.191-1.607-1-3.796-2.38-6.183-3.897l1.24-1.952a817.13 817.13 0 0 0 6.165 3.886c.8.498 1.452.9 1.908 1.175a28.38 28.38 0 0 0 .63.37l-.026-.013a.97.97 0 0 0-.085-.032c-.007-.002-.158-.057-.357-.057v2.312zm-9.477-5.69c-5.267-3.364-7.963-5.084-9.342-5.97a75.684 75.684 0 0 1-1.259-.819 3.502 3.502 0 0 1-.26-.19 1.303 1.303 0 0 1-.213-.22 1.177 1.177 0 0 1-.237-.708h2.313c0-.294-.111-.527-.226-.68-.08-.107-.158-.169-.162-.172-.021-.018-.014-.01.082.055.174.118.52.344 1.212.788 1.375.884 4.067 2.602 9.337 5.967l-1.245 1.949zm-11.31-7.907c0-.29.108-.505.131-.552.042-.086.088-.157.12-.204a3.36 3.36 0 0 1 .214-.274c.143-.17.327-.366.516-.557.37-.376.834-.81 1.155-1.062l1.427 1.82c-.208.163-.591.517-.935.866a8.57 8.57 0 0 0-.4.43c-.049.056-.066.08-.066.08a.758.758 0 0 0 .044-.078c.006-.012.106-.2.106-.469h-2.313zm3.944-2.735c.956.576 4.397 2.77 8.374 5.33l-1.252 1.945c-3.993-2.571-7.396-4.74-8.314-5.293l1.192-1.982zm24.31.779c1.091.736 1.717 1.783 2.355 3.446l-2.159.829c-.581-1.516-.99-2.022-1.489-2.358l1.293-1.917zm2.355 3.445c.087.227.16.404.224.54.063.139.107.216.132.254.028.044.006-.004-.08-.07a.87.87 0 0 0-.523-.17v2.312c-.745 0-1.162-.543-1.338-.815-.203-.312-.386-.734-.573-1.22l2.158-.83zm-.247.553c.082 0-.058-.018-.25.09a.91.91 0 0 0-.317.303.848.848 0 0 0-.126.335c-.017.127.013.17-.021.04a5.2 5.2 0 0 0-.18-.526l2.157-.833c.107.277.2.54.262.78.056.217.118.527.073.855a1.419 1.419 0 0 1-.71 1.06c-.34.192-.694.209-.888.209v-2.313zm-.897.236a9.219 9.219 0 0 1-.3-.948c-.067-.264-.144-.615-.144-.904h2.312c0-.037-.003-.026.011.056.013.07.033.163.061.273.057.222.137.476.223.702l-2.162.82zm-.444-1.852c0-.578.22-1.125.493-1.523.141-.206.326-.416.555-.584.222-.163.564-.344.995-.344v2.313a.734.734 0 0 0 .266-.048.475.475 0 0 0 .108-.057c.026-.019.014-.016-.016.027a.604.604 0 0 0-.07.14c-.019.053-.019.08-.019.076H71.35zm2.043-2.45c.642 0 1.202.322 1.608.632.436.332.864.78 1.27 1.288.812 1.02 1.632 2.402 2.319 3.94l-2.112.943c-.626-1.401-1.35-2.606-2.015-3.44-.335-.42-.63-.714-.864-.893-.264-.2-.321-.158-.206-.158v-2.313zm5.201 5.871c1.146 2.64 1.734 5.127 1.851 7.992l-2.31.094c-.105-2.569-.626-4.777-1.662-7.165l2.121-.92zm1.851 7.992c.116 2.852-.117 4.742-.953 7.09l-2.179-.776c.717-2.015.928-3.6.822-6.22l2.31-.094zm-.953 7.088c-.367 1.037-.538 1.58-.594 1.873-.03.154 0 .107-.028-.026a.872.872 0 0 0-.418-.56l-1.134 2.015a1.44 1.44 0 0 1-.708-.967c-.073-.333-.03-.659.017-.9.096-.497.333-1.211.686-2.208l2.18.773zm-.927 1.359a1.011 1.011 0 0 0-.617-.195.826.826 0 0 0-.293.058c-.08.033-.094.057-.054.021a.727.727 0 0 0 .1-.112c.035-.047.043-.071.039-.06l2.176.783a2.867 2.867 0 0 1-.777 1.117c-.15.133-.356.287-.604.39-.19.078-.775.272-1.33-.132l1.36-1.87zm-.81-.326c.135-.34.387-.515.454-.561.104-.071.203-.118.27-.146a2.96 2.96 0 0 1 .407-.136c.26-.07.58-.129.903-.17l.296 2.293a5.06 5.06 0 0 0-.608.112c-.075.02-.097.03-.083.024a1.014 1.014 0 0 0 .278-.202c.061-.063.16-.18.23-.355l-2.148-.86zm2.057-1.016c.434-.047.842-.076 1.223-.028.435.056.775.202 1.094.405l-1.242 1.951a.534.534 0 0 0-.091-.05.212.212 0 0 0-.053-.012c-.09-.011-.264-.012-.681.033l-.25-2.299zm2.502 2.951-.12.106-1.52-1.744.121-.105 1.52 1.743zm-.109.095c-.44.395-1.154.719-1.865.987-.763.288-1.703.574-2.733.842a50.895 50.895 0 0 1-6.859 1.268l-.255-2.298a48.6 48.6 0 0 0 6.533-1.208c.98-.255 1.836-.518 2.498-.768.713-.269 1.053-.469 1.14-.546l1.541 1.723zm-11.46 3.098-1.484.162-.251-2.299 1.485-.162.25 2.299zm-3.412-.63a2.124 2.124 0 0 1-.43-.834 1.516 1.516 0 0 1 .23-1.222c.224-.324.534-.513.771-.628.25-.121.533-.212.818-.286l.58 2.239a2.305 2.305 0 0 0-.392.129c-.07.034.025.006.124-.138a.797.797 0 0 0 .122-.62c-.03-.129-.08-.164-.017-.085l-1.806 1.444zm1.372-2.965c.744-.205 1.353-.204 2.118.026l-.664 2.214c-.345-.103-.51-.101-.84-.01l-.614-2.23zm2.121.026c.144.044.235.068.295.082.066.014.047.004-.017.005a.844.844 0 0 0-.407.122.828.828 0 0 0-.276.259l1.951 1.241a1.49 1.49 0 0 1-.496.489 1.472 1.472 0 0 1-.732.201c-.346.006-.715-.103-.988-.185l.67-2.214zm-.41.476c.027-.044-.103.133-.073.431a.797.797 0 0 0 .267.54c.012.009-.04-.032-.25-.12a13.181 13.181 0 0 0-.834-.309l.747-2.188c.386.131.718.252.99.367.258.11.536.244.768.425.243.189.56.529.612 1.055.048.477-.154.846-.266 1.024l-1.96-1.225zm-.89.542c-1.153-.394-2.68-1.014-4.043-1.617-1.338-.592-2.622-1.213-3.237-1.613l1.259-1.94c.438.285 1.557.838 2.914 1.438 1.33.589 2.789 1.18 3.854 1.544l-.747 2.188zm-7.27-3.224c-2.099-1.333-3.737-4.144-3.97-6.693l2.303-.21c.172 1.886 1.456 4.03 2.906 4.951l-1.24 1.952zm-3.97-6.697-.055-.618 2.303-.203.055.618-2.304.203zm2.189-1.987c.341.213 1.04.675 1.683 1.06l-1.19 1.984c-.652-.391-1.468-.927-1.719-1.084l1.226-1.96zm1.71 1.078c.43.274.812.538 1.073.799a1.8 1.8 0 0 1 .418.615c.126.326.133.694-.01 1.04l-2.135-.89a.937.937 0 0 0-.012.686c.059.15.134.213.104.184a1.89 1.89 0 0 0-.2-.161 9.713 9.713 0 0 0-.482-.324l1.244-1.95zm1.477 2.46a.795.795 0 0 0-.053.164c-.005.025.006-.014-.01-.096a.728.728 0 0 0-.21-.368.747.747 0 0 0-.406-.205l-.327 2.29a1.569 1.569 0 0 1-.874-.421 1.588 1.588 0 0 1-.448-.827c-.108-.52.028-1.036.2-1.44l2.128.904zm-.707-.508a.737.737 0 0 0-.348.052.674.674 0 0 0-.259.173c-.01.012.014-.014.075-.127.058-.108.132-.26.23-.477l2.109.947c-.194.43-.397.856-.653 1.156a1.656 1.656 0 0 1-.648.477c-.297.117-.572.12-.776.095l.27-2.296zm-.305-.375c.464-1.044.591-1.683.487-2.42-.115-.821-.531-1.866-1.458-3.683l2.06-1.051c.921 1.805 1.513 3.163 1.688 4.412.188 1.334-.11 2.433-.663 3.68l-2.114-.938zm-.972-6.105c-.888-1.749-1.472-3.125-1.664-4.243-.1-.578-.104-1.143.043-1.685.15-.553.44-1.007.818-1.384l1.635 1.635a.773.773 0 0 0-.222.356c-.034.128-.055.337.005.687.127.74.56 1.841 1.447 3.586l-2.062 1.048zm-.803-7.312c.453-.453 1.062-.784 1.752-.773.725.011 1.335.396 1.714.974l-1.933 1.27c-.01-.016-.001.004.04.028.044.025.096.04.144.04.094.002.056-.042-.082.096l-1.635-1.635zm3.472.21c.226.352.706 1.367 1.085 2.233l-2.119.927a38.85 38.85 0 0 0-.565-1.233 17.651 17.651 0 0 0-.31-.612 1.91 1.91 0 0 0-.034-.06l-.002-.004 1.945-1.25zm1.088 2.24c.161.375.302.666.422.881a3.144 3.144 0 0 0 .199.313l.014.017.005.005-.008-.006a.682.682 0 0 0-.134-.09.935.935 0 0 0-.593-.08.942.942 0 0 0-.539.304.705.705 0 0 0-.083.117c-.014.025-.02.041-.02.043l2.16.825c-.087.226-.367.849-1.093.984-.708.133-1.195-.325-1.357-.493-.399-.415-.76-1.121-1.098-1.907l2.125-.914zm-.743 1.517c-.074.201-.05.343-.054.286a1.383 1.383 0 0 0-.028-.163 6.927 6.927 0 0 0-.218-.749c-.21-.613-.505-1.299-.782-1.782l2.006-1.15c.37.644.721 1.473.964 2.182.122.357.226.71.292 1.015.032.151.06.315.072.474a1.64 1.64 0 0 1-.082.686l-2.17-.8zm-1.088-2.418c-.27-.483-.598-1.194-.383-1.95.23-.808.932-1.19 1.42-1.398l.905 2.128c-.078.033-.133.06-.172.082-.038.022-.052.034-.05.033a.312.312 0 0 0 .05-.06.52.52 0 0 0 .09-.29c0-.028-.005-.035 0-.016.005.02.018.057.044.117.026.059.063.133.114.224l-2.018 1.13zm1.074-3.364c.246-.094.634-.239 1.096-.194.448.044.814.25 1.084.415l-1.2 1.976a3.03 3.03 0 0 0-.19-.105c-.016-.007.018.01.082.016.03.003.059.003.082 0 .022-.001.035-.004.034-.004a2.684 2.684 0 0 0-.157.054l-.83-2.157zm2.17.214c.883.524 1.285 1.346 2.01 3.059l-2.13.9c-.793-1.874-.945-1.901-1.06-1.97l1.18-1.989zm2.008 3.056c.492 1.154.76 1.723.926 1.986.097.154.053.025-.151-.081a.938.938 0 0 0-.889.02l1.206 1.973a1.443 1.443 0 0 1-.615.21 1.374 1.374 0 0 1-.77-.152c-.376-.196-.607-.53-.736-.734-.287-.453-.63-1.215-1.098-2.316l2.127-.906zm-.128 1.934a.804.804 0 0 0-.348.506c-.027.136.008.18-.03.024-.076-.306-.294-.867-.765-1.931l2.115-.936c.453 1.025.762 1.776.895 2.315.066.267.125.618.052.982a1.51 1.51 0 0 1-.685.995l-1.234-1.955zm-1.145-1.407c-.391-.897-.655-1.518-.77-1.959a2.058 2.058 0 0 1-.058-.856c.057-.346.21-.592.322-.746l1.874 1.354c-.009.013.061-.08.087-.233.02-.128-.009-.19.015-.098.057.22.227.644.65 1.614l-2.12.924zm-.526-3.533c.435-.64 1.122-.897 1.776-.883.621.012 1.227.258 1.75.61l-1.293 1.918c-.272-.184-.452-.215-.505-.216-.02 0 .005.004.054-.02a.335.335 0 0 0 .132-.11l-1.914-1.299zm-8.826 13.682c-.108-1.22 1.24-2.028 2.265-1.356L59.229 49a.846.846 0 0 0 1.305-.782l-2.303.204zm11.03 13.252a2.179 2.179 0 0 1-1.916-.779l1.782-1.472a.133.133 0 0 0-.117-.048l.25 2.299zm12.888-5.915c.886.59.968 1.861.165 2.56l-1.519-1.743a.698.698 0 0 0 .072 1.107l1.282-1.924zM29.734 23.552c-.959 1.404-2.724 1.468-3.908 1.039l.788-2.175c.278.101.565.122.794.076.217-.044.343-.137.416-.244l1.91 1.304zm14.731 10.223c.638-.5 1.362-.354 1.808-.086l-1.192 1.982a.65.65 0 0 0 .324.085.779.779 0 0 0 .487-.161l-1.427-1.82zm.808-.715a1.5 1.5 0 0 1 .566.936c.073.438-.067.837-.29 1.13L43.71 33.72a.852.852 0 0 0-.153.651.814.814 0 0 0 .29.51l1.425-1.822zm-12.022-8.32c.727-.51 1.577-.447 2.23-.04l-1.226 1.962s.043.026.127.027c.09 0 .162-.03.199-.057l-1.33-1.892zm11.273 12.254c.11.086.268.23.386.445.123.225.243.618.068 1.056-.167.419-.503.615-.708.696-.21.082-.406.098-.543.098l.003-2.313a.837.837 0 0 0-.305.062c-.146.058-.443.22-.594.599-.159.396-.044.74.05.912a.873.873 0 0 0 .225.272l1.418-1.827zM29.488 56.787a4.156 4.156 0 0 1-2.04.535V55.01c.317 0 .628-.082.905-.237l1.135 2.014zm15.202-20.71a2.716 2.716 0 0 1-3.385.367l1.248-1.947c.16.102.368.08.502-.055l1.635 1.636zm-8.146-3.772c.673.06 1.322.283 1.89.65l-1.258 1.942a1.844 1.844 0 0 0-.837-.29l.205-2.302z" fill="#3A85D0" mask="url(#b)"/><path d="m83.047 69.683-.002-.002.002.002zm-.452.154a.033.033 0 0 0 0 .002v-.001zM11.214 39.313l-.944 2.203a3.468 3.468 0 0 0 .413 3.448l.53.708" stroke="#3A85D0" stroke-width="1.156"/><path d="m25.088 10.406 1.156 6.36M45.4 23.108l-6.437.59M37.614 13.875l-3.603 5.366" stroke="#FF7A92" stroke-width="1.156" stroke-linecap="round"/></svg>