<svg width="232" height="256" viewBox="0 0 232 256" fill="none" xmlns="http://www.w3.org/2000/svg">
<g filter="url(#filter0_dd_1113_17848)">
<g clip-path="url(#clip0_1113_17848)">
<rect x="16" y="8" width="200" height="224" rx="8" fill="#FFE7A2" fill-opacity="0.5" shape-rendering="crispEdges"/>
<rect x="51" y="18" width="130" height="152" rx="14.4762" fill="white"/>
<rect x="63.333" y="38.5714" width="105.333" height="21.7143" rx="3.61905" fill="#FFF3D1"/>
<rect x="70.5713" y="45.8095" width="68.7619" height="7.2381" rx="3.61905" fill="#CE8D14"/>
<path d="M160.579 45.6774C160.453 45.5513 160.303 45.4513 160.138 45.383C159.974 45.3147 159.797 45.2796 159.619 45.2796C159.44 45.2796 159.264 45.3147 159.099 45.383C158.934 45.4513 158.785 45.5513 158.659 45.6774L154.51 49.8258C154.425 49.9106 154.31 49.9582 154.19 49.9582C154.07 49.9582 153.955 49.9106 153.87 49.8258L149.722 45.6774C149.467 45.4228 149.122 45.2797 148.762 45.2797C148.402 45.2796 148.057 45.4225 147.802 45.677C147.547 45.9314 147.404 46.2766 147.404 46.6366C147.404 46.9966 147.547 47.3418 147.802 47.5964L151.951 51.7457C152.245 52.0397 152.594 52.273 152.978 52.4322C153.362 52.5914 153.774 52.6733 154.19 52.6733C154.606 52.6733 155.018 52.5914 155.402 52.4322C155.786 52.273 156.135 52.0397 156.429 51.7457L160.579 47.5964C160.833 47.3419 160.976 46.9968 160.976 46.6369C160.976 46.2771 160.833 45.9319 160.579 45.6774Z" fill="#CE8D14"/>
<rect x="63.333" y="68.2857" width="105.333" height="21.7143" rx="3.61905" fill="#FFF3D1"/>
<rect x="70.5713" y="75.5238" width="68.7619" height="7.2381" rx="3.61905" fill="#CE8D14"/>
<path d="M160.579 75.3917C160.453 75.2656 160.303 75.1655 160.138 75.0973C159.974 75.029 159.797 74.9939 159.619 74.9939C159.44 74.9939 159.264 75.029 159.099 75.0973C158.934 75.1655 158.785 75.2656 158.659 75.3917L154.51 79.54C154.425 79.6248 154.31 79.6725 154.19 79.6725C154.07 79.6725 153.955 79.6248 153.87 79.54L149.722 75.3917C149.467 75.1371 149.122 74.994 148.762 74.9939C148.402 74.9939 148.057 75.1368 147.802 75.3912C147.547 75.6457 147.404 75.9909 147.404 76.3509C147.404 76.7108 147.547 77.0561 147.802 77.3107L151.951 81.4599C152.245 81.754 152.594 81.9873 152.978 82.1465C153.362 82.3056 153.774 82.3875 154.19 82.3875C154.606 82.3875 155.018 82.3056 155.402 82.1465C155.786 81.9873 156.135 81.754 156.429 81.4599L160.579 77.3107C160.833 77.0562 160.976 76.7111 160.976 76.3512C160.976 75.9913 160.833 75.6462 160.579 75.3917Z" fill="#CE8D14"/>
<rect x="63.333" y="98" width="105.333" height="21.7143" rx="3.61905" fill="#FFF3D1"/>
<rect x="70.5713" y="105.238" width="68.7619" height="7.2381" rx="3.61905" fill="#CE8D14"/>
<path d="M160.579 105.106C160.453 104.98 160.303 104.88 160.138 104.812C159.974 104.743 159.797 104.708 159.619 104.708C159.44 104.708 159.264 104.743 159.099 104.812C158.934 104.88 158.785 104.98 158.659 105.106L154.51 109.254C154.425 109.339 154.31 109.387 154.19 109.387C154.07 109.387 153.955 109.339 153.87 109.254L149.722 105.106C149.467 104.851 149.122 104.708 148.762 104.708C148.402 104.708 148.057 104.851 147.802 105.106C147.547 105.36 147.404 105.705 147.404 106.065C147.404 106.425 147.547 106.77 147.802 107.025L151.951 111.174C152.245 111.468 152.594 111.702 152.978 111.861C153.362 112.02 153.774 112.102 154.19 112.102C154.606 112.102 155.018 112.02 155.402 111.861C155.786 111.702 156.135 111.468 156.429 111.174L160.579 107.025C160.833 106.77 160.976 106.425 160.976 106.065C160.976 105.706 160.833 105.36 160.579 105.106Z" fill="#CE8D14"/>
<rect x="63.333" y="127.714" width="105.333" height="21.7143" rx="3.61905" fill="#FFF3D1"/>
<rect x="70.5713" y="134.952" width="68.7619" height="7.2381" rx="3.61905" fill="#CE8D14"/>
<path d="M160.579 134.82C160.453 134.694 160.303 134.594 160.138 134.526C159.974 134.458 159.797 134.422 159.619 134.422C159.44 134.422 159.264 134.458 159.099 134.526C158.934 134.594 158.785 134.694 158.659 134.82L154.51 138.969C154.425 139.053 154.31 139.101 154.19 139.101C154.07 139.101 153.955 139.053 153.87 138.969L149.722 134.82C149.467 134.566 149.122 134.423 148.762 134.423C148.402 134.422 148.057 134.565 147.802 134.82C147.547 135.074 147.404 135.419 147.404 135.779C147.404 136.139 147.547 136.485 147.802 136.739L151.951 140.889C152.245 141.183 152.594 141.416 152.978 141.575C153.362 141.734 153.774 141.816 154.19 141.816C154.606 141.816 155.018 141.734 155.402 141.575C155.786 141.416 156.135 141.183 156.429 140.889L160.579 136.739C160.833 136.485 160.976 136.14 160.976 135.78C160.976 135.42 160.833 135.075 160.579 134.82Z" fill="#CE8D14"/>
<rect x="34" y="182" width="164" height="40" rx="6" fill="#FFB745"/>
<path d="M102.848 198.424V201.376H106.832V203.464H102.848V208H100.128V196.344H107.632V198.424H102.848ZM115.022 203.544L113.942 200.352C113.862 200.149 113.776 199.912 113.686 199.64C113.595 199.363 113.504 199.064 113.414 198.744C113.334 199.069 113.248 199.371 113.158 199.648C113.067 199.925 112.982 200.165 112.902 200.368L111.83 203.544H115.022ZM119.318 208H117.222C116.987 208 116.798 207.947 116.654 207.84C116.51 207.728 116.4 207.587 116.326 207.416L115.638 205.384H111.206L110.518 207.416C110.459 207.565 110.352 207.701 110.198 207.824C110.048 207.941 109.862 208 109.638 208H107.526L112.038 196.344H114.806L119.318 208ZM122.59 202.168C122.59 202.749 122.665 203.272 122.814 203.736C122.963 204.195 123.177 204.584 123.454 204.904C123.737 205.224 124.081 205.469 124.486 205.64C124.897 205.805 125.363 205.888 125.886 205.888C126.403 205.888 126.865 205.805 127.27 205.64C127.675 205.469 128.017 205.224 128.294 204.904C128.577 204.584 128.793 204.195 128.942 203.736C129.091 203.272 129.166 202.749 129.166 202.168C129.166 201.592 129.091 201.075 128.942 200.616C128.793 200.152 128.577 199.76 128.294 199.44C128.017 199.12 127.675 198.875 127.27 198.704C126.865 198.533 126.403 198.448 125.886 198.448C125.363 198.448 124.897 198.533 124.486 198.704C124.081 198.875 123.737 199.12 123.454 199.44C123.177 199.76 122.963 200.152 122.814 200.616C122.665 201.075 122.59 201.592 122.59 202.168ZM132.59 210.184H130.366C130.046 210.184 129.758 210.141 129.502 210.056C129.251 209.976 129.017 209.824 128.798 209.6L127.35 207.976C126.897 208.077 126.409 208.128 125.886 208.128C124.979 208.128 124.153 207.976 123.406 207.672C122.659 207.368 122.019 206.949 121.486 206.416C120.958 205.877 120.547 205.245 120.254 204.52C119.966 203.795 119.822 203.011 119.822 202.168C119.822 201.325 119.966 200.541 120.254 199.816C120.547 199.091 120.958 198.461 121.486 197.928C122.019 197.395 122.659 196.976 123.406 196.672C124.153 196.368 124.979 196.216 125.886 196.216C126.793 196.216 127.617 196.371 128.358 196.68C129.105 196.984 129.742 197.403 130.27 197.936C130.798 198.469 131.206 199.099 131.494 199.824C131.787 200.549 131.934 201.331 131.934 202.168C131.934 202.669 131.881 203.152 131.774 203.616C131.673 204.075 131.523 204.507 131.326 204.912C131.134 205.317 130.894 205.693 130.606 206.04C130.323 206.387 130.001 206.693 129.638 206.96L132.59 210.184Z" fill="white"/>
<rect x="-34" y="35.6207" width="67.9076" height="57.6" rx="8" transform="rotate(-6.44344 -34 35.6207)" fill="#FFFAEB" fill-opacity="0.8"/>
<rect x="198.463" y="102.826" width="67.9076" height="57.598" rx="8" transform="rotate(6.44 198.463 102.826)" fill="#FFFAEB" fill-opacity="0.8"/>
</g>
</g>
<defs>
<filter id="filter0_dd_1113_17848" x="0" y="0" width="232" height="256" filterUnits="userSpaceOnUse" color-interpolation-filters="sRGB">
<feFlood flood-opacity="0" result="BackgroundImageFix"/>
<feColorMatrix in="SourceAlpha" type="matrix" values="0 0 0 0 0 0 0 0 0 0 0 0 0 0 0 0 0 0 127 0" result="hardAlpha"/>
<feOffset dy="1"/>
<feGaussianBlur stdDeviation="2"/>
<feComposite in2="hardAlpha" operator="out"/>
<feColorMatrix type="matrix" values="0 0 0 0 0.419608 0 0 0 0 0.47451 0 0 0 0 0.521569 0 0 0 0.15 0"/>
<feBlend mode="normal" in2="BackgroundImageFix" result="effect1_dropShadow_1113_17848"/>
<feColorMatrix in="SourceAlpha" type="matrix" values="0 0 0 0 0 0 0 0 0 0 0 0 0 0 0 0 0 0 127 0" result="hardAlpha"/>
<feOffset dy="8"/>
<feGaussianBlur stdDeviation="8"/>
<feComposite in2="hardAlpha" operator="out"/>
<feColorMatrix type="matrix" values="0 0 0 0 0.419608 0 0 0 0 0.47451 0 0 0 0 0.521569 0 0 0 0.15 0"/>
<feBlend mode="normal" in2="effect1_dropShadow_1113_17848" result="effect2_dropShadow_1113_17848"/>
<feBlend mode="normal" in="SourceGraphic" in2="effect2_dropShadow_1113_17848" result="shape"/>
</filter>
<clipPath id="clip0_1113_17848">
<rect x="16" y="8" width="200" height="224" rx="8" fill="white"/>
</clipPath>
</defs>
</svg>
