<svg width="74" height="74" viewBox="0 0 74 74" fill="none" xmlns="http://www.w3.org/2000/svg">
<path d="M56.9799 40.7055C55.789 35.3405 54.1818 30.0912 52.2046 24.969C52.1584 24.9921 52.1352 25.0384 52.089 25.0615C51.9271 25.1424 51.7652 25.1771 51.5918 25.2002C42.1105 25.9402 32.8374 27.3162 23.333 27.9868C22.9515 28.0215 22.593 27.8249 22.408 27.4896C21.8415 26.4374 21.0321 24.8187 20.3962 23.593C20.1534 23.119 20.3384 22.5293 20.8124 22.2865C20.8818 22.2518 20.9512 22.2287 21.0321 22.2055C30.999 20.159 40.7462 19.7312 49.788 19.2802L49.3949 18.4015C47.9034 15.1871 46.0418 11.9843 43.5096 10.0996C40.5959 7.93743 35.5084 9.71805 32.2246 10.0418C25.2524 9.55618 18.2687 10.6777 11.8052 13.3255C11.2271 13.499 10.73 13.8574 10.3715 14.343C10.0825 15.164 10.1634 16.0774 10.6143 16.829C12.684 22.2518 14.3143 27.8249 15.5052 33.5021C17.7368 43.099 20.0377 52.9849 22.0612 62.628C22.408 64.2699 22.9399 66.0968 24.4546 66.8368C26.3509 67.7387 28.4437 66.409 30.3284 66.1315C31.3227 65.9812 32.3055 65.854 33.2999 65.7152L57.3962 61.8649C57.3962 61.8649 57.8471 61.784 58.1015 61.5874C58.1824 61.5296 58.2749 61.4602 58.3559 61.3909C59.1305 60.408 59.5005 59.1709 59.3849 57.9221C59.5121 52.1062 58.2749 46.3365 56.9799 40.7055ZM49.5568 59.0899C45.6024 59.6912 39.5321 61.1596 35.2655 61.3793C34.884 61.414 34.5255 61.2174 34.3405 60.8821C34.0284 60.1074 33.7624 58.9743 33.6237 58.5234C33.3809 58.0493 33.5659 57.4596 34.0399 57.2168C34.1093 57.1821 34.1787 57.159 34.2596 57.1359C37.8787 56.5346 45.5909 55.3552 49.2793 55.1124C49.6377 55.1124 49.7649 55.4362 49.9846 55.7137L50.3315 56.6155C50.6552 57.2977 50.9327 58.7893 49.5568 59.0899ZM54.8062 51.8518C54.2049 52.4877 53.3609 52.8346 52.4937 52.7999L30.363 55.3899C28.4668 48.5565 26.5937 41.7346 24.7437 34.9012C24.3737 33.9762 24.3737 32.9355 24.7437 32.0105C25.4259 31.1549 26.4434 30.6346 27.5302 30.5884C32.4212 29.698 37.3699 29.0852 42.3302 28.7499C43.498 28.5996 44.6659 28.4955 45.8452 28.4377C47.0246 28.3799 48.1924 28.3568 49.3718 28.3799C51.1987 28.5418 51.9618 29.9987 52.4127 31.6637C54.0199 37.6646 54.968 43.8159 55.2455 50.0249C55.3034 50.6609 55.1415 51.3084 54.8062 51.8518Z" fill="#FFF5EC"/>
<path d="M15.7478 67.3936C16.0831 63.1039 15.6091 58.7911 14.3372 54.6748C14.0019 53.5186 13.4353 52.3623 12.3022 52.0733C11.3194 51.9114 10.406 52.582 10.2441 53.5533C10.221 53.7267 10.2094 53.9117 10.2441 54.0967C10.5332 55.0102 11.5044 55.5189 12.4178 55.2414C12.6144 55.1836 12.7994 55.0795 12.9613 54.9523C13.5047 54.2817 13.7475 53.4145 13.6319 52.5589C13.5394 46.9973 12.1056 41.5398 9.44629 36.6605" stroke="#3A85D0" stroke-width="1.15625" stroke-miterlimit="10" stroke-linecap="round"/>
<path d="M48.0674 17.0575C47.5124 15.5312 44.8646 11.4034 43.7893 10.1894C42.4018 8.82498 40.4824 8.9406 38.5515 9.0331C33.2559 9.27592 27.9718 9.81935 22.7109 10.49C21.4506 10.6403 9.1249 12.8025 9.44865 13.5425C18.6987 35.0603 23.0115 55.7687 23.6706 63.6312C23.8209 65.2962 25.2893 66.5334 26.9543 66.3831C27.0121 66.3831 27.0815 66.3715 27.1393 66.36C36.8865 64.7875 47.3737 62.8912 56.8896 61.4112C57.5371 61.3765 58.1499 61.1337 58.6471 60.7175C59.0518 60.1393 59.2368 59.4225 59.1443 58.7171C58.9246 53.7337 58.4506 48.7618 57.7106 43.8246" stroke="#3A85D0" stroke-width="1.15625" stroke-linecap="round" stroke-linejoin="round"/>
<path d="M50.5266 21.1844C50.8966 21.9822 51.0585 22.3406 51.5094 23.2425C51.8447 23.9363 51.5441 24.7803 50.8504 25.1041C50.6885 25.185 50.5266 25.2197 50.3532 25.2428C40.8719 25.9828 31.5988 27.3588 22.0944 28.0294C21.7129 28.0641 21.3544 27.8675 21.1694 27.5322C20.6029 26.48 19.7935 24.8613 19.1576 23.6356C18.9147 23.1616 19.0997 22.5719 19.5738 22.3291C19.6432 22.2944 19.7126 22.2713 19.7935 22.2481C29.9916 20.1553 39.9816 19.7506 49.1969 19.2881C49.5554 19.2881 49.6826 19.6119 49.9022 19.8894" stroke="#3A85D0" stroke-width="1.15625" stroke-miterlimit="10" stroke-linecap="round"/>
<path d="M52.9006 34.4468C53.9296 39.9852 54.5771 45.408 55.2131 51.0158C55.3171 51.5015 55.19 52.0102 54.8546 52.3802C54.5771 52.5537 54.2418 52.6346 53.9181 52.6115C46.8418 52.7965 39.0603 54.3574 31.8799 55.1437C30.9781 55.2362 30.1456 54.6927 29.8565 53.8371C27.9256 47.8015 26.6074 41.0027 24.5609 35.1058C24.2949 34.5277 24.214 33.8802 24.3412 33.2558C24.6881 32.2499 25.9599 31.9493 27.0121 31.8221L38.2625 30.4115C40.1356 30.1802 42.0203 29.9258 43.8934 29.7062C45.4196 29.5212 46.9343 29.024 48.4375 28.9315C49.2006 28.8505 49.9637 29.0471 50.5996 29.4633C50.75 29.5674 50.8887 29.683 51.0043 29.8218C51.3975 30.3421 51.6865 30.9318 51.8253 31.5677" fill="#67C7B4"/>
<path d="M52.9006 34.4468C53.9296 39.9852 54.5771 45.408 55.2131 51.0158C55.3171 51.5015 55.19 52.0102 54.8546 52.3802C54.5771 52.5537 54.2418 52.6346 53.9181 52.6115C46.8418 52.7965 39.0603 54.3574 31.8799 55.1437C30.9781 55.2362 30.1456 54.6927 29.8565 53.8371C27.9256 47.8015 26.6074 41.0027 24.5609 35.1058C24.2949 34.5277 24.214 33.8802 24.3412 33.2558C24.6881 32.2499 25.9599 31.9493 27.0121 31.8221L38.2625 30.4115C40.1356 30.1802 42.0203 29.9258 43.8934 29.7062C45.4196 29.5212 46.9343 29.024 48.4375 28.9315C49.2006 28.8505 49.9637 29.0471 50.5996 29.4633C50.7499 29.5674 50.8887 29.683 51.0043 29.8218C51.3975 30.3421 51.6865 30.9318 51.8253 31.5677M35.7533 47.7885C38.6439 47.2103 46.6106 45.476 49.0501 45.476M33.4408 38.5385C36.3314 37.9603 44.2981 36.226 46.7376 36.226M34.597 43.1635C37.4876 42.5853 45.4543 40.851 47.8939 40.851" stroke="#3A85D0" stroke-width="1.15625" stroke-miterlimit="10"/>
<path d="M50.2984 57.816C50.6337 58.5097 50.9342 59.483 49.5467 59.7836C45.5924 60.3848 39.522 61.8533 35.2555 62.073C34.8739 62.1077 34.5155 61.9111 34.3305 61.5758C34.0183 60.8011 33.7524 59.668 33.6136 59.217C33.3708 58.743 33.5558 58.1533 34.0299 57.9105C34.0992 57.8758 34.1686 57.8527 34.2495 57.8295C37.8686 57.2283 45.5808 56.0489 49.2692 55.8061C49.6277 55.8061 49.7549 56.1298 49.9745 56.4073" stroke="#3A85D0" stroke-width="1.15625" stroke-miterlimit="10" stroke-linecap="round"/>
<path d="M54.8076 51.8517C55.1429 51.3082 55.3048 50.6607 55.247 50.0248C55.2932 50.6607 55.1429 51.3082 54.8076 51.8517Z" fill="#FFF5EC"/>
<path d="M37.0234 60.1276C36.8933 59.7692 37.3271 59.4223 37.7898 59.3529C38.2815 59.3298 38.7732 59.3761 39.2359 59.4917C39.6842 59.5958 40.1759 59.5379 40.5663 59.3182C40.9134 59.0639 41.0724 58.5551 41.5352 58.5436C41.9979 58.532 42.1859 58.9483 42.533 59.1217C42.88 59.3067 43.8344 59.0754 44.2972 58.6939C44.7599 58.3123 45.2371 57.8498 45.8879 57.8151C46.6109 57.8267 47.2327 58.2198 47.4063 58.7748" stroke="#3A85D0" stroke-width="1.15625" stroke-linejoin="round"/>
<path fill-rule="evenodd" clip-rule="evenodd" d="M55.4037 6.89213C56.6829 5.13306 59.0697 4.62952 60.8767 4.62952C61.1669 4.62952 61.4021 4.86473 61.4021 5.15488C61.4021 5.44503 61.1669 5.68024 60.8767 5.68024C59.1711 5.68024 57.2276 6.16907 56.2524 7.51151L56.2497 7.51524C55.273 8.83543 55.1835 10.5257 55.746 11.9995C56.3097 13.4767 57.5004 14.6634 58.9906 15.0058C60.3231 15.2961 61.9668 15.1271 62.9716 14.2794L62.9743 14.2771C64.0926 13.3464 64.776 11.8104 64.8493 10.2537C64.9224 8.70096 64.3874 7.21473 63.1851 6.3207C62.9522 6.14757 62.9038 5.81847 63.077 5.58563C63.2501 5.3528 63.5792 5.30441 63.812 5.47754C65.3639 6.63152 65.9839 8.49669 65.8989 10.3031C65.814 12.105 65.0268 13.9353 63.6477 15.0837C62.2992 16.2203 60.2728 16.3613 58.7638 16.0318L58.7586 16.0307C56.8632 15.5965 55.4288 14.1154 54.7643 12.3741C54.0985 10.6294 54.1778 8.55055 55.4037 6.89213Z" fill="#3A85D0"/>
</svg>
