<svg width="50" height="50" viewBox="0 0 50 50" fill="none" xmlns="http://www.w3.org/2000/svg">
<g clip-path="url(#clip0_1279_3623)">
<path d="M19.5853 3.89989C19.5853 1.7457 17.8396 0 15.6843 0H3.97899C1.8248 0 0.0791016 1.7457 0.0791016 3.89989V15.6063C0.0791016 17.7605 1.8248 19.5062 3.97899 19.5062H15.6854C17.8396 19.5062 19.5864 17.7605 19.5864 15.6063L19.5853 3.89989ZM16.0826 15.5397C16.0826 15.7959 15.875 16.0024 15.6188 16.0024H3.96657C3.71042 16.0024 3.50279 15.7948 3.50279 15.5397V3.88634C3.50279 3.63019 3.71042 3.42368 3.96657 3.42368H15.62C15.8761 3.42368 16.0838 3.63132 16.0838 3.88634L16.0826 15.5397Z" fill="#FFC107"/>
<path d="M13.5346 5.97046H6.05078V13.4543H13.5346V5.97046Z" fill="#FFC107"/>
<path d="M19.5853 34.3936C19.5853 32.2406 17.8396 30.4949 15.6843 30.4949H3.97899C1.8248 30.4949 0.0791016 32.2406 0.0791016 34.3936V46.1012C0.0791016 48.2542 1.8248 49.9999 3.97899 49.9999H15.6854C17.8396 49.9999 19.5864 48.2542 19.5864 46.1012L19.5853 34.3936ZM16.0826 46.0944C16.0826 46.3506 15.893 46.5774 15.6369 46.5774H3.96206C3.7059 46.5774 3.50279 46.3506 3.50279 46.0944V34.4173C3.50279 34.1612 3.7059 33.9174 3.96206 33.9174H15.638C15.893 33.9174 16.0838 34.1623 16.0838 34.4173L16.0826 46.0944Z" fill="#FFC107"/>
<path d="M13.5346 36.4644H6.05078V44.0283H13.5346V36.4644Z" fill="#FFC107"/>
<path d="M49.9199 3.89989C49.9199 1.7457 48.1742 0 46.02 0H34.3136C32.1594 0 30.4126 1.7457 30.4126 3.89989V15.6063C30.4126 17.7605 32.1583 19.5062 34.3136 19.5062H46.02C48.1742 19.5062 49.9199 17.7605 49.9199 15.6063V3.89989ZM46.4184 15.5397C46.4184 15.7959 46.2096 16.0024 45.9535 16.0024H34.3001C34.0439 16.0024 33.8374 15.7948 33.8374 15.5397V3.88634C33.8374 3.63019 34.045 3.42368 34.3001 3.42368H45.9523C46.2096 3.42368 46.4172 3.63132 46.4172 3.88634V15.5397H46.4184Z" fill="#FFC107"/>
<path d="M43.9482 5.97046H36.3843V13.4543H43.9482V5.97046Z" fill="#FFC107"/>
<path d="M4.52191 21.7348C3.95882 21.7348 3.50293 22.1907 3.50293 22.7538V25.3345C3.50293 25.8976 3.95882 26.3523 4.52191 26.3523H6.92661V26.4471C6.92661 27.0114 7.3825 27.4672 7.94559 27.4672H13.774V27.562C13.774 28.1262 14.2299 28.581 14.793 28.581H17.3737C17.9368 28.581 18.3927 28.1262 18.3927 27.562V25.0625C18.3927 24.4994 17.9368 24.0436 17.3737 24.0436H16.0839V22.7526C16.0839 22.1895 15.628 21.7336 15.0649 21.7336H13.6769C13.1138 21.7336 12.658 22.1895 12.658 22.7526V24.0436H8.12163V22.7526C8.12163 22.1895 7.66574 21.7336 7.10265 21.7336L4.52191 21.7348Z" fill="#FFC107"/>
<path d="M23.4865 16.7358C23.4865 17.2989 23.9424 17.7547 24.5055 17.7547H28.2C28.7631 17.7547 29.2179 17.2989 29.2179 16.7358V14.155C29.2179 13.5919 28.7631 13.136 28.2 13.136H26.9102V5.17378H27.084C27.6482 5.17378 28.103 4.71789 28.103 4.1548V2.7702C28.103 2.20711 27.6482 1.75122 27.084 1.75122H22.1967C21.6336 1.75122 21.1777 2.20711 21.1777 2.7702V4.15592C21.1777 4.71902 21.6336 5.1749 22.1967 5.1749H23.4865V8.83782H22.1967C21.6336 8.83782 21.1777 9.29371 21.1777 9.8568V10.0486C21.1777 10.6117 21.6336 11.0676 22.1967 11.0676H23.4865V16.7358Z" fill="#FFC107"/>
<path d="M26.4327 20.445C26.4327 19.8819 25.9768 19.426 25.4137 19.426H22.8329C22.2699 19.426 21.814 19.8819 21.814 20.445V23.0257C21.814 23.5888 22.2699 24.0447 22.8329 24.0447H25.4137C25.9768 24.0447 26.4327 23.5888 26.4327 23.0257V20.445Z" fill="#FFC107"/>
<path d="M44.7452 32.086H43.4565C42.8923 32.086 42.4375 32.5419 42.4375 33.105V37.9155C42.4375 38.4775 42.8923 38.9334 43.4565 38.9334H48.3449C48.9091 38.9334 49.3639 38.4775 49.3639 37.9155V22.7538C49.3639 22.1908 48.9091 21.7349 48.3449 21.7349H45.7641C45.2022 21.7349 44.7463 22.1908 44.7463 22.7538V32.086H44.7452Z" fill="#FFC107"/>
<path d="M33.2012 28.3442H33.3761C33.9392 28.3442 34.3951 27.8895 34.3951 27.3253V24.8246C34.3951 24.2616 33.9392 23.8057 33.3761 23.8057H30.7954C30.2323 23.8057 29.7764 24.2616 29.7764 24.8246V26.1156H25.0629C24.4998 26.1156 24.0439 26.5715 24.0439 27.1346V33.0589C24.0439 33.622 24.4998 34.0778 25.0629 34.0778H32.1822C32.7442 34.0778 33.2001 33.622 33.2001 33.0589V28.3442H33.2012Z" fill="#FFC107"/>
<path d="M42.4364 22.9298V21.6389C42.4364 21.0758 41.9805 20.6199 41.4174 20.6199H41.1466C40.5847 20.6199 40.1288 21.0758 40.1288 21.6389V22.9298H37.7241C37.1598 22.9298 36.7051 23.3857 36.7051 23.9488V27.5654C36.7051 28.1274 37.1598 28.5833 37.7241 28.5833H41.4174C41.9805 28.5833 42.4364 28.1274 42.4364 27.5654V22.9298Z" fill="#FFC107"/>
<path d="M35.5887 35.5085H33.184C32.6209 35.5085 32.165 35.9644 32.165 36.5275V37.9155C32.165 38.4775 32.6209 38.9333 33.184 38.9333H35.5887V47.8559C35.5887 48.419 36.0446 48.8749 36.6077 48.8749H39.1083C39.6714 48.8749 40.1273 48.419 40.1273 47.8559V31.9111C40.1273 31.348 39.6714 30.8921 39.1083 30.8921H36.6077C36.0446 30.8921 35.5887 31.348 35.5887 31.9111V35.5085Z" fill="#FFC107"/>
<path d="M24.124 47.8549C24.124 48.418 24.5799 48.8727 25.143 48.8727H28.8364C29.4006 48.8727 29.8554 48.418 29.8554 47.8549V37.6414C29.8554 37.0794 29.4006 36.6235 28.8364 36.6235H25.143C24.5799 36.6235 24.124 37.0794 24.124 37.6414V47.8549Z" fill="#FFC107"/>
<path d="M41.6396 47.8548C41.6396 48.4179 42.0955 48.8727 42.6575 48.8727H46.036C46.598 48.8727 47.0539 48.4179 47.0539 47.8548V45.3531C47.0539 44.7911 46.598 44.3352 46.036 44.3352H42.6575C42.0955 44.3352 41.6396 44.7911 41.6396 45.3531V47.8548Z" fill="#FFC107"/>
</g>
<defs>
<clipPath id="clip0_1279_3623">
<rect width="50" height="50" fill="white"/>
</clipPath>
</defs>
</svg>
