<svg width="50" height="50" viewBox="0 0 50 50" fill="none" xmlns="http://www.w3.org/2000/svg">
<path d="M10.7027 23.337C10.4125 23.9436 10.0343 24.504 9.58023 25C10.0343 25.496 10.4125 26.0564 10.7027 26.663C11.7188 28.7586 11.7188 31.2166 11.7188 33.5938C11.7188 38.6595 12.079 39.8438 15.625 39.8438C16.2466 39.8438 16.8427 40.0907 17.2823 40.5302C17.7218 40.9698 17.9688 41.5659 17.9688 42.1875C17.9688 42.8091 17.7218 43.4052 17.2823 43.8448C16.8427 44.2843 16.2466 44.5312 15.625 44.5312C11.8858 44.5312 9.33638 43.1831 8.04729 40.5245C7.03125 38.4289 7.03125 35.9709 7.03125 33.5938C7.03125 28.528 6.67105 27.3438 3.125 27.3438C2.5034 27.3438 1.90726 27.0968 1.46772 26.6573C1.02818 26.2177 0.78125 25.6216 0.78125 25C0.78125 24.3784 1.02818 23.7823 1.46772 23.3427C1.90726 22.9032 2.5034 22.6562 3.125 22.6562C6.67105 22.6562 7.03125 21.472 7.03125 16.4062C7.03125 14.0291 7.03125 11.5711 8.04729 9.47552C9.33638 6.81686 11.8858 5.46875 15.625 5.46875C16.2466 5.46875 16.8427 5.71568 17.2823 6.15522C17.7218 6.59476 17.9688 7.1909 17.9688 7.8125C17.9688 8.4341 17.7218 9.03024 17.2823 9.46978C16.8427 9.90932 16.2466 10.1562 15.625 10.1562C12.079 10.1562 11.7188 11.3405 11.7188 16.4062C11.7188 18.7834 11.7188 21.2414 10.7027 23.337ZM46.875 22.6562C43.329 22.6562 42.9688 21.472 42.9688 16.4062C42.9688 14.0291 42.9688 11.5711 41.9527 9.47552C40.6636 6.81686 38.1142 5.46875 34.375 5.46875C33.7534 5.46875 33.1573 5.71568 32.7177 6.15522C32.2782 6.59476 32.0312 7.1909 32.0312 7.8125C32.0312 8.4341 32.2782 9.03024 32.7177 9.46978C33.1573 9.90932 33.7534 10.1562 34.375 10.1562C37.921 10.1562 38.2812 11.3405 38.2812 16.4062C38.2812 18.7834 38.2812 21.2414 39.2973 23.337C39.5875 23.9436 39.9657 24.504 40.4198 25C39.9657 25.496 39.5875 26.0564 39.2973 26.663C38.2812 28.7586 38.2812 31.2166 38.2812 33.5938C38.2812 38.6595 37.921 39.8438 34.375 39.8438C33.7534 39.8438 33.1573 40.0907 32.7177 40.5302C32.2782 40.9698 32.0312 41.5659 32.0312 42.1875C32.0312 42.8091 32.2782 43.4052 32.7177 43.8448C33.1573 44.2843 33.7534 44.5312 34.375 44.5312C38.1142 44.5312 40.6636 43.1831 41.9527 40.5245C42.9688 38.4289 42.9688 35.9709 42.9688 33.5938C42.9688 28.528 43.329 27.3438 46.875 27.3438C47.4966 27.3438 48.0927 27.0968 48.5323 26.6573C48.9718 26.2177 49.2188 25.6216 49.2188 25C49.2188 24.3784 48.9718 23.7823 48.5323 23.3427C48.0927 22.9032 47.4966 22.6562 46.875 22.6562Z" fill="#589ED5"/>
</svg>
