<svg width="50" height="50" viewBox="0 0 50 50" fill="none" xmlns="http://www.w3.org/2000/svg">
<path d="M17.7995 6.9694C16.7811 6.9694 15.8367 7.19737 15 7.67904C12.3852 9.18869 11.3899 12.8676 11.9173 17.4479C7.68783 19.2814 5 21.9811 5 25C5 28.0189 7.68783 30.7186 11.9173 32.5521C11.3902 37.1322 12.3852 40.8113 15 42.321C15.835 42.8026 16.7795 43.0306 17.7995 43.0306C19.9705 43.0306 22.4797 41.941 25 40.0716C27.5205 41.941 30.0327 43.0306 32.2038 43.0306C33.2221 43.0306 34.1666 42.8026 35.0033 42.321C37.618 40.8113 38.6133 37.1324 38.0859 32.5521C42.3138 30.7186 45 28.0182 45 25C45 21.9811 42.3122 19.2814 38.0827 17.4479C38.6098 12.8678 37.6148 9.18869 35 7.67904C34.165 7.1957 33.2205 6.9694 32.2005 6.9694C30.0295 6.9694 27.5203 8.05902 25 9.92839C22.4796 8.05902 19.9698 6.9694 17.7995 6.9694ZM17.7995 9.88607C19.1022 9.88607 20.8249 10.5787 22.6953 11.862C21.5956 12.8998 20.5186 14.0799 19.4824 15.3939C17.8018 15.6349 16.2172 15.9862 14.7493 16.4258C14.7415 16.324 14.7228 16.2172 14.7168 16.1165C14.5385 13.1499 15.19 10.9384 16.4583 10.2051C16.8333 9.98841 17.2711 9.88607 17.7995 9.88607ZM32.2005 9.88607C32.7272 9.88607 33.1667 9.98841 33.5417 10.2051C34.81 10.9367 35.4615 13.1499 35.2832 16.1165C35.2772 16.2172 35.2586 16.324 35.2507 16.4258C33.7818 15.9859 32.1961 15.6349 30.5143 15.3939C29.4782 14.0801 28.4044 12.8997 27.3047 11.862C29.1749 10.579 30.8985 9.88607 32.2005 9.88607ZM25 13.7142C25.4518 14.1254 25.9004 14.5601 26.3542 15.0358C25.9045 15.0207 25.4573 15 25 15C24.5438 15 24.0977 15.0208 23.6491 15.0358C24.1024 14.5606 24.5486 14.125 25 13.7142ZM25 17.9167C26.3811 17.9167 27.6902 17.9939 28.9323 18.1283C29.6898 19.1578 30.4363 20.2464 31.1361 21.4583C31.8068 22.6201 32.3999 23.8091 32.9232 25C32.3998 26.1916 31.8072 27.3825 31.1361 28.5449C30.4385 29.7534 29.6938 30.8349 28.9388 31.862C27.6529 32.0027 26.3337 32.0833 25 32.0833C23.6189 32.0833 22.3098 32.0061 21.0677 31.8717C20.3102 30.8422 19.5637 29.7569 18.8639 28.5449C18.1928 27.3825 17.6003 26.1916 17.0768 25C17.6 23.8091 18.1932 22.6201 18.8639 21.4583C19.5618 20.2498 20.306 19.1651 21.0612 18.138C22.3471 17.9973 23.6663 17.9167 25 17.9167ZM32.9102 18.8184C33.5714 18.978 34.2071 19.1503 34.8047 19.3424C34.6693 19.9542 34.5037 20.5777 34.3164 21.2077C34.1019 20.8052 33.894 20.4015 33.6621 20C33.4236 19.587 33.1587 19.2159 32.9102 18.8184ZM17.0866 18.8216C16.8388 19.218 16.5757 19.5883 16.3379 20C16.1061 20.4016 15.898 20.8052 15.6836 21.2077C15.4958 20.5764 15.3276 19.9522 15.1921 19.3392C15.8006 19.1469 16.4347 18.9766 17.0866 18.8216ZM12.4479 20.4102C12.7991 21.8929 13.2862 23.4299 13.9128 24.9967C13.2875 26.5599 12.8025 28.0941 12.4512 29.5736C9.54872 28.172 7.91667 26.4273 7.91667 25C7.91667 23.535 9.50312 21.8654 12.1615 20.5371C12.2522 20.4917 12.3552 20.4545 12.4479 20.4102ZM37.5488 20.4264C40.4513 21.828 42.0833 23.5727 42.0833 25C42.0833 26.465 40.4969 28.1346 37.8385 29.4629C37.7478 29.5083 37.6448 29.5455 37.5521 29.5898C37.2007 28.1063 36.7176 26.5678 36.0905 25C36.715 23.4382 37.1978 21.9047 37.5488 20.4264ZM25 21.6667C23.1583 21.6667 21.6667 23.1583 21.6667 25C21.6667 26.8417 23.1583 28.3333 25 28.3333C26.8417 28.3333 28.3333 26.8417 28.3333 25C28.3333 23.1583 26.8417 21.6667 25 21.6667ZM15.6836 28.7923C15.8981 29.1949 16.1092 29.5983 16.3411 30C16.5794 30.4127 16.8415 30.7843 17.0898 31.1816C16.4286 31.022 15.7929 30.8497 15.1953 30.6576C15.3308 30.0454 15.4961 29.4227 15.6836 28.7923ZM34.3164 28.7956C34.5039 29.4263 34.6725 30.0484 34.8079 30.6608C34.1994 30.8531 33.5653 31.0234 32.9134 31.1784C33.1612 30.782 33.4243 30.4117 33.6621 30C33.8934 29.5993 34.1024 29.1972 34.3164 28.7956ZM14.7493 33.5742C16.2182 34.0141 17.8039 34.3651 19.4857 34.6061C20.5221 35.9206 21.5951 37.1032 22.6953 38.1413C20.8251 39.4241 19.1021 40.1172 17.7995 40.1172C17.2728 40.1172 16.8333 40.0116 16.4583 39.7949C15.19 39.0633 14.5385 36.8534 14.7168 33.8867C14.7229 33.785 14.7413 33.6771 14.7493 33.5742ZM35.2507 33.5742C35.2586 33.6771 35.2771 33.785 35.2832 33.8867C35.4615 36.8534 34.81 39.0616 33.5417 39.7949C33.1667 40.0116 32.7289 40.1172 32.2005 40.1172C30.8979 40.1172 29.1749 39.4243 27.3047 38.1413C28.4049 37.1031 29.4809 35.9208 30.5176 34.6061C32.1982 34.3651 33.7828 34.0138 35.2507 33.5742ZM23.6458 34.9642C24.0955 34.9793 24.5427 35 25 35C25.4573 35 25.9045 34.9793 26.3542 34.9642C25.9004 35.4399 25.4518 35.8746 25 36.2858C24.5482 35.8746 24.0996 35.4399 23.6458 34.9642Z" fill="#7ED0EF"/>
</svg>
