<svg width="64" height="66" viewBox="0 0 64 66" fill="none" xmlns="http://www.w3.org/2000/svg">
<rect width="64" height="66" fill="white"/>
<ellipse cx="16.8105" cy="16.5953" rx="16.8105" ry="16.5953" transform="matrix(0.601652 0.798758 -0.778662 0.627444 33.0752 10.2266)" fill="#FFF5EC"/>
<rect width="1.33728" height="4.72021" rx="0.668638" transform="matrix(-0.675494 0.737366 -0.718854 -0.695161 14.9541 18.7346)" fill="#6DC9B7"/>
<rect width="1.34557" height="5.11472" rx="0.672786" transform="matrix(-0.14408 0.989566 -0.990608 -0.13673 10.2031 35.2493)" fill="#6DC9B7"/>
<rect width="1.31264" height="4.73956" rx="0.656318" transform="matrix(0.632883 0.774248 -0.755511 0.655136 18.1016 49.7727)" fill="#6DC9B7"/>
<rect width="1.30363" height="4.77079" rx="0.651814" transform="matrix(0.998562 -0.0536129 0.0392563 0.999229 33.3066 54.7219)" fill="#6DC9B7"/>
<rect width="1.34257" height="4.63269" rx="0.671287" transform="matrix(0.698324 -0.715782 0.702852 0.711337 48.9863 46.9021)" fill="#6DC9B7"/>
<rect width="1.34123" height="4.6376" rx="0.670615" transform="matrix(-0.0167572 -0.99986 0.99928 -0.0379352 53.3633 31.7786)" fill="#6DC9B7"/>
<rect width="1.31143" height="4.74376" rx="0.655716" transform="matrix(-0.665616 -0.746294 0.727396 -0.686217 45.5029 16.2026)" fill="#6DC9B7"/>
<rect width="1.30222" height="4.50394" rx="0.651111" transform="matrix(-0.999948 0.010181 -0.00154017 -0.999999 29.3896 11.2461)" fill="#6DC9B7"/>
<ellipse cx="9.69432" cy="9.48329" rx="9.69432" ry="9.48329" transform="matrix(0.601652 0.798758 -0.778662 0.627444 33.6064 19.334)" fill="#6DC9B7"/>
<path d="M26.8911 57.9516V56.0279C26.8911 54.8572 26.2206 53.7898 25.1659 53.2817L22.6304 52.06C21.4631 51.4976 20.0678 51.7345 19.1516 52.6507L17.5607 54.2417C16.3805 55.4218 14.4707 55.4335 13.2762 54.2679L10.7019 51.7559C9.46284 50.5468 9.47819 48.5498 10.7357 47.3599L12.2031 45.9714C13.0981 45.1245 13.3952 43.8222 12.9562 42.671L11.8894 39.8735C11.4388 38.692 10.3056 37.9113 9.04105 37.9113H6.73784C5.05426 37.9113 3.68945 36.5465 3.68945 34.8629V31.5887C3.68945 29.9051 5.05426 28.5403 6.73784 28.5403H9.02239C10.2961 28.5403 11.4356 27.7484 11.8796 26.5545L12.965 23.6359C13.398 22.4717 13.0813 21.1612 12.1644 20.3232L10.73 19.0121C9.46849 17.8592 9.40115 15.8946 10.5807 14.658L13.2771 11.8311C14.4585 10.5925 16.428 10.5692 17.6384 11.7796L19.2843 13.4255C20.1342 14.2754 21.4043 14.5466 22.5272 14.1178L24.93 13.2004C26.1109 12.7495 26.8911 11.6166 26.8911 10.3525V8.04839C26.8911 6.36481 28.2559 5 29.9395 5H33.383C35.0666 5 36.4314 6.36481 36.4314 8.04839V10.2948C36.4314 11.5873 37.2464 12.7393 38.4652 13.1694L41.2699 14.1593C42.4115 14.5623 43.6835 14.2514 44.5106 13.3672L45.882 11.9012C47.0689 10.6324 49.0746 10.6107 50.2887 11.8535L52.9925 14.6211C54.2099 15.8674 54.1371 17.8787 52.8327 19.0337L51.3754 20.324C50.4323 21.159 50.1 22.4882 50.5391 23.6689L51.6122 26.5545C52.0562 27.7484 53.1957 28.5403 54.4694 28.5403H57.262C58.9456 28.5403 60.3104 29.9051 60.3104 31.5887V34.8629C60.3104 36.5465 58.9456 37.9113 57.262 37.9113H54.4508C53.1862 37.9113 52.053 38.692 51.6025 39.8735L50.5481 42.6382C50.1028 43.8059 50.4153 45.1271 51.3365 45.9715L52.8253 47.3362C54.1261 48.5286 54.1458 50.5731 52.8682 51.7904L50.2877 54.2489C49.0609 55.4177 47.1164 55.3618 45.9588 54.1244L44.6323 52.7064C43.7446 51.7575 42.3529 51.4756 41.1659 52.0043L38.2395 53.3076C37.1398 53.7974 36.4314 54.8885 36.4314 56.0923V57.9516C36.4314 59.6352 35.0666 61 33.383 61H29.9395C28.2559 61 26.8911 59.6352 26.8911 57.9516Z" stroke="#3A85D0" stroke-width="0.871094" stroke-linecap="round"/>
<path d="M46.5919 32.9459C46.5919 36.5438 45.2503 40.0134 42.8273 42.6813C40.4044 45.3492 37.073 47.0252 33.4796 47.384C29.8863 47.7427 26.2873 46.7586 23.3812 44.6227C20.4751 42.4869 18.4691 39.3515 17.7525 35.8251C17.036 32.2988 17.6599 28.6329 19.5033 25.5391C21.3467 22.4452 24.2781 20.144 27.7285 19.082C31.179 18.0201 34.9024 18.2731 38.1761 19.792C41.4498 21.3109 44.0404 23.9874 45.445 27.302" stroke="#3A85D0" stroke-width="0.871094" stroke-linecap="round"/>
<path d="M22.548 33.3815C22.4631 31.0498 23.2509 28.7697 24.7583 26.9836C26.2658 25.1974 28.3855 24.0327 30.7061 23.7154C33.0267 23.3981 35.3826 23.9509 37.3166 25.2665C39.2506 26.5821 40.6248 28.5666 41.1724 30.8349C41.7201 33.1033 41.4022 35.4937 40.2804 37.5421C39.1586 39.5906 37.3129 41.1511 35.1015 41.9207C32.8902 42.6904 30.4709 42.6143 28.3132 41.7072C26.1555 40.8001 24.4132 39.1268 23.4246 37.0119" stroke="#3A85D0" stroke-width="0.871094" stroke-linecap="round"/>
</svg>
