<svg width="50" height="50" viewBox="0 0 50 50" fill="none" xmlns="http://www.w3.org/2000/svg">
<path d="M38.7669 12.2709C38.7429 12.0511 38.5471 11.9532 38.4013 11.9532C38.2554 11.9532 35.0575 11.7095 35.0575 11.7095C35.0575 11.7095 32.8367 9.48862 32.5679 9.26883C32.3242 9.02508 31.8596 9.098 31.6648 9.14696C31.6409 9.14696 31.1763 9.29383 30.42 9.53758C29.6638 7.36467 28.37 5.38758 26.0513 5.38758H25.8315C25.195 4.55737 24.3659 4.16675 23.6825 4.16675C18.3127 4.16675 15.7252 10.8792 14.92 14.297C12.8211 14.9563 11.3315 15.3949 11.1606 15.4688C9.98877 15.8345 9.96481 15.8595 9.81794 16.9574C9.69606 17.7876 6.64502 41.3907 6.64502 41.3907L30.395 45.8334L43.2836 43.0511C43.3075 43.0022 38.7919 12.4907 38.7669 12.2709ZM29.1013 9.87821C28.5159 10.049 27.8075 10.2688 27.1002 10.5126V10.074C27.1002 8.75633 26.9294 7.68237 26.6117 6.82716C27.8315 6.97404 28.5888 8.31675 29.1013 9.87821ZM25.1221 7.09591C25.4398 7.92612 25.6596 9.098 25.6596 10.7084V10.9522C24.3419 11.3667 22.9502 11.7824 21.5096 12.2459C22.3148 9.17091 23.8534 7.65737 25.1221 7.09591ZM23.5596 5.58237C23.8034 5.58237 24.0481 5.68029 24.2429 5.82612C22.5096 6.63133 20.6794 8.65737 19.9221 12.7584C18.7752 13.124 17.6763 13.4417 16.6273 13.7834C17.5065 10.6595 19.7034 5.58237 23.5596 5.58237Z" fill="#7CB342"/>
<path d="M38.4011 11.9042C38.2542 11.9042 35.0574 11.6605 35.0574 11.6605C35.0574 11.6605 32.8365 9.43966 32.5678 9.21987C32.4688 9.12196 32.3469 9.073 32.2501 9.073L30.4678 45.8334L43.3563 43.0511C43.3563 43.0511 38.8407 12.4907 38.8157 12.2709C38.7178 12.0511 38.5469 11.9532 38.4011 11.9042Z" fill="#558B2F"/>
<path d="M25.8248 19.3678L24.2883 24.0021C24.2883 24.0021 22.8956 23.2573 21.2394 23.2573C18.7664 23.2573 18.6466 24.8178 18.6466 25.2021C18.6466 27.3146 24.1685 28.1313 24.1685 33.1011C24.1685 37.0146 21.6956 39.5355 18.3581 39.5355C14.3248 39.5355 12.3081 37.0386 12.3081 37.0386L13.3883 33.4855C13.3883 33.4855 15.5008 35.3105 17.2779 35.3105C18.4539 35.3105 18.9341 34.398 18.9341 33.7261C18.9341 30.9646 14.4206 30.8448 14.4206 26.2834C14.4206 22.4657 17.1581 18.7688 22.7039 18.7688C24.7675 18.7438 25.8248 19.3678 25.8248 19.3678Z" fill="white"/>
</svg>
