<svg width="50" height="50" viewBox="0 0 50 50" fill="none" xmlns="http://www.w3.org/2000/svg">
<path d="M11.0521 23.25L23.5417 10.6958C24.2847 9.94708 25.1687 9.3528 26.1425 8.94725C27.1163 8.5417 28.1607 8.33291 29.2156 8.33291C30.2705 8.33291 31.315 8.5417 32.2888 8.94725C33.2626 9.3528 34.1465 9.94708 34.8896 10.6958C35.2485 11.0858 35.4429 11.5992 35.4325 12.129C35.422 12.6588 35.2074 13.1642 34.8333 13.5396C34.6476 13.7272 34.4264 13.8762 34.1827 13.9778C33.939 14.0795 33.6776 14.1318 33.4135 14.1318C33.1495 14.1318 32.8881 14.0795 32.6444 13.9778C32.4007 13.8762 32.1795 13.7272 31.9938 13.5396L31.8063 13.3208C31.0391 12.6674 30.0535 12.328 29.0467 12.3705C28.04 12.413 27.0864 12.8343 26.3771 13.55L13.6104 26.3833C12.7708 27.1625 11.5 27.1625 10.7188 26.375C10.5064 26.1615 10.3443 25.9032 10.2445 25.619C10.1447 25.3349 10.1095 25.032 10.1417 24.7326C10.1738 24.4331 10.2724 24.1446 10.4303 23.8881C10.5882 23.6316 10.8013 23.4136 11.0542 23.25H11.0521ZM39.0854 23.5229C38.8737 23.3094 38.6165 23.1465 38.3331 23.0461C38.0497 22.9457 37.7473 22.9105 37.4484 22.9432C37.1495 22.9758 36.8618 23.0754 36.6067 23.2346C36.3516 23.3937 36.1357 23.6084 35.975 23.8625L23.5417 36.3667C23.1699 36.7408 22.7278 37.0378 22.2408 37.2404C21.7539 37.443 21.2316 37.5473 20.7042 37.5473C20.1767 37.5473 19.6545 37.443 19.1675 37.2404C18.6805 37.0378 18.2384 36.7408 17.8667 36.3667L17.8104 36.3562C17.6245 36.1692 17.4035 36.0207 17.16 35.9194C16.9165 35.8181 16.6554 35.7659 16.3917 35.7659C16.1279 35.7659 15.8668 35.8181 15.6233 35.9194C15.3799 36.0207 15.1588 36.1692 14.9729 36.3562C14.7613 36.5688 14.5997 36.8256 14.4996 37.1083C14.3995 37.391 14.3635 37.6924 14.3942 37.9907C14.4249 38.289 14.5215 38.5767 14.6771 38.8331C14.8327 39.0894 15.0433 39.308 15.2938 39.4729C16.8161 40.871 18.8207 41.6253 20.887 41.5775C22.9534 41.5297 24.921 40.6836 26.3771 39.2167L39.0875 26.375C39.4637 25.9957 39.6748 25.4832 39.6748 24.949C39.6748 24.4148 39.4637 23.9022 39.0875 23.5229H39.0854ZM19.5646 31.8062C19.3114 31.9696 19.098 32.1875 18.9399 32.444C18.7818 32.7005 18.683 32.9891 18.6509 33.2887C18.6187 33.5883 18.6539 33.8912 18.754 34.1755C18.8541 34.4597 19.0164 34.7179 19.2292 34.9312C20.0104 35.7167 21.2792 35.7167 22.1208 34.9396L34.8875 22.1042C35.2591 21.7301 35.701 21.4332 36.1878 21.2306C36.6746 21.028 37.1967 20.9237 37.724 20.9237C38.2512 20.9237 38.7733 21.028 39.2601 21.2306C39.7469 21.4332 40.1888 21.7301 40.5604 22.1042C41.3138 22.8622 41.7367 23.8875 41.7367 24.9562C41.7367 26.025 41.3138 27.0503 40.5604 27.8083L28.4563 40.0375C28.828 40.4113 29.2699 40.708 29.7567 40.9105C30.2435 41.1129 30.7655 41.2171 31.2927 41.2171C31.8199 41.2171 32.3419 41.1129 32.8287 40.9105C33.3155 40.708 33.7574 40.4113 34.1292 40.0375L43.4 30.6625C44.9054 29.1453 45.7502 27.0946 45.7502 24.9573C45.7502 22.82 44.9054 20.7693 43.4 19.2521C42.6565 18.5038 41.7723 17.9099 40.7983 17.5046C39.8244 17.0994 38.7799 16.8907 37.725 16.8907C36.6701 16.8907 35.6256 17.0994 34.6517 17.5046C33.6777 17.9099 32.7935 18.5038 32.05 19.2521L19.5625 31.8062H19.5646ZM17.8646 30.6604L30.5729 17.8187C30.9496 17.4397 31.1611 16.9271 31.1611 16.3927C31.1611 15.8583 30.9496 15.3457 30.5729 14.9667C30.3614 14.7532 30.1044 14.5902 29.8211 14.4899C29.5379 14.3895 29.2356 14.3543 28.9369 14.3869C28.6381 14.4196 28.3506 14.5192 28.0957 14.6784C27.8408 14.8375 27.6251 15.0522 27.4646 15.3062L15.0271 27.8125C14.6556 28.1868 14.2138 28.484 13.727 28.6867C13.2401 28.8895 12.718 28.9939 12.1906 28.9939C11.6633 28.9939 11.1411 28.8895 10.6543 28.6867C10.1675 28.484 9.72562 28.1868 9.35417 27.8125C8.60014 27.0544 8.17687 26.0286 8.17687 24.9594C8.17687 23.8901 8.60014 22.8644 9.35417 22.1062L21.4604 9.87917C21.0889 9.50451 20.6469 9.20712 20.1599 9.00418C19.6729 8.80123 19.1505 8.69674 18.6229 8.69674C18.0953 8.69674 17.5729 8.80123 17.0859 9.00418C16.5989 9.20712 16.1569 9.50451 15.7854 9.87917L6.51667 19.2542C5.01202 20.7709 4.16772 22.8208 4.16772 24.9573C4.16772 27.0938 5.01202 29.1437 6.51667 30.6604C7.2596 31.4094 8.14347 32.0039 9.11731 32.4096C10.0911 32.8153 11.1357 33.0242 12.1906 33.0242C13.2456 33.0242 14.2901 32.8153 15.264 32.4096C16.2378 32.0039 17.1217 31.4094 17.8646 30.6604V30.6604Z" fill="black"/>
</svg>
