<svg width="64" height="64" viewBox="0 0 64 64" fill="none" xmlns="http://www.w3.org/2000/svg">
<path d="M49.2797 35.2048C48.2497 30.5648 46.8597 26.0248 45.1497 21.5948C45.1097 21.6148 45.0897 21.6548 45.0497 21.6748C44.9097 21.7448 44.7697 21.7748 44.6197 21.7948C36.4197 22.4348 28.3997 23.6248 20.1797 24.2048C19.8497 24.2348 19.5397 24.0648 19.3797 23.7748C18.8897 22.8648 18.1897 21.4648 17.6397 20.4048C17.4297 19.9948 17.5897 19.4848 17.9997 19.2748C18.0597 19.2448 18.1197 19.2248 18.1897 19.2048C26.8097 17.4348 35.2397 17.0648 43.0597 16.6748L42.7197 15.9148C41.4297 13.1348 39.8197 10.3648 37.6297 8.73485C35.1097 6.86485 30.7097 8.40485 27.8697 8.68485C21.8397 8.26485 15.7997 9.23485 10.2097 11.5248C9.70973 11.6748 9.27973 11.9848 8.96973 12.4048C8.71973 13.1148 8.78973 13.9048 9.17973 14.5548C10.9697 19.2448 12.3797 24.0648 13.4097 28.9748C15.3397 37.2748 17.3297 45.8248 19.0797 54.1648C19.3797 55.5848 19.8397 57.1648 21.1497 57.8048C22.7897 58.5848 24.5997 57.4348 26.2297 57.1948C27.0897 57.0648 27.9397 56.9548 28.7997 56.8348L49.6397 53.5048C49.6397 53.5048 50.0297 53.4348 50.2497 53.2648C50.3197 53.2148 50.3997 53.1548 50.4697 53.0948C51.1397 52.2448 51.4597 51.1748 51.3597 50.0948C51.4697 45.0648 50.3997 40.0748 49.2797 35.2048ZM42.8597 51.1048C39.4397 51.6248 34.1897 52.8948 30.4997 53.0848C30.1697 53.1148 29.8597 52.9448 29.6997 52.6548C29.4297 51.9848 29.1997 51.0048 29.0797 50.6148C28.8697 50.2048 29.0297 49.6948 29.4397 49.4848C29.4997 49.4548 29.5597 49.4348 29.6297 49.4148C32.7597 48.8948 39.4297 47.8748 42.6197 47.6648C42.9297 47.6648 43.0397 47.9448 43.2297 48.1848L43.5297 48.9648C43.8097 49.5548 44.0497 50.8448 42.8597 51.1048ZM47.3997 44.8448C46.8797 45.3948 46.1497 45.6948 45.3997 45.6648L26.2597 47.9048C24.6197 41.9948 22.9997 36.0948 21.3997 30.1848C21.0797 29.3848 21.0797 28.4848 21.3997 27.6848C21.9897 26.9448 22.8697 26.4948 23.8097 26.4548C28.0397 25.6848 32.3197 25.1548 36.6097 24.8648C37.6197 24.7348 38.6297 24.6448 39.6497 24.5948C40.6697 24.5448 41.6797 24.5248 42.6997 24.5448C44.2797 24.6848 44.9397 25.9448 45.3297 27.3848C46.7197 32.5748 47.5397 37.8948 47.7797 43.2648C47.8297 43.8148 47.6897 44.3748 47.3997 44.8448Z" fill="#FFF5EC"/>
<path d="M13.6199 58.2863C13.9099 54.5763 13.4999 50.8463 12.3999 47.2863C12.1099 46.2863 11.6199 45.2863 10.6399 45.0363C9.78992 44.8963 8.99992 45.4763 8.85992 46.3163C8.83992 46.4663 8.82992 46.6263 8.85992 46.7863C9.10992 47.5763 9.94992 48.0163 10.7399 47.7763C10.9099 47.7263 11.0699 47.6363 11.2099 47.5263C11.6799 46.9463 11.8899 46.1963 11.7899 45.4563C11.7099 40.6463 10.4699 35.9263 8.16992 31.7063" stroke="#3A85D0" stroke-miterlimit="10" stroke-linecap="round"/>
<path d="M41.5715 14.7524C41.0915 13.4324 38.8015 9.86242 37.8715 8.81242C36.6715 7.63242 35.0115 7.73242 33.3415 7.81242C28.7615 8.02242 24.1915 8.49242 19.6415 9.07242C18.5515 9.20242 7.89143 11.0724 8.17143 11.7124C16.1715 30.3224 19.9015 48.2324 20.4715 55.0324C20.6015 56.4724 21.8715 57.5424 23.3115 57.4124C23.3615 57.4124 23.4215 57.4024 23.4715 57.3924C31.9015 56.0324 40.9715 54.3924 49.2015 53.1124C49.7615 53.0824 50.2915 52.8724 50.7215 52.5124C51.0715 52.0124 51.2315 51.3924 51.1515 50.7824C50.9615 46.4724 50.5515 42.1724 49.9115 37.9024" stroke="#3A85D0" stroke-linecap="round" stroke-linejoin="round"/>
<path d="M43.6989 18.3216C44.0189 19.0116 44.1589 19.3216 44.5489 20.1016C44.8389 20.7016 44.5789 21.4316 43.9789 21.7116C43.8389 21.7816 43.6989 21.8116 43.5489 21.8316C35.3489 22.4716 27.3289 23.6616 19.1089 24.2416C18.7789 24.2716 18.4689 24.1016 18.3089 23.8116C17.8189 22.9016 17.1189 21.5016 16.5689 20.4416C16.3589 20.0316 16.5189 19.5216 16.9289 19.3116C16.9889 19.2816 17.0489 19.2616 17.1189 19.2416C25.9389 17.4316 34.5789 17.0816 42.5489 16.6816C42.8589 16.6816 42.9689 16.9616 43.1589 17.2016" stroke="#3A85D0" stroke-miterlimit="10" stroke-linecap="round"/>
<path d="M45.752 29.7918C46.642 34.5818 47.202 39.2718 47.752 44.1218C47.842 44.5418 47.732 44.9818 47.442 45.3018C47.202 45.4518 46.912 45.5218 46.632 45.5018C40.512 45.6618 33.782 47.0118 27.572 47.6918C26.792 47.7718 26.072 47.3018 25.822 46.5618C24.152 41.3418 23.012 35.4618 21.242 30.3618C21.012 29.8618 20.942 29.3018 21.052 28.7618C21.352 27.8918 22.452 27.6318 23.362 27.5218L33.092 26.3018C34.712 26.1018 36.342 25.8818 37.962 25.6918C39.282 25.5318 40.592 25.1018 41.892 25.0218C42.552 24.9518 43.212 25.1218 43.762 25.4818C43.892 25.5718 44.012 25.6718 44.112 25.7918C44.452 26.2418 44.702 26.7518 44.822 27.3018" fill="#67C7B4"/>
<path d="M45.752 29.7918C46.642 34.5818 47.202 39.2718 47.752 44.1218C47.842 44.5418 47.732 44.9818 47.442 45.3018C47.202 45.4518 46.912 45.5218 46.632 45.5018C40.512 45.6618 33.782 47.0118 27.572 47.6918C26.792 47.7718 26.072 47.3018 25.822 46.5618C24.152 41.3418 23.012 35.4618 21.242 30.3618C21.012 29.8618 20.942 29.3018 21.052 28.7618C21.352 27.8918 22.452 27.6318 23.362 27.5218L33.092 26.3018C34.712 26.1018 36.342 25.8818 37.962 25.6918C39.282 25.5318 40.592 25.1018 41.892 25.0218C42.552 24.9518 43.212 25.1218 43.762 25.4818C43.892 25.5718 44.012 25.6718 44.112 25.7918C44.452 26.2418 44.702 26.7518 44.822 27.3018M30.9219 41.3306C33.4219 40.8306 40.312 39.3306 42.4219 39.3306M28.9219 33.3306C31.4219 32.8306 38.312 31.3306 40.4219 31.3306M29.9219 37.3306C32.4219 36.8306 39.312 35.3306 41.4219 35.3306" stroke="#3A85D0" stroke-miterlimit="10"/>
<path d="M43.501 50.0029C43.791 50.6029 44.0509 51.4446 42.8509 51.7046C39.4309 52.2246 34.1809 53.4946 30.4909 53.6846C30.1609 53.7146 29.8509 53.5447 29.6909 53.2547C29.4209 52.5847 29.1909 51.6046 29.0709 51.2146C28.8609 50.8046 29.0209 50.2946 29.4309 50.0846C29.4909 50.0546 29.5509 50.0346 29.6209 50.0146C32.7509 49.4946 39.4209 48.4746 42.6109 48.2646C42.9209 48.2646 43.0309 48.5446 43.2209 48.7846" stroke="#3A85D0" stroke-miterlimit="10" stroke-linecap="round"/>
<path d="M47.4014 44.8447C47.6914 44.3747 47.8314 43.8146 47.7814 43.2646C47.8214 43.8146 47.6914 44.3747 47.4014 44.8447Z" fill="#FFF5EC"/>
<path d="M32.0203 52.0022C31.9077 51.6922 32.2829 51.3922 32.6831 51.3322C33.1083 51.3122 33.5336 51.3522 33.9338 51.4522C34.3215 51.5422 34.7467 51.4922 35.0844 51.3022C35.3845 51.0822 35.5221 50.6422 35.9223 50.6322C36.3225 50.6222 36.4851 50.9822 36.7853 51.1322C37.0854 51.2922 37.9109 51.0922 38.3111 50.7622C38.7113 50.4322 39.124 50.0322 39.6868 50.0022C40.3121 50.0122 40.8499 50.3522 41 50.8322" stroke="#3A85D0" stroke-linejoin="round"/>
<path fill-rule="evenodd" clip-rule="evenodd" d="M47.9164 5.96076C49.0227 4.4394 51.087 4.00391 52.6498 4.00391C52.9008 4.00391 53.1042 4.20733 53.1042 4.45827C53.1042 4.70921 52.9008 4.91264 52.6498 4.91264C51.1747 4.91264 49.4938 5.33541 48.6504 6.49644L48.6481 6.49967C47.8034 7.64145 47.7259 9.10328 48.2124 10.378C48.6999 11.6555 49.7298 12.6819 51.0186 12.978C52.171 13.229 53.5926 13.0829 54.4616 12.3498L54.4639 12.3478C55.4311 11.5429 56.0222 10.2144 56.0856 8.86807C56.1488 7.52516 55.686 6.23977 54.6462 5.46656C54.4449 5.31682 54.403 5.03219 54.5527 4.83082C54.7025 4.62945 54.9871 4.58759 55.1885 4.73733C56.5306 5.73537 57.0668 7.34849 56.9933 8.91079C56.9199 10.4692 56.239 12.0521 55.0464 13.0453C53.8801 14.0284 52.1275 14.1503 50.8225 13.8653L50.8179 13.8644C49.1787 13.4889 47.9381 12.2079 47.3634 10.702C46.7875 9.19302 46.8562 7.39507 47.9164 5.96076Z" fill="#3A85D0"/>
</svg>
