<svg width="64" height="69" viewBox="0 0 64 69" fill="none" xmlns="http://www.w3.org/2000/svg">
<ellipse cx="32.6276" cy="35.2493" rx="24.569" ry="25.7503" fill="#EDF2FA"/>
<path d="M45.9034 18.3562L47.6866 15.6782L50.6587 18.3562L56.4046 28.0383L56.999 32.7764L55.8102 32.1584L53.6307 31.1284V32.7764L56.999 36.0724L56.4046 39.1624L55.0177 39.7805L54.4233 41.2225L55.8102 43.4885L51.0549 51.5226L49.8661 52.5526L47.6866 45.9605L45.9034 39.1624H41.3462L37.5816 36.0724L36.7891 32.7764L38.7704 29.6864L43.1294 28.0383L47.0922 29.0684H49.0736L52.8382 29.6864L53.2344 28.0383L52.8382 25.9783H49.0736L47.6866 24.1243L40.7518 25.9783V23.5063L39.563 22.2703V19.5923L40.7518 18.3562L43.1294 16.9142L45.9034 18.3562Z" fill="#6DC9B7" stroke="#6DC9B7" strokeWidth="0.396274"/>
<path d="M28.2689 17.1211L23.3154 11.559L27.6744 9.49902H32.4297L36.3925 10.941L34.8074 14.8551L28.2689 17.1211Z" fill="#6DC9B7"/>
<path d="M22.9202 16.0916L20.9388 13.8256L20.1462 13.4136L17.9667 14.8556L14.4003 18.3576L11.4282 22.6837L9.64498 26.5977L8.6543 31.7478L19.1556 38.5458L18.363 41.8419L20.9388 46.9919L20.1462 56.056L22.9202 57.498L27.2792 53.584L28.6661 50.0819L31.6382 46.9919L32.2326 42.6659L28.6661 40.3998L25.0997 35.8678L21.7313 36.2798L14.4003 30.7177L17.9667 30.0997L26.6848 20.6236L26.2885 18.3576L22.9202 16.0916Z" fill="#6DC9B7" stroke="#6DC9B7" strokeWidth="0.396274"/>
<path d="M55.0841 9.11578C54.6086 9.88486 54.1331 11.423 53.9217 12.5766C53.6575 14.5542 53.7104 14.6641 54.3973 13.6204C55.3483 12.3019 56.6164 8.45658 56.2465 8.01711C56.088 7.90724 55.5597 8.34671 55.0841 9.11578Z" fill="#017FDF"/>
<path d="M27.3454 9.33443C26.6057 9.49923 24.2809 10.4331 22.1675 11.4768C12.4984 16.0913 6.47501 27.6274 8.21862 38.3395C10.5434 52.8421 23.1714 62.895 36.2748 60.5877C45.8382 58.9397 53.3939 52.2378 56.4584 42.6244C57.4094 39.6579 57.568 38.1198 57.3566 33.4504C57.1981 28.2317 57.0396 27.4626 55.1903 23.6172C50.752 14.2785 42.4039 8.84002 32.6819 9.00483C30.4628 9.05976 28.0852 9.22456 27.3454 9.33443ZM35.2709 10.8726C36.3805 12.2459 34.9539 14.4433 33.0518 14.4433C32.2592 14.4433 31.0968 14.9377 30.5156 15.542C29.1419 16.9702 28.5079 16.9153 28.2965 15.3772C28.1908 14.6081 27.3983 13.7841 26.0774 13.1249C23.7526 11.9163 24.1224 11.4219 28.0323 10.6528C31.7309 9.88377 34.5312 9.99363 35.2709 10.8726ZM40.3432 11.8065C44.1475 13.5094 46.3666 15.1574 46.3666 16.2012C46.3666 17.6294 45.3627 17.959 44.2003 16.8604C43.1964 15.9265 43.0907 15.9265 41.3471 16.8604C39.9734 17.6294 39.445 18.3985 39.1808 19.7719C38.9695 20.8705 39.0752 21.9143 39.3922 22.2439C39.7092 22.5735 39.8149 23.5074 39.6564 24.3863C39.2865 26.4189 40.8188 27.3527 42.8266 26.2541C43.5663 25.8695 44.8872 25.3751 45.7326 25.1554C47.0535 24.8807 47.3705 24.9906 47.6875 25.9794C48.0045 26.9682 48.3744 27.133 50.2237 26.9682C52.2315 26.8583 52.4428 26.9682 52.6013 28.1218C52.8127 29.3304 52.6542 29.4402 50.752 29.1106L48.7443 28.836L50.435 29.66C52.6013 30.8136 53.8694 29.9346 53.6581 27.4077C53.4995 25.8146 53.3939 25.7047 51.1747 25.7047C49.2726 25.7047 48.7443 25.485 48.3216 24.4412C47.6875 22.958 47.1063 22.958 43.989 24.3314C41.4 25.485 40.0791 25.3202 41.083 24.0567C41.5056 23.5074 41.4 23.0679 40.5546 22.2439C39.128 20.8705 39.5507 18.6732 41.4 17.8492C42.351 17.3548 42.9851 17.4097 44.2531 18.1788C45.8382 19.1127 45.9439 19.0577 46.9478 17.7942L47.9517 16.5308L49.5896 18.3436C52.8655 22.134 56.4056 28.836 56.4056 31.308C56.4056 32.0771 56.2999 32.077 55.3488 31.1981C54.1864 30.0994 52.707 30.429 52.707 31.8024C52.707 32.2968 53.5524 33.5603 54.5563 34.604C56.7754 36.9112 56.9339 38.7241 55.0846 39.603C53.6581 40.3171 53.4467 41.1411 54.3449 43.1737C54.979 44.6569 53.9222 47.3487 51.4389 50.425L50.118 52.073L49.1669 50.6996C48.5329 49.7658 48.2159 48.1177 48.1102 45.2062C47.8989 39.5481 46.9478 38.2846 43.3549 38.5043C41.1886 38.6691 40.4489 38.4494 39.128 37.2958C38.2298 36.5267 37.3844 35.2083 37.2259 34.3843C36.539 30.6488 41.083 27.3527 45.0985 28.7261C46.1024 29.0557 47.212 29.2205 47.5818 29.1106C47.9517 28.9458 47.7932 28.781 47.2648 28.781C46.7365 28.7261 45.6269 28.3415 44.7287 27.9021C41.2943 26.0343 36.3277 29.5501 36.3277 33.8899C36.3277 35.483 36.7504 36.4168 38.3883 38.1747L40.4489 40.4819L42.8794 39.8777C46.1024 39.1086 46.3666 39.5481 46.5251 45.371C46.6308 49.546 46.8421 50.2602 47.9517 51.5236L49.2726 52.9519L47.9517 54.0506C41.5585 59.3243 30.727 61.0272 23.9639 57.841L21.3749 56.6325L21.7976 53.2266C22.326 48.1177 22.326 47.898 20.4767 44.8217C19.1029 42.5145 18.8916 41.8003 19.3671 40.9214C19.6841 40.2622 19.9483 39.3833 19.9483 38.9438C19.9483 37.6254 14.8232 33.6701 13.1324 33.6701C12.3927 33.6701 11.1775 33.2856 10.4906 32.7912C9.43386 32.0221 9.32818 31.5277 9.53953 29.66C10.0151 26.1442 12.9211 20.6508 16.0913 17.4097C17.6764 15.7617 19.3143 14.4433 19.6313 14.4433C20.0012 14.4433 20.9522 15.1574 21.7448 16.0364C22.5902 16.9153 23.7526 17.7942 24.4394 17.959C25.1263 18.1238 25.8132 18.6732 25.9717 19.1676C26.3416 20.1015 24.0696 23.5074 22.4845 24.3863C21.9561 24.661 20.9522 25.8146 20.3182 26.9133C19.2086 28.7261 18.8388 28.9458 16.7781 28.9458C14.7175 29.0008 14.3477 29.1656 13.925 30.5389C13.4494 31.8573 13.5551 32.2419 14.4005 32.9011C14.9289 33.3405 15.8799 33.6701 16.514 33.6701C17.148 33.6701 18.3104 34.3843 19.1558 35.3182C20.371 36.6366 21.1107 36.9662 22.9072 36.9662C24.915 36.9662 25.2848 37.1859 26.2887 38.8889C27.0813 40.2073 27.9266 40.8665 29.1947 41.1411C31.2554 41.5257 31.8366 42.7342 31.3082 45.5359C31.0968 46.6895 30.41 47.8431 29.4589 48.6121C28.5607 49.2714 27.8738 50.0954 27.8738 50.425C27.8738 50.8095 26.9228 52.2378 25.7604 53.6111C23.3827 56.4128 22.9072 57.9509 25.0206 55.9184C25.8132 55.1493 26.6057 54.545 26.8699 54.545C27.0813 54.545 27.7681 53.4463 28.4022 52.073C29.0362 50.6996 29.9873 49.2714 30.5156 48.8868C31.9951 47.8431 33.1046 44.4921 32.6819 42.4046C32.3649 40.8115 31.9951 40.427 30.1458 39.8227C28.6664 39.3283 27.821 38.6691 27.5568 37.9C26.8699 35.5379 25.6547 34.7139 23.277 34.8237C21.5863 34.9336 20.7409 34.7139 19.7898 33.78C19.1029 33.1208 18.3104 32.5715 18.0462 32.5715C17.7292 32.5715 17.0423 32.1869 16.4611 31.7474C15.5101 30.9784 15.5629 30.9234 17.4122 31.253C19.3143 31.5826 19.3671 31.5277 20.5295 29.0008C21.2692 27.3527 22.4316 25.9794 23.6997 25.1004C24.8621 24.3863 25.7604 23.3975 25.7604 22.958C25.7604 22.5735 26.2887 21.8044 26.8699 21.3649C27.9267 20.5959 27.9795 20.3761 27.3454 18.838C26.9228 17.8492 26.0245 16.8604 25.0206 16.4209C24.1224 16.0364 22.9072 15.1574 22.326 14.4982C21.4806 13.4545 21.4278 13.1798 22.0618 12.7953C23.0657 12.1361 25.8132 13.8939 26.6586 15.7068C27.8738 18.1238 28.7192 18.5633 30.3571 17.4097C31.2025 16.8604 32.5234 16.4758 33.316 16.5857C35.4294 16.8054 37.3844 14.8278 37.3844 12.4107C37.3844 11.4219 37.4901 10.5979 37.5957 10.5979C37.7014 10.5979 38.9167 11.1472 40.3432 11.8065ZM56.6697 34.1645C57.1981 35.5379 56.3527 35.6478 55.296 34.2744C54.7676 33.5603 54.2921 32.7912 54.2921 32.5165C54.2921 31.8024 56.2999 33.2307 56.6697 34.1645ZM10.1207 34.7139C10.2792 34.9885 11.2303 35.3731 12.1814 35.5379C13.1324 35.7027 14.9289 36.6366 16.1441 37.5704C18.2047 39.1635 18.3632 39.4382 18.0462 41.1411C17.782 42.5145 18.0462 43.5582 19.0501 45.426C20.1597 47.5684 20.3182 48.3375 20.054 51.7434C19.7898 56.248 19.6313 56.248 15.5629 51.9631C11.7058 47.9529 8.85266 40.9214 8.85266 35.5379C8.85266 34.2195 9.59237 33.78 10.1207 34.7139ZM55.8772 41.4707C55.8772 42.3497 55.7187 42.5145 55.296 42.075C54.979 41.7454 54.8733 41.1961 55.0318 40.8665C55.613 39.9326 55.8772 40.1523 55.8772 41.4707Z" fill="#017FDF"/>
<path d="M59.9979 13.7843C58.5713 14.2237 56.6692 15.3224 55.771 16.1464L54.0273 17.6846L57.4617 16.3112C60.6319 15.0477 64.2776 12.7405 63.0096 12.8504C62.7454 12.9053 61.3716 13.2899 59.9979 13.7843Z" fill="#017FDF"/>
<path d="M58.7296 19.167C57.7786 19.9361 57.8843 19.9911 60.3676 19.7164C63.6963 19.2769 64.8058 18.2881 61.8998 18.2881C60.7374 18.2881 59.3108 18.6726 58.7296 19.167Z" fill="#017FDF"/>
<path d="M2.24721 46.5797L0.662109 47.2938L2.51139 47.3487C4.88903 47.4037 6.79115 46.8543 6.42129 46.2501C5.9986 45.5359 4.09649 45.7007 2.24721 46.5797Z" fill="#017FDF"/>
<path d="M6.2108 49.8761C3.14628 51.0297 -0.55228 53.4468 0.662961 53.4468C1.66686 53.4468 7.10902 50.9198 8.85263 49.6563C9.5395 49.107 9.5395 49.0521 8.85263 49.107C8.42993 49.107 7.21469 49.4366 6.2108 49.8761Z" fill="#017FDF"/>
<path d="M8.16474 54.3268C5.25873 57.9525 4.88888 59.4357 7.58354 56.689C9.37998 54.8762 11.2821 51.9097 10.8594 51.4703C10.7537 51.3604 9.53849 52.6788 8.16474 54.3268Z" fill="#017FDF"/>
</svg>
