<svg width="78" height="50" viewBox="0 0 78 50" fill="none" xmlns="http://www.w3.org/2000/svg">
<g clip-path="url(#clip0_355_12269)">
<path d="M10.4397 16.8103V26.0474C10.4397 28.0991 9.24139 29.5129 7.40087 29.5129C5.65087 29.5129 4.48276 28.1293 4.48276 26.0216V16.8103H0.43103V26.681C0.43103 30.5991 3.16379 33.1897 7.31035 33.1897C11.5173 33.1897 14.4311 30.5388 14.4655 26.681L14.4914 16.8103H10.4397ZM32.7587 23.6078C32.7523 23.2028 32.8273 22.8006 32.9792 22.4252C33.1311 22.0497 33.3569 21.7085 33.6431 21.4219C33.9293 21.1353 34.2701 20.9091 34.6454 20.7567C35.0206 20.6042 35.4227 20.5287 35.8276 20.5345C37.6078 20.5345 38.8363 21.8578 38.8363 23.7888V32.7371H42.888V23.0043C42.888 19.3578 40.3147 16.8578 36.569 16.8578C34.4182 16.8578 32.4828 17.6724 31.3794 18.9957C30.2716 17.6422 28.5819 16.8578 26.5259 16.8578C24.7759 16.8578 23.2716 17.431 22.2888 18.4526V17.3707H18.513V32.7371H22.5647V23.5776C22.5647 21.8879 23.944 20.5345 25.694 20.5345C27.444 20.5345 28.7069 21.8879 28.7069 23.6983V32.7371H32.7587V23.6078ZM45.9527 31.1121C47.2458 32.3448 49.7027 33.1897 51.9441 33.1897C55.4096 33.1897 57.651 31.2026 57.651 28.2759C57.651 26.1681 56.5173 24.9052 53.5992 23.6638L53.1079 23.4569C51.1725 22.6422 50.651 22.1897 50.651 21.5302C50.651 20.7457 51.3277 20.2931 52.4958 20.2931C53.5691 20.2931 54.5216 20.6552 55.5044 21.3491L57.2544 18.3664C56.026 17.4914 54.0604 16.9181 52.2501 16.9181C48.7803 16.9181 46.444 18.9353 46.444 21.7672C46.444 23.8491 47.7372 25.1724 50.5303 26.319L51.2027 26.5905C52.9268 27.3147 53.3837 27.7371 53.3837 28.4569C53.3837 29.3319 52.7372 29.8147 51.6035 29.8147C50.4656 29.8147 49.207 29.3319 47.9182 28.3362L45.9527 31.1121ZM60.0173 25.0517C60.0173 29.5776 63.8536 33.1897 68.6725 33.1897C73.526 33.1897 77.3622 29.5733 77.3622 25.0517C77.3622 20.5043 73.526 16.9181 68.6725 16.9181C63.8536 16.9181 60.0173 20.5345 60.0173 25.0517ZM64.2846 25.0517C64.2846 22.5517 66.2199 20.5948 68.6725 20.5948C71.1596 20.5948 73.0648 22.5517 73.0648 25.0517C73.0648 27.5517 71.1596 29.5129 68.6725 29.5129C66.2156 29.5129 64.2846 27.556 64.2846 25.0517V25.0517Z" fill="black"/>
</g>
<defs>
<clipPath id="clip0_355_12269">
<rect width="77.7932" height="50" fill="white"/>
</clipPath>
</defs>
</svg>
