<svg width="50" height="50" viewBox="0 0 50 50" fill="none" xmlns="http://www.w3.org/2000/svg">
<path d="M25 2C12.297 2 2 12.297 2 25C2 37.703 12.297 48 25 48C37.703 48 48 37.703 48 25C48 12.297 37.703 2 25 2ZM33.406 29.365C32.366 31.836 30.438 34.099 26.87 34.099C26.87 34.099 25.357 23.556 25.334 23.314C25.241 23.568 23.105 29.111 23.105 29.111C22.1 31.674 20.183 34.087 16.615 34.099L13.821 17.055C16.142 17.055 19.006 18.96 19.214 22.101C19.214 22.101 19.572 28.348 19.584 28.845C19.78 28.314 22.205 22.032 22.205 22.032C23.164 19.457 24.977 17.044 28.383 17.044C28.383 17.044 29.838 28.291 29.896 28.822C30.046 28.291 32.044 22.032 32.044 22.032C33.002 19.457 34.861 17.044 38.394 17.044L33.406 29.365Z" fill="#4653F6"/>
</svg>
