<svg width="50" height="50" viewBox="0 0 50 50" fill="none" xmlns="http://www.w3.org/2000/svg">
<path d="M7.1625 28.3437C7.31458 27.7583 7.47292 27.1771 7.625 26.5896C8.21667 24.3333 8.80209 22.0687 9.40625 19.8104C9.625 18.8896 9.94584 18.0792 10.3625 17.3313L10.3375 17.3813C10.7854 16.6083 11.5521 16.0646 12.4542 15.925L12.4708 15.9229C12.6813 15.875 12.925 15.8479 13.175 15.8479C14.1479 15.8479 15.0229 16.2604 15.6375 16.9208L15.6396 16.9229C15.9229 17.2479 16.1458 17.6333 16.2854 18.0562L16.2917 18.0792C16.6771 19.1042 17.0771 20.4229 17.4062 21.7708L17.4583 22.0292C18.0014 24.0875 18.5472 26.1472 19.0958 28.2083C19.1083 28.2562 19.0958 28.3125 19.1646 28.3542C19.2813 27.8917 19.4063 27.4333 19.5229 26.9771C20.2313 24.2174 20.9382 21.4604 21.6438 18.7063C21.7729 18.1896 21.9063 17.675 22.0417 17.1583C22.1438 16.7729 22.3 16.4375 22.5042 16.1354L22.4958 16.1479C22.8063 15.6875 23.2875 15.3646 23.8479 15.2688L23.8604 15.2667C24.5125 15.1313 25.2646 15.0521 26.0354 15.05H26.0375C26.1896 15.05 26.2167 15.0854 26.1833 15.2292C25.5361 17.7 24.8917 20.1708 24.25 22.6417C23.3 26.2958 22.3479 29.9479 21.3938 33.5979C21.2979 33.9563 21.2083 34.3208 21.1125 34.6771C21.0917 34.7458 21.0833 34.8062 20.9896 34.8146C20.8438 34.8292 20.675 34.8375 20.5021 34.8375C19.9542 34.8375 19.425 34.7562 18.9271 34.6062L18.9646 34.6167C18.7104 34.5271 18.4958 34.3875 18.3188 34.2104C18.0688 33.9771 17.8375 33.7333 17.6208 33.4792L17.6104 33.4667C17.375 33.1146 17.1688 32.7104 17.0125 32.2813L17 32.2417C16.4479 30.9104 15.9479 29.3188 15.5854 27.675L15.55 27.4792C14.9646 25.1458 14.3667 22.8125 13.775 20.4792C13.7375 20.3333 13.6771 20.2042 13.5938 20.0917L13.5958 20.0938C13.5063 19.9333 13.3354 19.825 13.1417 19.825C13.1375 19.825 13.1354 19.825 13.1313 19.825C12.8958 19.8479 12.7042 20.0062 12.6333 20.2187L12.6313 20.2229C12.4313 20.8562 12.2875 21.5021 12.1146 22.1437C11.4188 24.8271 10.7438 27.5188 10.0292 30.1958C9.81667 30.9938 9.46459 31.7437 9.19584 32.5292C8.90834 33.2812 8.42708 33.9042 7.81042 34.3542L7.8 34.3625C7.51875 34.5792 7.175 34.725 6.79792 34.7687H6.7875C6.46667 34.8125 6.09375 34.8354 5.71667 34.8354C5.60417 34.8354 5.49375 34.8333 5.38125 34.8292H5.39792C5.275 34.8292 5.23125 34.7812 5.19167 34.6625C4.525 32.1306 3.85278 29.6007 3.175 27.0729C2.29861 23.7618 1.41667 20.4444 0.529169 17.1208L0.0333353 15.2417C0.0208353 15.1792 -0.0333314 15.0896 0.0958353 15.0771C0.314585 15.0458 0.566669 15.0292 0.822919 15.0292C1.65417 15.0292 2.44375 15.2146 3.15 15.5458L3.11667 15.5312C3.60417 15.7854 3.97084 16.2188 4.13125 16.7417L4.13542 16.7563C4.49375 17.9229 4.7625 19.1021 5.06458 20.2792C5.75208 22.9361 6.43542 25.5931 7.11458 28.25C7.12083 28.2854 7.13125 28.3187 7.14375 28.35L7.14167 28.3479L7.1625 28.3437Z" fill="#3068EE"/>
<path d="M31.9646 34.8729C32.1708 34.5625 32.3563 34.2875 32.5438 34.0062C34.5438 31.0257 36.5438 28.0479 38.5438 25.0729C38.5667 25.0437 38.5813 25.0063 38.5813 24.9667C38.5813 24.9188 38.5625 24.8771 38.5292 24.8458C36.8708 22.3819 35.2146 19.9181 33.5604 17.4542L32.0604 15.1979C32.0396 15.1625 31.9917 15.1292 32.0063 15.0604L33.025 15.1229C33.6583 15.1646 34.2792 15.2063 34.9042 15.2396C35.4125 15.3021 35.8646 15.5083 36.2292 15.8146L36.225 15.8104C36.5542 16.0604 36.8313 16.3604 37.05 16.6979L37.0583 16.7125C38.1375 18.35 39.2042 19.9958 40.3271 21.6C40.8271 22.3083 41.0417 22.2396 41.5729 21.7167C41.8354 21.4062 42.0771 21.0583 42.2854 20.6896L42.3021 20.6562C43.2313 19.2729 44.1479 17.8771 45.0958 16.5062C45.6229 15.7687 46.4333 15.2646 47.3646 15.1521L47.3792 15.15C47.9521 15.0854 48.6167 15.05 49.2875 15.05C49.5042 15.05 49.7208 15.0542 49.9354 15.0604H49.9042C50.0708 15.0604 49.9667 15.15 49.9333 15.1979C49.4708 15.8854 49.0125 16.575 48.5438 17.2625C46.8493 19.7931 45.1563 22.316 43.4646 24.8312C43.4354 24.8667 43.4167 24.9146 43.4167 24.9646C43.4167 25.0229 43.4396 25.075 43.4771 25.1125C45.6243 28.3056 47.7695 31.4986 49.9125 34.6917C49.9417 34.7396 50.0083 34.7875 49.9875 34.8375C49.9667 34.8875 49.8708 34.8667 49.8208 34.8667C49.6354 34.8729 49.4188 34.8771 49.2 34.8771C48.5896 34.8771 47.9854 34.8479 47.3896 34.7937L47.4667 34.8C46.5833 34.6896 45.8125 34.2792 45.2458 33.6729L45.2438 33.6708C44.9667 33.3375 44.7083 32.9667 44.4854 32.5729L44.4646 32.5354C43.5625 31.1875 42.6688 29.8375 41.7667 28.4812C41.625 28.2604 41.4458 28.0771 41.2375 27.9354L41.2313 27.9312C41.1625 27.8687 41.0709 27.8313 40.9688 27.8313C40.8667 27.8313 40.775 27.8687 40.7063 27.9333C40.5542 28.0396 40.4271 28.1708 40.325 28.3208L40.3208 28.3271C39.1854 29.95 38.1333 31.6313 37.0313 33.2813C36.5083 34.0521 35.7 34.5958 34.7604 34.7583L34.7396 34.7604C34.2938 34.8375 33.7792 34.8792 33.2542 34.8792C33.1063 34.8792 32.9583 34.875 32.8125 34.8687H32.8333L31.9646 34.8729Z" fill="#3068EE"/>
<path d="M30.4979 18.2458V18.5146C30.4979 23.084 30.5021 27.6535 30.5104 32.2229C30.5104 32.2479 30.5125 32.275 30.5125 32.3042C30.5125 33.2417 29.9958 34.0604 29.2313 34.4875L29.2188 34.4937C28.9521 34.6646 28.6333 34.7813 28.2917 34.8167H28.2813C27.9646 34.8521 27.6 34.8708 27.2292 34.8708C27.2083 34.8708 27.1854 34.8708 27.1646 34.8708H27.1688C26.9417 34.8708 26.9417 34.8708 26.9417 34.65C26.9417 32.1792 26.9417 29.7083 26.9292 27.2375C26.9292 25.1583 26.9083 23.0875 26.9292 21.0083C26.9479 20.6146 27.1688 20.2792 27.4896 20.0958L27.4958 20.0938C27.8 19.8938 28.1354 19.7604 28.4521 19.5833C29.0854 19.2771 29.625 18.9563 30.1333 18.5958L30.0979 18.6208C30.2146 18.5104 30.3375 18.3875 30.5021 18.2417L30.4979 18.2458Z" fill="#3068EE"/>
<path d="M26.9 19.1292C26.9 19.1042 26.9 19.075 26.9 19.0458C26.9 18.4583 26.975 17.8896 27.1167 17.3479L27.1062 17.3937C27.2937 16.7146 27.6812 16.1438 28.2021 15.7313L28.2083 15.7271C28.6896 15.3917 29.2708 15.1646 29.8979 15.0958L29.9146 15.0937C30.1 15.0583 30.2854 15.0458 30.4708 15.0188C30.6229 14.9896 30.6646 15.0729 30.6708 15.2042C30.6708 15.2333 30.6729 15.2708 30.6729 15.3063C30.6729 15.5542 30.65 15.7979 30.6062 16.0354L30.6104 16.0104C30.4729 16.85 30.0896 17.5833 29.5354 18.1521C29.2187 18.45 28.8375 18.6833 28.4146 18.8271L28.3937 18.8333C27.9104 19.0104 27.4917 19.2354 27.1125 19.5104L27.1271 19.5C27.0729 19.5417 27.0104 19.6229 26.9333 19.5833C26.8562 19.5437 26.8979 19.4458 26.8917 19.3771C26.8854 19.3083 26.8979 19.2062 26.8979 19.1312L26.9 19.1292Z" fill="#3068EE"/>
</svg>
