<svg width="50" height="50" viewBox="0 0 50 50" fill="none" xmlns="http://www.w3.org/2000/svg">
<path d="M25 0C11.1937 0 0 11.1937 0 25C0 38.8062 11.1937 50 25 50C38.8062 50 50 38.8062 50 25C50 11.1937 38.8062 0 25 0ZM43.925 16.3396C43.9312 16.5396 43.9625 16.7104 43.9625 16.9187C43.9625 19.0917 43.5542 21.5375 42.3312 24.6L36.1083 42.5937C34.7875 43.4312 33.3687 44.1188 31.8708 44.6438L25.3792 26.8708L19.1479 44.9792C17.8146 44.5875 16.5375 44.0687 15.3292 43.4333L5.72292 17.1271C6.2875 15.75 6.99167 14.4479 7.82292 13.2354C8.03542 13.2396 8.275 13.2458 8.4625 13.2458C10.7042 13.2458 14.1771 12.9729 14.1771 12.9729C15.3354 12.9083 15.4688 14.6042 14.3146 14.7417C14.3146 14.7417 13.1521 14.8771 11.8604 14.9458L19.6687 38.1771L24.3604 24.1L21.0229 14.9417C19.8646 14.8771 18.7729 14.7417 18.7729 14.7417C17.6146 14.6729 17.7542 12.9042 18.9083 12.9729C18.9083 12.9729 22.45 13.2458 24.5542 13.2458C26.7958 13.2458 30.2687 12.9729 30.2687 12.9729C31.4271 12.9083 31.5604 14.6042 30.4062 14.7417C30.4062 14.7417 29.2417 14.8771 27.9521 14.9458L35.7021 38L37.8438 30.8458C38.9313 28.0604 39.475 25.7542 39.475 23.9146C39.475 21.2646 38.525 19.4292 37.7063 18.0021C36.6208 16.2333 35.5979 14.7396 35.5979 12.9708C35.5979 11.2021 36.8062 9.55417 38.5792 9.23333C40.8375 11.1833 42.6667 13.6021 43.925 16.3396Z" fill="#397499"/>
</svg>
