<svg width="18"
	height="18"
	viewBox="0 0 18 18"
	fill="none"
	xmlns="http://www.w3.org/2000/svg">
	<g clipPath="url(#clip0_238_6550)">
		<path d="M3.34875 2.34152L4.59075 1.09802C4.93825 0.748749 5.35156 0.471869 5.80678 0.283398C6.26199 0.094927 6.75006 -0.00139199 7.24275 1.51991e-05H12C12.9942 0.00120609 13.9473 0.396677 14.6503 1.09968C15.3533 1.80268 15.7488 2.75582 15.75 3.75002V14.25C15.7488 15.2442 15.3533 16.1973 14.6503 16.9004C13.9473 17.6034 12.9942 17.9988 12 18H6C5.0058 17.9988 4.05267 17.6034 3.34966 16.9004C2.64666 16.1973 2.25119 15.2442 2.25 14.25V4.99277C2.24879 4.50015 2.34528 4.01219 2.53387 3.55711C2.72247 3.10203 2.99944 2.68886 3.34875 2.34152ZM4.40925 3.40202C4.30287 3.508 4.20762 3.62461 4.125 3.75002H6V1.87502C5.8748 1.95851 5.758 2.05395 5.65125 2.16002L4.40925 3.40202ZM3.75 14.25C3.75 14.8468 3.98705 15.4191 4.40901 15.841C4.83097 16.263 5.40326 16.5 6 16.5H12C12.5967 16.5 13.169 16.263 13.591 15.841C14.0129 15.4191 14.25 14.8468 14.25 14.25V3.75002C14.25 3.15328 14.0129 2.58098 13.591 2.15903C13.169 1.73707 12.5967 1.50002 12 1.50002H7.5V3.75002C7.5 4.14784 7.34196 4.52937 7.06066 4.81068C6.77936 5.09198 6.39782 5.25002 6 5.25002H3.75V14.25ZM6 6.75002C5.80109 6.75002 5.61032 6.82903 5.46967 6.96969C5.32902 7.11034 5.25 7.3011 5.25 7.50002C5.25 7.69893 5.32902 7.88969 5.46967 8.03035C5.61032 8.171 5.80109 8.25002 6 8.25002H12C12.1989 8.25002 12.3897 8.171 12.5303 8.03035C12.671 7.88969 12.75 7.69893 12.75 7.50002C12.75 7.3011 12.671 7.11034 12.5303 6.96969C12.3897 6.82903 12.1989 6.75002 12 6.75002H6ZM5.25 10.5C5.25 10.6989 5.32902 10.8897 5.46967 11.0303C5.61032 11.171 5.80109 11.25 6 11.25H12C12.1989 11.25 12.3897 11.171 12.5303 11.0303C12.671 10.8897 12.75 10.6989 12.75 10.5C12.75 10.3011 12.671 10.1103 12.5303 9.96969C12.3897 9.82903 12.1989 9.75002 12 9.75002H6C5.80109 9.75002 5.61032 9.82903 5.46967 9.96969C5.32902 10.1103 5.25 10.3011 5.25 10.5ZM5.394 13.0598C5.27741 13.2202 5.22909 13.4202 5.25959 13.6161C5.29008 13.812 5.39693 13.9879 5.55675 14.1053C6.31664 14.6467 7.21665 14.9574 8.14875 15C8.69334 14.9974 9.22139 14.8126 9.64875 14.475C9.89475 14.3063 9.9885 14.25 10.1737 14.25C10.6752 14.3276 11.1483 14.5327 11.5478 14.8455C11.7062 14.9585 11.9023 15.0054 12.0947 14.9765C12.2871 14.9475 12.4608 14.8449 12.5789 14.6903C12.6971 14.5357 12.7506 14.3413 12.7281 14.148C12.7055 13.9547 12.6088 13.7778 12.4583 13.6545C11.7974 13.1415 11.0038 12.8277 10.1707 12.75C9.67115 12.758 9.18816 12.9307 8.79675 13.2413C8.61834 13.4017 8.38863 13.4935 8.14875 13.5C7.53549 13.4541 6.94577 13.2446 6.441 12.8933C6.28005 12.7766 6.07936 12.7286 5.88304 12.7598C5.68672 12.791 5.51082 12.8989 5.394 13.0598Z"
			fill="#3A85D0" />
	</g>
</svg>
