<svg width="18"
	height="18"
	viewBox="0 0 18 18"
	xmlns="http://www.w3.org/2000/svg"
	fill="none">
	<g clipPath="url(#clip0_238_6540)">
		<path d="M15 0C14.2044 0 13.4413 0.316071 12.8787 0.87868C12.3161 1.44129 12 2.20435 12 3C12 3.19891 12.079 3.38968 12.2197 3.53033C12.3603 3.67098 12.5511 3.75 12.75 3.75C12.9489 3.75 13.1397 3.67098 13.2803 3.53033C13.421 3.38968 13.5 3.19891 13.5 3C13.5 2.60218 13.658 2.22064 13.9393 1.93934C14.2206 1.65804 14.6022 1.5 15 1.5C15.3978 1.5 15.7794 1.65804 16.0607 1.93934C16.342 2.22064 16.5 2.60218 16.5 3V11.2695C15.8547 10.7731 15.0641 10.5028 14.25 10.5C13.6359 10.5003 13.0313 10.6513 12.4892 10.94C11.9472 11.2286 11.4843 11.6459 11.1412 12.1553C10.863 11.8688 10.5302 11.6411 10.1624 11.4856C9.79458 11.3301 9.39932 11.25 9 11.25C8.60068 11.25 8.20542 11.3301 7.83762 11.4856C7.46983 11.6411 7.13697 11.8688 6.85875 12.1553C6.51571 11.6459 6.05284 11.2286 5.51079 10.94C4.96874 10.6513 4.3641 10.5003 3.75 10.5C2.9359 10.5028 2.14529 10.7731 1.5 11.2695V3C1.5 2.60218 1.65804 2.22064 1.93934 1.93934C2.22064 1.65804 2.60218 1.5 3 1.5C3.39782 1.5 3.77936 1.65804 4.06066 1.93934C4.34196 2.22064 4.5 2.60218 4.5 3C4.5 3.19891 4.57902 3.38968 4.71967 3.53033C4.86032 3.67098 5.05109 3.75 5.25 3.75C5.44891 3.75 5.63968 3.67098 5.78033 3.53033C5.92098 3.38968 6 3.19891 6 3C6 2.20435 5.68393 1.44129 5.12132 0.87868C4.55871 0.316071 3.79565 0 3 0C2.20435 0 1.44129 0.316071 0.87868 0.87868C0.316071 1.44129 0 2.20435 0 3L0 14.25C0 15.2446 0.395088 16.1984 1.09835 16.9016C1.80161 17.6049 2.75544 18 3.75 18C4.74456 18 5.69839 17.6049 6.40165 16.9016C7.10491 16.1984 7.5 15.2446 7.5 14.25C7.5 13.8522 7.65804 13.4706 7.93934 13.1893C8.22064 12.908 8.60218 12.75 9 12.75C9.39782 12.75 9.77936 12.908 10.0607 13.1893C10.342 13.4706 10.5 13.8522 10.5 14.25C10.5 15.2446 10.8951 16.1984 11.5983 16.9016C12.3016 17.6049 13.2554 18 14.25 18C15.2446 18 16.1984 17.6049 16.9016 16.9016C17.6049 16.1984 18 15.2446 18 14.25V3C18 2.20435 17.6839 1.44129 17.1213 0.87868C16.5587 0.316071 15.7956 0 15 0V0ZM3.75 16.5C3.30499 16.5 2.86998 16.368 2.49997 16.1208C2.12996 15.8736 1.84157 15.5222 1.67127 15.111C1.50097 14.6999 1.45642 14.2475 1.54323 13.811C1.63005 13.3746 1.84434 12.9737 2.15901 12.659C2.47368 12.3443 2.87459 12.13 3.31105 12.0432C3.7475 11.9564 4.1999 12.001 4.61104 12.1713C5.02217 12.3416 5.37357 12.63 5.62081 13C5.86804 13.37 6 13.805 6 14.25C6 14.8467 5.76295 15.419 5.34099 15.841C4.91903 16.2629 4.34674 16.5 3.75 16.5ZM14.25 16.5C13.805 16.5 13.37 16.368 13 16.1208C12.63 15.8736 12.3416 15.5222 12.1713 15.111C12.001 14.6999 11.9564 14.2475 12.0432 13.811C12.13 13.3746 12.3443 12.9737 12.659 12.659C12.9737 12.3443 13.3746 12.13 13.811 12.0432C14.2475 11.9564 14.6999 12.001 15.111 12.1713C15.5222 12.3416 15.8736 12.63 16.1208 13C16.368 13.37 16.5 13.805 16.5 14.25C16.5 14.8467 16.2629 15.419 15.841 15.841C15.419 16.2629 14.8467 16.5 14.25 16.5Z"
			fill="#65C985" />
	</g>
</svg>
