<svg width="16"
	height="18"
	viewBox="0 0 16 18"
	fill="none"
	xmlns="http://www.w3.org/2000/svg">
	<path d="M13.995 4.15202L11.382 1.53752C10.8954 1.04862 10.3169 0.661015 9.67962 0.397112C9.04239 0.133208 8.35917 -0.00175791 7.66945 1.72865e-05H4.2832C3.28901 0.00120818 2.33587 0.396679 1.63287 1.09968C0.929865 1.80269 0.534394 2.75582 0.533203 3.75002V14.25C0.534394 15.2442 0.929865 16.1973 1.63287 16.9004C2.33587 17.6034 3.28901 17.9988 4.2832 18H11.7832C12.7774 17.9988 13.7305 17.6034 14.4335 16.9004C15.1365 16.1973 15.532 15.2442 15.5332 14.25V7.86377C15.5351 7.17408 15.4001 6.49089 15.136 5.85375C14.872 5.21661 14.4841 4.6382 13.995 4.15202ZM12.9345 5.21252C13.1635 5.44813 13.3604 5.71291 13.5202 6.00002H10.2832C10.0843 6.00002 9.89353 5.921 9.75287 5.78035C9.61222 5.63969 9.5332 5.44893 9.5332 5.25002V2.01302C9.8204 2.17271 10.0854 2.36939 10.3215 2.59802L12.9345 5.21252ZM14.0332 14.25C14.0332 14.8468 13.7962 15.4191 13.3742 15.841C12.9522 16.263 12.3799 16.5 11.7832 16.5H4.2832C3.68647 16.5 3.11417 16.263 2.69221 15.841C2.27026 15.4191 2.0332 14.8468 2.0332 14.25V3.75002C2.0332 3.15328 2.27026 2.58098 2.69221 2.15903C3.11417 1.73707 3.68647 1.50002 4.2832 1.50002H7.66945C7.79245 1.50002 7.9117 1.52402 8.0332 1.53527V5.25002C8.0332 5.84675 8.27026 6.41905 8.69221 6.84101C9.11417 7.26296 9.68647 7.50002 10.2832 7.50002H13.998C14.0092 7.62152 14.0332 7.74002 14.0332 7.86377V14.25Z"
		fill="#99A8B5"/>
</svg>
